<svg width="285" height="232" viewBox="0 0 285 232" fill="none" xmlns="http://www.w3.org/2000/svg">
<path d="M229.018 32.5018C228.514 31.9772 227.918 31.3221 227.232 30.5365L222.852 24.8885C213.155 22.7808 204.853 20.9244 197.944 19.3192C191.322 18.1255 184.905 16.7889 178.694 15.3094L135.298 7.48738C130.641 7.36774 126.744 7.02519 123.607 6.45973C120.407 6.24284 117.413 5.88309 114.625 5.38046C111.139 4.75218 108.033 4.01245 105.308 3.16127C102.931 2.37292 100.348 1.72745 97.5593 1.22482L93.3766 0.470886C92.2681 0.630951 90.9853 0.759613 89.5283 0.856873C85.0943 1.49716 81.7373 2.15169 79.4575 2.82039C77.5262 3.55194 75.4521 4.07779 73.2351 4.39793C70.9552 5.06664 68.1211 5.81538 64.7328 6.64417C61.693 7.53578 57.0533 8.31894 50.8136 8.99368L44.2568 9.43127L30.2524 18.2433C29.8127 20.6833 28.39 22.5862 25.9845 23.952C23.9276 25.3806 21.5707 27.475 18.9139 30.2351C16.1943 33.3437 13.2547 37.6722 10.0953 43.2208C7.22161 49.1807 4.77951 57.7376 2.76902 68.8915C1.63812 75.1656 0.918598 81.1539 0.610472 86.8565C0.239516 92.9077 0.802788 98.7674 2.30028 104.436C4.9123 113.903 7.42706 121.914 9.84458 128.468C12.1993 135.37 14.8225 141.781 17.7142 147.701C20.9545 153.683 24.6062 159.38 28.6693 164.791C32.6695 170.55 37.6212 177.021 43.5243 184.203C44.3815 185.437 46.5387 187.445 49.9959 190.228C53.4531 193.01 57.4331 195.887 61.9359 198.858C66.4388 201.829 71.1788 204.483 76.1558 206.819C81.4187 209.567 86.6643 211.413 91.8927 212.355L105.255 219.082C112.575 220.402 119.055 221.39 124.695 222.046L179.593 231.942C182.061 230.227 183.689 228.182 184.478 225.805C185.552 223.839 186.514 221.493 187.366 218.768C187.684 217.807 187.951 216.808 188.166 215.77L213.636 212.987C213.281 210.508 214.364 208.531 216.885 207.057C219.846 205.824 223.026 204.711 226.426 203.718C229.146 202.924 232.085 202.25 235.244 201.696C238.743 201.044 241.343 200.469 243.043 199.973C245.422 199.278 246.803 198.321 247.186 197.103C265.187 180.408 276.578 160.663 281.36 137.867C286.58 115.311 285.617 91.7943 278.469 67.3158L277.129 62.726C267.095 52.373 255.858 44.2162 243.418 38.2557C238.493 35.9083 233.693 33.9903 229.018 32.5018Z" fill="#F9F5FA"/>
<path fill-rule="evenodd" clip-rule="evenodd" d="M144.224 59.6579C144.224 60.1662 143.309 61.5895 142.089 62.8095L139.954 64.9445L140.666 62.8095C141.479 60.1662 140.666 60.1662 130.5 62.4029C126.23 63.3178 123.281 64.3345 123.993 64.7411C125.721 65.8595 123.281 67.0794 121.045 66.2661C119.926 65.9611 117.69 66.7745 115.555 68.1978C113.522 69.5194 110.98 70.9427 109.76 71.3494C108.54 71.6544 107.625 72.4677 107.625 72.976C107.625 74.196 101.728 79.9909 100.508 79.9909C99.8985 79.9909 99.4918 80.7025 99.4918 81.5158C99.4918 82.3292 100 83.0408 100.508 83.0408C101.118 83.0408 101.525 83.5491 101.525 84.2608C101.525 85.1758 101.22 85.1758 100.305 84.2608C99.4918 83.4475 98.7802 83.3458 97.7635 84.1591C96.0352 85.6841 96.0352 87.5141 97.8652 86.8024C98.6785 86.4974 99.5935 86.9041 99.8985 87.7174C100.813 89.954 100.712 90.0557 98.4752 89.4457C97.1536 89.1407 95.8319 89.5474 95.1203 90.564C94.4086 91.479 92.477 92.394 90.7487 92.4957C89.0204 92.699 87.0887 93.2073 86.3771 93.614C85.7671 94.0206 85.2588 93.919 85.2588 93.5123C85.2588 93.004 81.9038 92.9023 77.8372 93.309C77.3339 93.3606 76.8322 93.4122 76.3386 93.463L76.3384 93.463C72.9438 93.8123 69.9316 94.1223 69.3991 94.1223C67.3658 94.224 66.9591 97.1722 68.5857 98.7989C69.7041 99.9172 70.619 100.121 71.4324 99.3072C72.144 98.7989 72.9573 98.5955 73.2623 98.7989C73.5673 99.1039 75.0923 98.7989 76.7189 98.1889C78.3456 97.4772 80.3789 97.0706 81.2938 97.1722C82.2088 97.2739 83.2255 96.6639 83.6321 95.7489C83.9371 94.8339 84.6488 94.4273 85.2588 94.7323C85.8688 95.1389 85.9704 95.8506 85.6654 96.4606C85.2588 97.1722 85.6654 97.1722 86.8854 96.5622C88.0037 95.9523 89.9354 95.8506 91.3587 96.2572C92.782 96.6639 94.7136 96.5622 95.7303 96.0539C96.7469 95.5456 97.4586 95.5456 97.4586 96.1556C97.4586 96.6639 98.3735 96.8672 99.4918 96.5622C100.61 96.2572 101.525 95.6473 101.525 95.1389C101.525 94.6306 102.542 94.224 103.863 94.224C105.185 94.224 106.71 93.7156 107.32 93.1056C108.235 92.1907 109.15 92.699 111.183 94.6306C112.708 96.1556 115.148 97.8839 116.572 98.3922C120.333 99.8155 128.771 99.7139 130.5 98.2905C131.313 97.5789 132.025 97.3756 132.025 97.8839C132.025 98.3922 132.533 97.9855 133.143 96.9689C133.651 96.0539 134.77 95.2406 135.481 95.2406C137.21 95.2406 138.226 92.699 137.413 90.4623C137.006 89.4457 137.21 89.039 137.921 89.5474C138.531 89.8524 139.243 89.7507 139.548 89.2424C139.954 88.734 139.751 87.9207 139.141 87.6157C138.328 87.1074 138.429 86.4974 139.243 85.4808C139.853 84.6675 140.158 83.6508 139.751 83.3458C139.344 82.9392 138.734 83.1425 138.328 83.7525C137.819 84.5658 137.108 84.6675 136.091 83.9558C134.77 83.2441 134.77 82.9392 135.99 82.1258C137.616 81.1092 136.6 78.9742 134.465 78.9742C133.55 78.9742 132.33 78.3642 131.618 77.6526C129.788 75.8226 121.35 76.3309 119.316 78.3642C118.402 79.2792 117.08 79.9909 116.368 79.9909C114.538 79.9909 111.488 83.5491 112.403 84.5658C112.912 84.9725 112.708 85.0741 112.098 84.7691C110.878 84.0575 109.252 86.7008 109.455 88.6324C109.557 89.1407 108.032 89.7507 106.1 89.8524C103.965 89.954 102.542 89.5474 102.542 88.8357C102.643 86.9041 109.658 79.6859 115.047 75.9243C117.69 74.0943 119.825 72.1627 119.825 71.756C119.825 71.3494 121.858 70.7394 124.4 70.4344C126.941 70.0277 128.975 69.3161 128.975 68.7061C128.975 68.1978 130.093 67.7911 131.415 67.7911C133.041 67.7911 134.16 67.0794 134.566 65.7578C135.278 63.6228 136.6 63.1145 137.515 64.6395C137.921 65.1478 137.515 65.8595 136.905 66.1645C136.193 66.4695 137.006 66.4695 138.633 66.1645C144.834 64.9445 147.884 64.5378 154.188 64.3345C157.644 64.2328 159.881 64.4362 159.271 64.9445C158.457 65.3511 159.474 65.7578 161.812 65.7578C164.557 65.7578 165.472 65.3511 165.066 64.4362C164.659 63.8262 165.269 64.2328 166.286 65.4528C168.116 67.6894 174.724 69.6211 174.724 67.8928C174.724 67.3844 175.639 67.1811 176.757 67.4861C178.689 67.9944 178.79 68.0961 177.062 69.4177C176.145 70.1187 175.715 70.4479 175.771 70.6176C175.82 70.768 176.25 70.7933 177.062 70.841C179.604 70.841 187.635 79.0759 189.567 83.5491C191.6 88.4291 190.685 95.2406 188.042 95.2406C187.025 95.2406 185.907 95.5456 185.5 95.9523C184.687 96.8672 182.755 97.1722 175.13 97.5789C171.776 97.7822 168.421 98.2905 167.709 98.6972C166.692 99.4089 166.591 99.1039 167.404 97.5789C170.251 92.394 160.592 88.9374 153.578 92.5973C147.173 95.9523 145.038 106.525 149.918 110.389C152.459 112.422 152.764 112.422 154.086 110.795C155.306 109.27 155.509 109.169 155.103 110.592C154.696 111.914 155.204 112.219 157.746 111.914C158.585 111.867 159.468 111.799 160.246 111.739L160.246 111.739C161.164 111.668 161.936 111.609 162.321 111.609C163.032 111.507 164.151 110.389 164.761 108.965C165.371 107.542 166.489 106.424 167.099 106.424C167.709 106.424 168.827 105.305 169.437 103.882C170.047 102.459 171.369 101.34 172.182 101.34C173.199 101.34 173.504 100.832 173.097 100.019C172.487 99.2055 172.792 99.2055 174.012 100.121C175.435 101.34 175.944 101.239 177.469 99.8155C178.587 98.5955 179.299 98.3922 179.604 99.2055C179.807 99.8155 181.332 100.324 182.959 100.324C187.229 100.324 186.72 102.764 181.637 107.847C176.757 112.625 170.556 116.489 166.082 117.709C164.456 118.115 160.287 119.234 156.932 120.148C151.036 121.775 133.55 122.995 131.516 121.877C131.008 121.47 129.89 121.165 128.975 121.063C128.161 120.962 125.721 120.555 123.485 120.148C121.045 119.742 119.825 119.843 120.231 120.453C120.536 120.962 120.028 122.08 119.215 122.792C117.69 124.012 117.588 123.808 118.198 121.063C118.808 118.319 118.605 117.912 115.352 116.794C113.42 116.082 109.252 112.727 106.202 109.372C103.05 106.017 100.508 103.78 100.508 104.39C100.508 105.069 99.8607 105.378 99.0948 105.052C99.2422 104.854 99.3878 104.633 99.5293 104.39C100.241 103.272 101.359 102.357 102.071 102.357C102.783 102.357 103.494 101.849 103.596 101.34C104.003 98.2905 103.698 97.7822 101.664 97.6805C100.444 97.5788 99.631 97.8838 99.8343 98.3921C100.139 98.7988 99.7327 99.8154 98.9194 100.629C98.106 101.442 97.6994 102.357 98.0044 102.764C98.411 103.069 98.106 103.374 97.496 103.374C96.7844 103.374 96.2761 104.085 96.2761 104.899C96.2761 106.025 96.7856 106.501 97.476 106.34C97.4642 106.52 97.4586 106.717 97.4586 106.932C97.4586 108.355 96.9502 109.474 96.2386 109.474C95.6286 109.474 95.4253 109.779 95.7303 110.084C96.1369 110.49 97.4586 110.084 98.7802 109.169C100.712 107.949 101.22 107.847 101.22 108.965C101.22 109.779 99.8985 110.897 98.2719 111.405C96.7469 112.015 95.4253 113.134 95.4253 114.049C95.4253 115.065 95.9336 115.37 96.7469 114.964C97.5602 114.354 97.5602 114.659 96.6452 115.879C95.8319 116.794 95.5269 118.014 95.8319 118.522C96.2386 119.03 96.0352 119.742 95.5269 120.047C94.5103 120.657 94.8153 128.892 96.0352 137.33C96.4419 140.176 96.7469 142.921 96.6452 143.43C96.4419 143.836 96.9502 144.853 97.5602 145.666C98.1702 146.48 98.3735 147.09 97.8652 147.09C97.4586 147.09 97.5602 147.598 98.2719 148.31C98.9835 149.021 99.4918 150.343 99.4918 151.36C99.4918 156.138 107.218 165.084 109.455 162.848C109.76 162.644 110.573 163.254 111.285 164.271C113.42 167.219 125.01 171.388 135.38 172.913C144.428 174.234 148.698 174.031 144.631 172.303C143.004 171.693 143.106 171.591 145.241 171.693C146.664 171.794 148.393 171.591 149.104 171.083C150.019 170.473 150.324 170.778 150.121 172.099C149.816 173.624 150.629 173.828 156.932 173.624C160.796 173.523 164.252 173.218 164.659 172.913C165.066 172.709 167.506 172.303 170.251 171.998C172.996 171.591 176.147 170.473 177.265 169.456C178.384 168.439 180.519 167.219 182.145 166.914C183.67 166.508 188.042 163.254 191.804 159.696C195.565 156.138 198.92 153.19 199.225 153.19C200.648 153.19 202.173 147.293 201.665 143.531C201.36 141.295 201.157 136.923 201.258 133.873C201.462 130.823 201.563 122.588 201.563 115.675C201.563 103.882 201.36 102.967 199.327 101.239C196.277 98.9005 197.7 98.1889 206.037 97.8839C210.103 97.6806 212.746 97.1722 212.645 96.4606C212.543 95.9523 213.153 95.1389 213.966 94.8339C215.186 94.3256 215.491 94.6306 214.983 95.8506C214.475 97.2739 214.576 97.3756 215.898 96.2572C220.168 92.699 216.406 91.8857 203.597 93.7156C200.648 94.0206 198.107 94.0206 197.802 93.5123C197.497 93.1056 197.192 90.6657 196.988 88.1241C196.582 80.8042 189.974 70.536 183.67 67.3844L183.67 67.3842C181.84 66.4693 179.604 65.3511 178.79 64.8428C177.977 64.3345 176.147 63.5212 174.724 62.9112C173.933 62.6288 172.829 62.1895 171.724 61.7502C170.84 61.3988 169.957 61.0473 169.234 60.7762C165.371 59.1496 155.408 58.4379 155.408 59.6579C155.408 60.2679 154.899 60.6746 154.289 60.6746C153.781 60.6746 153.578 60.1662 153.883 59.6579C154.289 59.0479 152.561 58.6413 149.409 58.6413C146.563 58.6413 144.224 59.0479 144.224 59.6579ZM129.381 83.5491C134.058 85.5824 134.566 89.649 130.296 91.2757C128.771 91.8857 127.246 92.8006 126.84 93.309C125.721 95.1389 117.69 93.004 116.063 90.4623C114.64 88.4291 114.742 88.0224 117.08 85.6841C118.707 84.0575 120.333 83.3458 121.655 83.7525C122.773 83.9558 123.993 83.7525 124.298 83.1425C124.33 83.0921 124.361 83.0435 124.391 82.9967C124.646 82.5973 124.817 82.3291 125.061 82.2034C125.561 81.9464 126.366 82.2843 128.817 83.3128C128.996 83.3879 129.184 83.4666 129.381 83.5491ZM162.016 103.374C160.897 104.594 158.457 106.22 156.526 107.135C155.423 107.632 154.32 108.158 153.46 108.568L153.46 108.568C152.735 108.914 152.183 109.177 151.951 109.27C151.443 109.575 151.341 109.27 151.748 108.66C152.154 107.949 153.273 107.44 154.188 107.339C155.408 107.339 155.306 107.034 153.679 106.424C151.748 105.61 151.443 105 151.951 102.154C152.764 97.8839 153.476 97.1722 157.644 96.3589C160.592 95.6473 161.101 95.8506 162.422 98.4939C163.744 101.035 163.744 101.544 162.016 103.374ZM124.4 97.2739C124.705 97.7822 124.095 98.2905 122.875 98.2905C121.655 98.2905 121.045 97.7822 121.35 97.2739C121.655 96.6639 122.366 96.2572 122.875 96.2572C123.383 96.2572 124.095 96.6639 124.4 97.2739ZM128.975 97.2739C128.975 97.7822 128.466 98.2905 127.856 98.2905C127.348 98.2905 127.145 97.7822 127.45 97.2739C127.755 96.6639 128.263 96.2572 128.568 96.2572C128.771 96.2572 128.975 96.6639 128.975 97.2739ZM195.362 112.015C195.158 119.234 193.125 128.892 190.99 132.857C190.38 134.077 190.075 135.703 190.38 136.517C190.685 137.33 190.584 137.838 190.075 137.432C189.567 137.127 188.957 137.533 188.652 138.143C188.144 139.77 188.042 139.668 184.89 133.365C182.857 129.4 181.84 128.282 179.909 128.282C177.875 128.282 177.164 129.095 175.74 133.873C174.724 136.923 173.606 141.6 173.301 144.243C172.894 146.886 172.182 149.326 171.674 149.631C170.454 150.343 167.506 149.123 168.116 148.106C168.421 147.598 168.116 146.886 167.404 146.378C166.692 145.971 165.167 143.938 164.151 142.006C163.032 140.075 161.711 138.143 161.101 137.737C160.491 137.33 159.982 136.415 159.982 135.703C159.982 134.992 158.966 134.28 157.847 134.077C155.916 133.772 155.509 134.483 154.899 138.651C154.701 139.681 154.503 140.757 154.323 141.735L154.323 141.736L154.323 141.737C154.041 143.269 153.803 144.56 153.679 145.056C153.476 145.87 153.171 147.496 152.968 148.716C152.764 149.835 152.358 151.36 151.951 151.97C151.138 153.393 148.189 153.596 148.494 152.275C148.698 151.766 146.258 148.716 143.208 145.463C140.056 142.108 137.515 138.55 137.616 137.533C137.616 134.382 135.38 134.483 133.753 137.635C132.94 139.16 131.618 143.125 130.906 146.276C128.975 154.41 128.161 154.105 124.298 144.04C122.875 140.481 121.553 138.55 120.74 138.753C119.926 138.956 119.621 138.753 120.13 138.346C120.536 137.94 119.621 136.313 118.097 134.687C116.572 133.162 115.962 131.84 116.572 131.84C117.283 131.84 117.792 131.332 117.792 130.823C117.792 128.892 115.657 129.807 114.843 132.043C113.827 134.788 114.64 136.72 115.86 134.788C116.673 133.467 117.182 134.28 116.877 136.11C116.877 136.618 117.182 136.923 117.792 136.923C118.3 136.923 118.503 137.635 118.198 138.448C117.792 139.363 118.198 139.973 119.012 139.973C119.723 139.973 120.435 140.786 120.536 141.701C120.841 146.378 124.4 155.223 126.026 155.223C126.535 155.223 126.84 155.731 126.636 156.341C126.331 157.764 131.516 161.729 132.838 161.018C133.346 160.611 134.058 156.748 134.363 152.275C134.668 147.801 135.176 143.633 135.583 143.023C135.99 142.311 138.023 144.141 140.666 147.801C143.004 151.055 146.359 155.02 148.088 156.646C150.833 159.188 151.443 159.391 153.069 158.171C154.086 157.358 155.001 155.833 155.001 154.715C155.001 151.665 158.457 141.091 159.677 140.38C160.287 139.973 160.491 140.075 160.186 140.685C159.779 141.295 160.186 142.311 160.999 143.023C161.812 143.735 162.524 144.853 162.524 145.565C162.524 146.175 163.947 148.716 165.574 150.953C167.709 153.901 169.336 155.223 171.064 155.223C173.911 155.223 176.655 152.885 176.859 150.343C177.265 144.345 177.672 141.905 178.79 138.55C180.112 134.382 181.84 134.178 182.959 138.143C184.382 143.43 188.957 148.411 188.957 144.65C188.957 143.836 189.465 142.82 190.177 142.413C190.99 141.905 191.092 142.413 190.787 143.836C189.974 146.581 191.6 146.785 193.023 144.141C193.837 142.515 193.633 141.905 192.312 141.091C190.685 140.176 190.787 140.075 192.82 139.973C194.142 139.973 194.853 140.38 194.548 140.99C194.243 141.498 194.853 142.718 196.073 143.735C198.208 145.565 198.717 147.09 197.293 147.09C196.785 147.09 193.837 149.428 190.685 152.376C177.265 164.576 166.794 168.338 147.274 167.829C138.124 167.524 133.956 166.813 124.705 163.559C117.792 161.221 116.572 161.018 115.758 162.339C114.945 163.661 114.742 163.559 114.742 162.034C114.742 161.119 114.335 160.306 113.827 160.306C113.217 160.306 111.488 159.086 109.76 157.561C106.1 154.105 102.643 146.378 101.932 140.075L101.525 135.398L103.355 139.058C105.998 144.548 107.422 145.87 109.963 145.463C111.183 145.26 111.59 145.26 110.98 145.666C108.642 146.683 109.557 148.818 112.302 148.818C114.132 148.818 114.538 148.513 113.827 147.801C113.217 147.191 112.81 145.565 112.81 144.04L112.81 144.04C112.915 142.834 112.966 142.25 113.046 142.246C113.121 142.242 113.223 142.75 113.42 143.735C114.03 146.785 115.453 146.785 115.25 143.735C115.148 142.515 115.453 140.888 116.063 140.176C116.572 139.465 116.775 138.55 116.368 138.245C115.962 137.838 114.64 138.753 113.42 140.38C111.387 142.921 110.98 143.023 108.54 141.803C107.117 141.091 106.1 139.871 106.303 139.261C106.507 138.651 105.388 135.398 103.66 132.145C100.305 125.537 100.204 125.232 100.407 118.217L100.407 118.202C100.509 113.337 100.511 113.237 102.542 115.065C103.558 115.98 105.287 116.59 106.303 116.387C107.32 116.082 109.048 116.794 110.065 117.81C111.488 119.132 111.59 119.64 110.675 119.64C109.557 119.64 109.557 119.945 110.472 120.86C111.997 122.385 118.91 124.723 120.028 124.113C120.435 123.808 120.841 124.012 120.841 124.52C120.841 125.943 123.485 126.757 130.195 127.265C135.278 127.773 136.091 127.57 136.193 126.045C136.193 124.622 136.396 124.52 136.803 125.74C137.718 128.078 139.039 128.587 143.614 128.282C158.254 127.265 177.977 121.368 176.147 118.42C175.74 117.81 175.842 117.607 176.35 117.912C178.18 119.03 185.399 114.049 188.957 109.169C194.04 102.357 195.667 103.069 195.362 112.015ZM161.507 109.575C161.507 110.084 160.491 110.49 159.271 110.389C157.949 110.389 157.542 110.084 158.254 109.779C158.864 109.575 159.271 108.864 158.966 108.355C158.559 107.847 159.067 107.745 159.881 108.05C160.796 108.355 161.507 109.067 161.507 109.575ZM116.267 118.522C116.572 119.03 116.368 119.742 115.86 120.047C115.352 120.352 114.742 119.945 114.335 119.132C113.725 117.505 115.25 116.997 116.267 118.522ZM114.071 151.156C114.376 151.665 114.884 152.173 115.189 152.173C115.392 152.173 115.596 151.665 115.596 151.156C115.596 150.546 115.087 150.14 114.477 150.14C113.969 150.14 113.766 150.546 114.071 151.156Z" fill="#920B0E"/>
</svg>
