<svg width="81" height="81" viewBox="0 0 81 81" fill="none" xmlns="http://www.w3.org/2000/svg">
<path fill-rule="evenodd" clip-rule="evenodd" d="M48.3875 60.7507C48.2139 60.7507 48.0403 60.5772 48.0403 60.4036C48.0403 60.1953 48.2139 60.0565 48.3875 60.0565C48.5957 60.0565 48.7346 60.1953 48.7346 60.4036C48.7346 60.5772 48.5957 60.7507 48.3875 60.7507ZM29.5325 20.797C27.9704 22.5673 27.8316 24.7541 29.1159 27.1493C30.0532 28.9543 30.2961 30.0998 29.4631 28.9196C28.6994 27.8088 25.9224 26.0385 24.9505 26.0385C24.4993 26.0385 23.8397 26.4203 23.4579 26.8716C22.9025 27.6005 22.8331 28.0171 23.0761 29.4055C23.1987 30.0435 23.3388 30.9589 23.4594 31.7472L23.4594 31.7473C23.5094 32.0742 23.556 32.3793 23.5967 32.6337C23.7356 33.5015 24.2216 34.8553 24.6728 35.6537L25.5406 37.1463L24.6728 37.0769C24.1868 37.0421 23.3885 37.2157 22.9025 37.4934C22.2083 37.8405 22 38.2223 22 39.1596C22 40.3745 23.0414 42.8737 24.048 44.0192C24.3604 44.3663 24.7769 44.9564 24.9852 45.3036C25.4712 46.1714 26.1654 46.3796 26.1654 45.6854C26.1654 45.373 26.0266 45.13 25.8183 45.13C25.6447 45.13 25.4712 44.8176 25.4712 44.4358C25.4712 44.0539 25.0894 43.1167 24.6034 42.3531C23.6662 40.8952 23.4232 38.8819 24.1868 38.8819C24.4298 38.8819 25.2282 39.1943 25.9919 39.5761C26.7555 39.9579 27.6233 40.2703 27.9704 40.2703C28.4911 40.2703 28.5953 40.5827 28.5953 41.9712C28.5953 42.9432 28.4564 43.811 28.2481 43.9151C27.7622 44.1928 27.7969 44.7829 28.2828 44.7829C28.5258 44.7829 28.873 45.0259 29.1159 45.3383C29.4978 45.8937 29.5325 45.8937 29.7407 45.3383C29.9143 44.9217 29.8449 44.8176 29.5325 44.9564C29.3242 45.0953 29.3589 44.9912 29.6713 44.7135C30.5391 44.0192 30.9904 42.9084 30.678 42.3531C30.5391 42.0754 30.4003 40.6522 30.4003 39.229C30.4003 36.3826 30.8862 35.4107 32.24 35.4107C32.9342 35.4107 33.0037 35.5842 32.9342 36.9727C32.8995 38.2223 33.0037 38.5695 33.5243 38.743C34.4963 39.0554 35.2599 38.2223 35.1211 37.0769C35.017 36.5562 35.0517 36.1743 35.1211 36.2785C35.2252 36.3479 35.6071 35.8272 36.0236 35.0636C36.7178 33.7792 38.5229 32.0436 38.8353 32.356C38.9394 32.4255 38.5229 33.4668 37.9327 34.6123C36.7873 36.8686 36.2666 39.3331 36.8567 39.715C37.4121 40.0274 38.2799 39.5761 38.4881 38.8472C38.627 38.5 38.87 38.1876 39.0435 38.1876C39.4948 38.1876 41.3345 36.8686 42.5841 35.6537C43.1395 35.133 43.6255 34.7164 43.7296 34.7164C44.1809 34.7164 43.6949 35.5495 42.4106 36.9033C40.1196 39.2637 39.6683 39.9232 39.5989 40.8952C39.5295 41.7977 39.5642 41.8324 41.5428 41.7977C43.3478 41.763 43.5214 41.8324 43.5214 42.4919C43.4866 43.325 41.9593 45.13 40.7444 45.7201C39.6683 46.2408 38.9047 46.4143 36.9261 46.692C36.0583 46.7962 35.1905 47.1433 34.9822 47.421C34.6698 47.8028 34.531 47.8375 34.4269 47.5251C34.3227 47.2474 34.0103 47.3863 33.5243 47.907C33.1078 48.3582 32.8648 48.8442 32.969 49.0177C33.0731 49.1913 33.0384 49.2607 32.8648 49.226C32.2747 49.0524 30.1573 50.4756 28.5258 52.1071C27.5886 53.0443 26.6861 53.808 26.5125 53.808C26.3043 53.808 26.1654 54.1204 26.1654 54.4675C26.1654 54.8493 25.9572 55.37 25.7142 55.613C24.9505 56.4114 24.0827 57.9387 24.0827 58.4941C24.0827 59.5341 24.152 59.4662 29.5117 54.2102L29.5325 54.1898C31.7887 51.9682 32.6565 51.6558 33.6979 52.7319C34.2186 53.2526 36.1277 53.9815 36.5443 53.808C36.6137 53.7733 36.7873 53.9121 36.9261 54.1551C37.065 54.3634 38.3146 54.7105 39.7378 54.9187C41.161 55.127 42.8271 55.613 43.4866 55.9948C44.1462 56.4114 45.1528 56.6891 45.7429 56.6543C46.6801 56.5849 46.7496 56.6196 46.2289 57.0015C45.7082 57.418 45.7429 57.5568 46.7496 58.737C47.5479 59.6743 47.9992 59.952 48.3463 59.7437C48.7629 59.466 48.7976 59.3272 48.381 58.8412C48.138 58.5288 47.7215 58.3552 47.4438 58.4594C47.2008 58.5635 46.9925 58.4941 46.9925 58.3205C46.9925 58.1122 47.1661 57.9734 47.3397 57.9734C48.0339 57.9734 47.6521 57.2097 46.333 55.8907C44.7363 54.2939 42.966 53.3567 42.0982 53.565C41.7163 53.6691 41.5081 53.5997 41.6122 53.4608C41.8205 53.1484 39.6683 52.6278 38.5923 52.6972C38.2452 52.6972 37.898 52.5931 37.7939 52.3848C37.6551 52.2112 37.3079 52.0724 36.9608 52.0724C36.1624 52.0724 34.4963 50.788 34.6004 50.2326C34.7393 49.469 35.8847 48.9136 38.0369 48.5665C42.2023 47.907 45.2917 45.6507 45.8123 42.839C46.0553 41.4505 45.257 39.9232 44.2156 39.9232C43.1742 39.9232 43.1048 39.4025 44.042 38.0488C45.0487 36.5562 45.1181 36.1049 44.3197 36.1049C43.4866 36.1049 44.0767 35.6537 44.9793 35.619C45.6041 35.5842 45.7776 35.376 45.7776 34.5776C45.8123 33.4668 45.0487 32.4949 44.3892 32.7726C43.8685 32.9461 43.5908 31.8006 43.2784 28.2948C43.1048 25.9343 43.1048 25.7955 43.9726 25.2401C44.8404 24.6847 44.9098 24.6847 46.2636 25.5872C47.062 26.1079 47.6868 26.6633 47.6868 26.8369C47.6868 27.0104 48.2422 27.7741 48.9017 28.5724C49.5612 29.3361 50.1166 30.2039 50.1166 30.4469C50.1166 30.6899 50.2208 30.8981 50.3943 30.8981C50.5332 30.8981 50.672 31.3147 50.7067 31.8354C50.7067 32.3907 50.9497 33.2585 51.1927 33.8486C51.4357 34.404 51.5745 35.0289 51.5745 35.1677C51.5398 35.3065 51.7481 35.5148 52.0258 35.619C52.4423 35.7925 52.477 35.9661 52.1993 36.2785C51.9216 36.6256 51.9563 37.181 52.3382 38.3612C52.6506 39.229 52.8936 40.1662 52.8936 40.4439C52.8936 40.6869 53.1018 40.9993 53.3448 41.0687C53.6919 41.2076 53.6919 41.277 53.3448 41.277C52.8241 41.3117 52.7547 42.9084 53.2407 43.2208C53.449 43.3597 53.4837 43.6374 53.3448 43.8457C53.206 44.0886 53.0671 44.8176 53.0324 45.4771C52.9977 46.1366 52.9283 46.8309 52.8936 47.0392C52.8589 47.2127 52.8241 47.7681 52.8589 48.2194C52.8936 48.9483 52.963 48.983 53.4837 48.5665C54.0391 48.1152 54.0391 48.1499 53.5184 48.9136C52.9977 49.6425 52.9977 49.8855 53.449 51.1699C54.1779 53.2873 55.0804 54.8493 55.5664 54.8493C55.8094 54.8493 55.9135 55.0576 55.8094 55.3353C55.7052 55.613 55.9135 55.9948 56.33 56.2031C56.7119 56.4114 57.0937 56.8973 57.2325 57.2444C57.4408 57.904 57.9268 58.0081 58.7252 57.4874C59.3153 57.1403 58.9334 55.9601 57.7879 54.8146C57.302 54.3286 56.573 53.079 56.1912 52.1071C55.8094 51.1004 55.2887 50.1285 55.0804 49.9202C54.768 49.6773 54.7333 49.3648 55.011 48.9136C55.254 48.4623 55.2193 48.0458 54.9763 47.5598C54.768 47.178 54.7333 46.6573 54.8721 46.4143C55.2887 45.7895 55.3234 40.2703 54.9416 40.2703C54.7333 40.2703 54.6986 40.0968 54.8027 39.9232C54.9069 39.715 54.768 39.472 54.4556 39.3678C54.0391 39.1943 53.9696 38.8819 54.1085 38.1529C54.2473 37.5975 54.1432 36.8339 53.9002 36.3826C53.6572 35.9314 53.449 35.2024 53.4142 34.7164C53.4142 34.2305 53.206 33.3627 52.9977 32.8073C52.7894 32.2172 52.4423 31.1064 52.234 30.3428C51.8522 28.9543 48.9711 24.9971 48.3463 24.9971C48.1728 24.9971 47.7215 24.7194 47.3744 24.3723C45.9512 23.1227 45.6041 22.9144 44.8057 22.9144C43.4519 22.9144 41.4386 25.4831 41.4386 27.2187C41.4386 28.503 40.8138 28.3295 40.1543 26.8021C39.4254 25.2054 38.3493 23.9558 37.7245 23.9558C37.3774 23.9558 37.3079 23.7128 37.4468 23.1921C37.6551 22.6367 37.5856 22.4979 37.1691 22.6714C36.822 22.8103 36.5443 22.6367 36.4054 22.2202C36.2666 21.8036 35.4682 21.3524 34.045 20.9011C31.4416 20.068 30.192 20.0333 29.5325 20.797ZM34.3227 22.9144C34.6004 22.9144 34.8434 23.0533 34.8434 23.2615C34.8434 23.4351 35.0864 23.4698 35.4335 23.3657C35.7806 23.2268 35.9195 23.2962 35.7806 23.5045C35.5029 23.9211 36.3707 24.7541 36.6831 24.407C36.822 24.3029 36.9261 24.5112 36.9261 24.9277C36.9261 25.3095 37.0997 25.7608 37.2732 25.8649C37.4815 26.0038 37.8286 26.5939 38.1063 27.2187C38.3493 27.8435 39.0782 28.9196 39.7031 29.6138C40.3279 30.308 40.675 30.8981 40.5014 30.8981C40.3279 30.8981 40.0155 30.7246 39.8072 30.5163C39.6336 30.3428 39.0435 30.2733 38.5576 30.3775C37.5856 30.6552 35.1905 32.7032 35.1905 33.2933C35.1905 33.5015 35.0517 33.6751 34.9128 33.6751C34.2533 33.6751 33.4549 32.6684 32.483 30.551C32.3472 30.2536 32.218 29.9709 32.0952 29.7021C30.1685 25.4854 29.8041 24.6877 29.9325 23.9793C29.9625 23.8141 30.0193 23.6537 30.0893 23.4558C30.1108 23.395 30.1336 23.3307 30.1573 23.2615C30.5044 22.2202 30.7474 22.0119 31.9276 21.8731C33.0037 21.7342 33.3508 21.8383 33.5243 22.2896C33.6632 22.6367 34.0103 22.9144 34.3227 22.9144ZM24.7769 26.5244C24.7769 26.6286 24.6381 26.8021 24.4298 26.9063C24.2563 27.0104 24.0827 26.941 24.0827 26.7674C24.0827 26.5592 24.2563 26.3856 24.4298 26.3856C24.6381 26.3856 24.7769 26.455 24.7769 26.5244ZM26.4431 28.989C26.6861 29.1625 27.2415 29.7179 27.658 30.1692C28.0746 30.6552 29.0118 31.5924 29.7755 32.2866L31.0945 33.571L30.192 34.4735C29.6713 34.9941 29.0465 35.9314 28.7688 36.5562C28.3523 37.5281 28.2828 37.5975 28.0399 36.9727C27.7969 36.3826 27.2415 35.619 25.9919 34.2305C25.8183 34.0222 25.61 33.0503 25.5406 32.1131C25.4712 31.1411 25.2976 30.2386 25.1588 30.0998C24.9852 29.9609 24.9505 29.4402 25.0546 28.989C25.1935 28.1559 25.4018 28.1559 26.4431 28.989ZM41.4386 34.0222C41.4386 34.1958 41.1957 34.3693 40.8833 34.3693C40.6056 34.3693 40.4667 34.1958 40.5709 34.0222C40.675 33.8139 40.918 33.6751 41.1262 33.6751C41.2998 33.6751 41.4386 33.8139 41.4386 34.0222ZM41.3345 35.9661C41.2304 36.0702 40.918 36.1049 40.675 36.0008C40.3973 35.8966 40.5014 35.7925 40.8833 35.7925C41.2651 35.7578 41.4734 35.8619 41.3345 35.9661ZM54.9763 51.031C54.9763 51.274 54.768 51.2393 54.4556 50.8922C54.1779 50.6145 53.9349 50.1979 53.9349 49.9897C53.9349 49.7467 54.1432 49.7814 54.4556 50.1285C54.7333 50.4062 54.9763 50.8227 54.9763 51.031ZM56.0176 52.4195C56.0176 52.5931 55.8441 52.7666 55.6358 52.7666C55.4622 52.7666 55.3928 52.5931 55.497 52.4195C55.6011 52.2112 55.7747 52.0724 55.8788 52.0724C55.9482 52.0724 56.0176 52.2112 56.0176 52.4195ZM27.1725 45.4431C27.1378 45.5473 27.1378 45.7903 27.1725 45.9291C27.2072 46.1027 27.0684 46.1374 26.9295 46.0332C26.756 45.9291 26.1659 46.3457 25.6799 46.9705C24.9163 47.8383 24.7774 48.3242 24.9163 49.2267C25.0204 49.9557 24.951 50.2681 24.7427 50.1292C24.5344 50.0251 23.8402 50.4417 23.1807 51.0665C22.0005 52.212 21.6533 53.1145 22.3823 53.1145C22.5906 53.1145 22.6947 52.8715 22.5906 52.6285C22.4517 52.2814 22.5558 52.1772 22.8335 52.2814C23.0765 52.3855 24.0137 51.6219 24.9163 50.6152C25.3674 50.112 25.8359 49.5915 26.2263 49.1577L26.2267 49.1573L26.2274 49.1564C26.6176 48.7229 26.9296 48.3762 27.0684 48.2201C27.3461 47.9077 27.5544 47.4217 27.5544 47.1093C27.5544 46.7622 27.7626 46.6233 28.0403 46.7275C28.561 46.9358 29.0123 46.1374 28.6651 45.582C28.4222 45.2002 27.2419 45.096 27.1725 45.4431Z" fill="black"/>
</svg>
