<svg width="286" height="232" viewBox="0 0 286 232" fill="none" xmlns="http://www.w3.org/2000/svg">
<path d="M229.092 199.44C228.588 199.965 227.993 200.62 227.307 201.405L222.926 207.053C213.23 209.161 204.927 211.017 198.019 212.623C191.396 213.816 184.979 215.153 178.768 216.632L135.372 224.454C130.715 224.574 126.818 224.917 123.681 225.482C120.481 225.699 117.487 226.059 114.699 226.561C111.213 227.19 108.108 227.929 105.382 228.781C103.005 229.569 100.422 230.214 97.6336 230.717L93.4509 231.471C92.3424 231.311 91.0596 231.182 89.6025 231.085C85.1685 230.445 81.8116 229.79 79.5317 229.121C77.6004 228.39 75.5263 227.864 73.3093 227.544C71.0294 226.875 68.1953 226.126 64.807 225.298C61.7672 224.406 57.1275 223.623 50.8878 222.948L44.331 222.51L30.3267 213.698C29.8869 211.259 28.4642 209.356 26.0587 207.99C24.0018 206.561 21.6449 204.467 18.9881 201.707C16.2685 198.598 13.329 194.27 10.1695 188.721C7.29583 182.761 4.85373 174.204 2.84324 163.05C1.71233 156.776 0.992817 150.788 0.684691 145.085C0.313735 139.034 0.877007 133.174 2.3745 127.506C4.98652 118.038 7.50128 110.027 9.9188 103.474C12.2735 96.5713 14.8967 90.1604 17.7884 84.2409C21.0287 78.2586 24.6804 72.562 28.7435 67.1511C32.7437 61.3917 37.6954 54.9209 43.5985 47.7389C44.4557 46.5047 46.6129 44.4964 50.0701 41.7139C53.5273 38.9315 57.5073 36.0548 62.0102 33.0838C66.513 30.1129 71.253 27.4591 76.2301 25.1224C81.4929 22.3744 86.7385 20.5292 91.9669 19.5867L105.33 12.8595C112.649 11.5401 119.129 10.5521 124.769 9.89539L179.667 0C182.135 1.71438 183.764 3.76012 184.552 6.13721C185.626 8.10291 186.589 10.4486 187.44 13.1742C187.758 14.1346 188.025 15.1338 188.24 16.1716L213.71 18.9546C213.355 21.4337 214.438 23.4104 216.959 24.8845C219.92 26.118 223.1 27.231 226.5 28.2238C229.22 29.018 232.159 29.6918 235.318 30.2453C238.817 30.8981 241.417 31.4726 243.117 31.969C245.497 32.6639 246.878 33.6206 247.26 34.8391C265.261 51.5334 276.652 71.2787 281.434 94.075C286.655 116.631 285.691 140.148 278.543 164.626L277.203 169.216C267.17 179.569 255.933 187.726 243.492 193.686C238.567 196.033 233.767 197.951 229.092 199.44Z" fill="#F9F5FA"/>
<path fill-rule="evenodd" clip-rule="evenodd" d="M72.0991 91.0764C71.5753 90.7621 71.0515 90.0288 71.0515 89.4002C71.0515 88.8764 72.6229 88.4573 74.6134 88.4573C77.9659 88.4573 78.1754 88.6668 77.4421 91.2859C77.023 92.7526 77.023 96.3146 77.3373 99.0385C77.7564 102.181 77.5468 104.591 76.9182 105.22C76.0801 106.058 76.2897 106.162 77.5468 105.743C78.9088 105.22 79.7469 105.953 80.8993 108.782C81.7374 110.877 82.366 112.763 82.2612 113.077C82.1565 113.391 83.0993 114.334 84.4613 115.172C85.7184 116.115 87.4994 118.106 88.2328 119.677C89.0709 121.249 91.69 124.601 93.9948 127.22C96.4044 129.839 97.7663 132.039 97.2425 132.249C96.6139 132.458 96.1949 133.087 96.1949 133.611C96.1949 134.03 96.8234 134.239 97.5568 134.03C99.233 133.296 109.395 143.144 111.909 147.963C113.062 150.059 114.005 151.421 114.005 151.002C114.005 150.059 119.872 153.935 122.595 156.659C123.748 157.811 123.957 158.649 123.224 158.859C122.595 159.068 121.967 160.221 121.757 161.373C121.443 163.259 121.548 163.259 122.91 161.478C124.167 159.697 124.481 159.802 128.043 162.84C132.024 166.402 133.072 170.488 130.138 171.64C127.519 172.688 126.262 171.221 128.357 169.44C130.138 167.973 130.138 167.973 128.148 168.602C124.167 169.964 122.386 169.545 122.386 167.24C122.386 166.297 119.976 163.364 117.148 160.745C114.214 158.126 111.909 155.506 111.909 154.878C111.909 154.144 111.071 153.725 110.128 153.83C108.976 153.83 108.243 153.202 108.348 152.154C108.452 151.106 107.509 150.163 105.938 149.744C104.157 149.325 103.528 148.592 103.947 147.544C104.262 146.706 104.157 146.182 103.738 146.497C102.795 147.021 99.3378 143.563 99.3378 142.097C99.3378 141.678 98.3949 140.735 97.2425 140.001C95.9853 139.268 95.3567 138.22 95.671 137.696C95.9853 137.068 95.671 136.649 94.9377 136.649C93.3662 136.544 81.9469 122.401 82.2612 120.934C82.4708 120.41 81.7374 119.782 80.6898 119.468C78.5945 118.734 73.1467 109.515 73.1467 106.477C73.1467 105.324 72.6229 104.172 72.0991 103.962C70.4229 103.439 70.1086 94.8479 71.68 93.1717C72.6229 92.2288 72.7277 91.4955 72.0991 91.0764ZM73.6706 102.077C74.6134 102.077 75.0325 101.553 74.7182 101.029C74.4039 100.4 73.8801 99.9814 73.6706 99.9814C73.461 99.9814 72.9372 100.4 72.6229 101.029C72.3086 101.553 72.7277 102.077 73.6706 102.077ZM85.6137 123.449C86.1375 123.868 86.8708 123.658 87.1851 123.134C87.6042 122.61 87.3947 121.877 86.8708 121.563C86.347 121.144 85.6137 121.353 85.2994 121.877C84.8803 122.401 85.0899 123.134 85.6137 123.449ZM93.1567 133.506C93.6805 133.506 93.89 132.982 93.5758 132.458C93.2615 131.83 92.7376 131.411 92.4233 131.411C92.2138 131.411 92.0043 131.83 92.0043 132.458C92.0043 132.982 92.5281 133.506 93.1567 133.506ZM75.2395 81.6477C75.2395 80.9144 75.868 79.9715 76.6014 79.6572C77.5443 79.3429 83.9349 79.4477 86.554 79.9715C86.7635 80.0763 86.6588 80.4953 86.2397 81.0191C85.9254 81.543 86.1349 82.3811 86.7635 82.6954C87.3921 83.1144 87.7064 84.8954 87.6016 86.6764C87.3921 88.5622 87.7064 90.1336 88.1255 90.2384C88.6493 90.3432 89.6969 91.286 90.4303 92.2289C91.5827 93.8004 91.4779 94.5337 90.2207 96.5242C89.2779 97.8862 89.0683 98.9338 89.6969 98.9338C90.3255 98.9338 90.9541 98.0957 91.1636 97.1528C91.4779 95.5814 91.6874 95.5814 93.3637 97.3624C94.4113 98.3052 95.0399 99.8767 94.6208 100.82C94.097 102.182 94.3065 102.182 95.878 100.924C96.8209 100.086 97.3447 99.9815 96.9256 100.715C96.5066 101.343 96.6114 102.182 97.2399 102.601C97.8685 103.02 98.078 103.753 97.659 104.277C97.3447 104.801 98.7066 105.953 100.697 106.791C102.688 107.629 104.573 108.991 104.888 109.934C105.307 110.772 106.669 111.506 107.926 111.506C110.021 111.401 110.126 111.296 108.554 110.353C104.573 108.048 107.402 103.439 113.269 102.391C118.088 101.658 128.564 108.153 131.184 113.706C132.336 116.01 133.593 117.791 134.117 117.791C134.536 117.791 134.955 118.629 134.955 119.677C134.955 120.725 135.584 122.191 136.317 122.925C137.365 124.077 137.05 124.182 134.955 123.553C132.65 122.82 132.545 122.925 133.803 124.392C134.536 125.334 135.584 125.858 136.107 125.544C136.631 125.23 137.05 125.439 137.05 126.068C137.05 126.592 136.527 127.43 136.003 127.744C134.117 128.896 134.955 130.154 137.155 129.63C139.146 129.106 139.355 129.315 138.936 131.725C138.622 133.296 138.831 134.554 139.355 134.554C139.879 134.554 140.193 136.439 140.088 138.744C139.879 140.944 140.088 143.144 140.508 143.563C141.555 144.611 141.45 146.287 140.403 145.659C139.879 145.344 139.46 145.763 139.46 146.602C139.46 147.44 139.984 147.963 140.508 147.859C141.031 147.754 141.66 149.221 141.869 151.106C141.974 153.306 141.66 154.459 140.822 154.459C139.879 154.459 139.565 155.402 139.984 157.078C140.298 159.068 140.088 159.592 138.936 159.173C137.888 158.754 137.469 157.287 137.679 154.773C137.784 152.468 137.365 150.478 136.631 149.849C134.955 148.487 133.384 141.468 134.955 142.411C135.584 142.725 136.003 142.62 136.003 141.992C136.003 141.468 135.374 140.735 134.746 140.525C133.698 140.106 133.698 139.687 134.955 138.849C135.793 138.325 136.736 138.011 137.155 138.325C137.574 138.535 138.203 138.325 138.517 137.801C138.831 137.278 137.888 136.544 136.212 136.125C133.488 135.497 133.488 135.392 135.374 133.925C137.155 132.668 137.26 132.458 135.688 132.458C134.641 132.458 133.069 130.573 131.603 127.534C130.345 124.706 128.879 122.191 128.25 121.772C127.622 121.353 127.726 120.41 128.669 119.363C129.926 117.791 129.926 117.687 128.041 118.001C126.679 118.21 126.05 117.791 126.155 116.534C126.26 115.487 126.05 114.858 125.631 115.172C124.583 115.696 121.231 111.82 121.65 110.353C121.755 109.725 119.869 108.991 117.459 108.782C114.945 108.572 112.955 108.677 112.955 108.991C112.955 109.305 114.212 111.61 115.678 114.229C117.983 118.106 118.088 118.839 116.621 118.839C115.678 118.839 115.259 119.363 115.574 119.887C115.993 120.515 116.621 120.725 117.145 120.41C117.564 120.096 118.612 120.725 119.345 121.668C120.602 123.239 120.602 123.344 118.717 122.715C116.726 121.982 116.726 122.087 118.507 123.449C120.917 125.23 120.393 128.896 117.878 128.687C112.85 128.268 100.592 116.744 105.097 116.744C105.935 116.744 106.669 116.01 106.669 115.172C106.669 114.02 105.935 113.706 104.154 114.02C102.583 114.334 100.383 113.496 98.1828 111.925C94.097 108.886 93.0494 107.42 93.7827 105.534C94.097 104.696 93.8875 104.172 93.2589 104.382C91.897 104.801 85.6111 97.8862 86.2397 96.8385C86.554 96.3147 86.1349 95.7909 85.2968 95.4766C83.5158 94.7433 83.3063 88.4574 85.0873 87.8288C85.8206 87.5145 86.4492 86.5716 86.4492 85.6288C86.4492 84.3716 85.9254 84.5811 84.4587 86.3621C82.992 88.1431 82.1539 88.4574 81.6301 87.6193C81.211 86.8859 79.2205 86.4669 77.23 86.5716C74.6109 86.7812 73.668 86.4669 73.668 85.3145C73.668 84.3716 74.5061 83.8478 75.7633 83.9525C76.9157 84.0573 77.23 83.9525 76.6014 83.6383C75.868 83.324 75.2395 82.3811 75.2395 81.6477ZM80.8967 82.4858C81.9444 82.9049 82.2587 82.5906 81.8396 81.543C81.211 79.6572 81.0015 79.6572 79.43 81.6477C78.6967 82.5906 78.3824 83.5335 78.8014 83.9525C79.1157 84.2668 79.43 84.0573 79.43 83.324C79.43 82.5906 80.1634 82.1716 80.8967 82.4858ZM120.602 105.848C120.288 105.429 118.507 105.22 116.621 105.534C114.736 105.848 112.64 105.639 112.012 105.115C111.174 104.486 111.174 104.591 111.907 105.429C113.164 106.896 121.44 107.315 120.602 105.848ZM112.536 115.696C113.897 115.696 114.002 115.382 112.955 114.125C112.221 113.287 111.069 112.553 110.44 112.658C109.707 112.658 109.812 112.867 110.65 113.287C111.278 113.496 111.697 114.229 111.278 114.753C110.964 115.277 111.488 115.696 112.536 115.696ZM106.145 118.839C105.307 120.201 106.669 120.201 108.764 118.839C110.126 118.001 110.126 117.791 108.554 117.791C107.612 117.791 106.459 118.21 106.145 118.839ZM160.101 60.5902C160.101 61.4283 159.367 61.8474 158.32 61.6378C156.329 61.114 151.615 64.8855 147.843 70.1237L145.643 73.2666L143.443 70.438C138.31 63.9426 129.509 62.895 125.633 68.4475C124.586 69.9142 123.433 73.3714 123.119 76.0953C122.595 80.1811 122.909 81.543 125.109 85.0002C126.681 87.2003 128.671 89.7146 129.614 90.5527C132.548 93.3814 138.519 96.5243 140.195 96.1052C141.453 95.7909 141.872 96.6291 141.767 99.1434C141.767 101.029 142.081 103.543 142.605 104.801C143.653 107.315 147.529 110.039 147.529 108.258C147.529 107.629 148.157 107.315 148.996 107.629C149.729 107.944 151.719 106.791 153.396 105.115C154.967 103.439 155.91 102.077 155.281 102.077C154.758 101.972 155.491 101.029 156.853 99.8767C158.215 98.7243 159.053 97.5719 158.634 97.1529C158.32 96.8386 158.948 95.8957 160.101 95.0576C161.253 94.2195 162.196 93.1718 162.196 92.5433C162.196 92.0194 164.815 88.9813 168.063 85.8383C172.882 81.2287 173.72 79.8668 172.777 78.6096C171.834 77.4572 171.939 77.0382 173.091 76.6191C173.929 76.3048 174.872 76.5143 175.082 77.2477C175.815 79.343 177.177 70.8571 176.444 68.1332C175.606 64.5712 169.948 60.5902 164.605 59.7521C161.043 59.2282 160.101 59.4378 160.101 60.5902ZM168.586 67.8189C171.415 69.9142 170.682 74.3143 166.91 78.2953C164.92 80.3906 163.663 82.2764 163.977 82.5907C164.396 82.9049 163.872 83.2192 162.929 83.2192C161.358 83.2192 160.624 84.3717 161.043 86.5717C161.043 87.0955 160.834 87.305 160.415 87.2003C156.958 86.5717 151.3 94.01 151.51 99.0386C151.615 102.391 149.938 103.124 148.891 100.191C148.053 98.0958 146.796 96.5243 143.862 93.5909C139.567 89.4003 138.414 88.4575 137.262 88.4575C136.529 88.4575 136.005 88.0384 136.005 87.6193C136.005 87.0955 134.538 85.7336 132.757 84.3717C130.243 82.4859 129.3 82.2764 128.043 83.324C126.786 84.3717 126.681 84.2669 127.205 82.8002C127.519 81.8573 128.252 81.124 128.671 81.124C129.09 81.124 129.509 80.4954 129.405 79.762C129.195 74.3143 129.929 72.8476 133.071 71.2761C136.424 69.5999 139.776 68.9713 137.367 70.438C136.005 71.2761 142.71 79.762 144.386 79.2382C145.015 79.1334 145.434 79.343 145.329 79.762C145.224 80.2858 145.538 81.6478 145.957 82.9049C147.424 87.6193 151.719 84.8955 151.719 79.343C151.719 74.3143 159.053 66.457 163.663 66.457C165.444 66.457 167.644 67.0856 168.586 67.8189ZM158.529 91.6004C158.843 92.1242 158.424 92.648 157.586 92.648C156.643 92.648 155.91 92.1242 155.91 91.6004C155.91 90.9718 156.329 90.5527 156.853 90.5527C157.481 90.5527 158.215 90.9718 158.529 91.6004ZM156.434 96.8386C156.748 97.3624 156.539 97.8862 156.015 97.8862C155.386 97.8862 154.862 97.3624 154.862 96.8386C154.862 96.21 155.072 95.7909 155.281 95.7909C155.596 95.7909 156.12 96.21 156.434 96.8386ZM149.624 105.22C149.624 105.744 149.205 106.267 148.577 106.267C148.053 106.267 147.529 105.744 147.529 105.22C147.529 104.591 148.053 104.172 148.577 104.172C149.205 104.172 149.624 104.591 149.624 105.22ZM216.882 102.915C215.101 103.229 214.473 103.858 214.892 105.115C215.101 106.163 214.473 107.524 213.425 108.258C212.273 108.886 211.434 110.353 211.434 111.505C211.434 112.553 210.806 113.915 210.073 114.334C208.187 115.382 206.93 123.03 208.501 123.03C210.073 123.03 208.92 124.182 207.034 124.496C205.044 124.706 203.053 126.172 203.053 127.22C203.053 127.744 203.787 127.953 204.625 127.639C205.568 127.22 206.196 127.639 206.196 128.582C206.196 129.63 205.463 129.944 204.101 129.63C201.691 129.001 198.339 131.515 197.501 134.658C197.187 135.706 197.291 136.439 197.815 136.125C198.234 135.811 198.968 136.335 199.282 137.277C200.225 139.687 200.12 139.792 197.71 139.792C196.348 139.792 195.825 139.373 196.348 138.535C196.767 137.801 196.663 137.697 195.929 138.116C194.358 139.058 194.253 141.887 195.72 141.887C196.348 141.887 196.767 142.83 196.767 144.087C196.767 145.24 196.244 145.868 195.72 145.554C195.091 145.24 194.358 145.763 193.939 146.811C193.52 147.859 192.577 149.325 191.844 150.059C191.11 150.792 190.482 152.154 190.482 152.992C190.482 154.249 190.167 154.249 188.386 153.202C186.605 152.049 186.082 152.154 185.243 153.411C184.72 154.249 184.51 155.192 184.824 155.402C185.139 155.716 185.767 155.297 186.291 154.459C186.815 153.621 187.548 153.306 187.967 153.725C189.015 154.773 186.186 157.811 184.72 157.183C182.939 156.554 176.443 163.364 177.386 164.935C177.805 165.564 178.853 165.878 179.691 165.564C180.529 165.25 180.843 165.459 180.529 165.983C179.377 167.869 182.729 167.135 184.51 165.145C186.605 162.84 185.662 161.164 183.358 163.049C182.205 164.097 181.996 163.888 182.31 161.792C182.52 159.697 183.253 159.173 185.767 159.173C188.282 159.173 189.224 158.44 190.691 155.506C191.739 153.516 192.577 152.259 192.577 152.783C192.577 153.202 194.567 150.687 196.977 147.021C199.387 143.354 202.949 138.43 204.834 136.02C206.72 133.611 208.292 131.411 208.292 130.992C208.292 130.573 209.444 128.687 210.911 126.801C212.377 124.915 213.53 122.82 213.53 122.087C213.53 121.458 213.949 120.096 214.473 119.049C216.149 116.01 217.825 108.363 217.197 107.315C216.882 106.686 216.987 106.267 217.511 106.267C218.454 106.267 220.235 103.02 219.606 102.705C219.397 102.601 218.139 102.705 216.882 102.915ZM211.434 120.306C211.434 120.62 211.015 121.144 210.387 121.458C209.863 121.772 209.339 121.563 209.339 121.039C209.339 120.41 209.863 119.887 210.387 119.887C211.015 119.887 211.434 120.096 211.434 120.306ZM204.31 80.2857C203.577 83.3238 203.263 86.8858 203.472 88.143C203.787 89.6097 203.472 90.2383 202.739 89.924C201.482 89.5049 196.767 95.7908 196.767 97.8861C196.767 98.4099 196.348 98.9337 195.72 98.9337C193.939 98.9337 194.567 100.819 196.558 101.343C197.92 101.762 197.815 101.867 196.034 101.972C194.777 101.972 193.205 102.915 192.682 104.067C191.843 105.639 191.948 105.953 193.31 105.848C194.253 105.848 195.196 106.477 195.405 107.315C195.824 108.572 195.72 108.572 194.882 107.42C194.043 106.267 193.415 106.267 191.424 107.42C189.853 108.153 189.434 108.886 190.272 109.201C190.901 109.41 191.529 110.039 191.529 110.667C191.529 111.296 190.796 111.505 189.958 111.086C188.91 110.667 188.386 111.191 188.386 112.658C188.386 113.81 187.862 114.439 187.339 114.125C186.71 113.81 185.977 114.125 185.662 114.963C185.034 116.639 178.748 116.848 179.272 115.172C179.481 114.544 180.215 114.02 180.843 114.02C181.118 113.98 181.437 113.941 181.756 113.902L181.757 113.902C182.289 113.836 182.821 113.771 183.148 113.705C185.243 113.496 184.091 111.505 181.891 111.505C179.691 111.505 179.691 111.401 181.577 110.143C183.777 108.467 182.1 106.686 179.272 107.734C178.119 108.258 177.805 107.943 178.329 106.791C178.853 105.324 178.538 105.324 175.919 106.896C173.091 108.572 165.024 121.039 165.024 123.763C165.024 124.496 164.5 125.125 163.976 125.125C163.452 125.125 163.243 126.068 163.557 127.325C163.871 128.582 163.871 129.211 163.557 128.896C162.719 128.058 160.519 130.572 159.576 133.401C159.052 135.077 159.157 135.601 159.995 135.182C160.624 134.763 161.147 134.973 161.147 135.496C161.147 136.125 160.309 136.649 159.367 136.649C157.9 136.649 157.795 136.858 158.947 137.592C159.995 138.325 160.1 138.535 158.947 138.954C158.109 139.268 157.586 142.201 157.271 148.487C156.957 157.497 157.9 160.221 160.414 157.706C161.252 156.868 161.252 156.554 160.309 156.554C159.262 156.554 159.262 156.03 160.1 154.459C160.938 152.887 160.938 152.363 159.995 152.363C159.052 152.363 159.052 152.049 159.995 150.897C160.938 149.849 160.938 149.221 160.1 148.697C159.262 148.173 159.262 147.544 160.1 146.601C160.728 145.763 161.147 144.297 161.043 143.249C160.728 140.944 164.29 133.087 168.586 126.591C171.31 122.715 171.624 121.563 170.472 120.829C169.319 120.096 169.529 119.887 171.205 119.887C173.929 119.887 175.395 117.058 172.986 116.534C171.414 116.22 171.414 116.115 172.881 114.858C174.243 113.81 174.872 113.81 176.234 115.277C177.91 116.848 177.91 117.058 176.129 118.525C175.081 119.363 174.767 119.782 175.5 119.467C176.129 119.048 176.967 119.258 177.386 119.887C177.7 120.41 177.281 120.934 176.338 120.934C174.453 120.934 173.091 123.868 172.148 130.572C171.519 134.344 171.729 135.392 173.091 135.915C174.033 136.335 174.767 136.125 174.767 135.601C174.767 134.973 175.081 134.658 175.605 134.763C177.072 135.287 183.148 131.934 183.148 130.677C183.148 129.944 183.567 129.315 184.196 129.315C184.719 129.315 185.558 128.058 185.872 126.382C186.291 124.81 187.758 122.296 189.12 120.829C190.901 118.839 191.32 117.791 190.481 117.267C189.643 116.744 190.272 116.01 192.158 115.067C195.405 113.496 198.234 108.782 197.082 107.001C196.767 106.372 196.872 106.267 197.501 106.581C198.024 106.896 199.596 104.905 200.958 102.077C202.32 99.1432 203.787 96.8384 204.31 96.8384C204.729 96.8384 205.148 96.1051 205.148 95.267C205.148 94.3241 204.415 93.6955 203.472 93.905C202.425 94.1146 201.482 93.5907 201.272 92.8574C200.958 92.0193 201.796 91.705 204.31 92.0193C207.558 92.4383 207.872 92.2288 209.025 88.6668C209.863 86.1525 209.863 84.581 209.129 84.162C208.606 83.7429 208.815 83.2191 209.758 82.9048C212.272 81.8571 214.577 87.2001 213.844 92.4383C213.32 96.2098 213.53 96.8384 215.206 96.8384C216.137 96.8902 216.609 96.9164 216.645 97.0559C216.682 97.1989 216.263 97.4608 215.415 97.9908C214.368 98.5146 213.53 99.7718 213.53 100.505C213.53 102.286 215.206 102.6 216.149 101.029C216.463 100.505 217.511 100.4 218.454 100.715C219.92 101.239 220.025 100.819 219.501 98.0956C219.082 96.0003 219.187 94.7431 219.92 94.7431C220.654 94.7431 220.863 93.6955 220.444 91.8097C220.025 90.2383 219.711 87.7239 219.815 86.2572C219.815 84.7905 218.873 82.6953 217.72 81.6476C216.568 80.6 215.625 79.1333 215.625 78.2952C215.625 76.7237 211.434 74.8379 207.872 74.8379C205.882 74.8379 205.253 75.6761 204.31 80.2857ZM217.092 83.0096C217.406 83.5334 216.987 83.9524 216.149 83.9524C215.311 83.9524 214.892 83.5334 215.206 83.0096C215.52 82.5905 215.939 82.1714 216.149 82.1714C216.358 82.1714 216.777 82.5905 217.092 83.0096ZM207.977 88.0382C207.663 88.4573 206.51 88.3525 205.463 88.0382C203.891 87.4096 203.891 87.2001 205.148 86.362C206.825 85.3144 209.234 86.7811 207.977 88.0382ZM178.329 111.715C177.91 112.344 177.281 112.239 176.757 111.401C176.024 110.143 175.814 110.143 175.814 111.401C175.814 112.239 175.5 112.658 175.186 112.239C174.138 111.191 175.814 109.515 177.386 110.039C178.224 110.458 178.643 111.191 178.329 111.715ZM182.1 125.125C182.1 125.649 181.891 126.172 181.681 126.172C181.367 126.172 180.843 125.649 180.529 125.125C180.215 124.496 180.424 124.077 180.948 124.077C181.577 124.077 182.1 124.496 182.1 125.125ZM178.119 130.153C177.386 130.363 176.862 131.201 176.862 132.039C176.862 132.877 176.129 133.506 175.291 133.506C174.453 133.506 173.719 132.982 173.719 132.458C173.719 131.83 174.243 131.411 174.767 131.411C175.395 131.411 175.814 130.782 175.814 129.944C175.814 128.163 178.224 127.115 178.853 128.582C179.062 129.211 178.748 129.944 178.119 130.153Z" fill="#920B0E"/>
</svg>
