<svg width="285" height="232" viewBox="0 0 285 232" fill="none" xmlns="http://www.w3.org/2000/svg">
<path d="M55.9838 199.44C56.4884 199.965 57.0837 200.62 57.7695 201.405L62.1497 207.053C71.8466 209.161 80.1492 211.017 87.0575 212.623C93.6801 213.816 100.097 215.153 106.308 216.632L149.704 224.454C154.361 224.574 158.258 224.917 161.395 225.482C164.595 225.699 167.589 226.059 170.377 226.561C173.863 227.19 176.969 227.929 179.694 228.781C182.071 229.569 184.654 230.214 187.443 230.717L191.625 231.471C192.734 231.311 194.017 231.182 195.474 231.085C199.908 230.445 203.265 229.79 205.544 229.121C207.476 228.39 209.55 227.864 211.767 227.544C214.047 226.875 216.881 226.126 220.269 225.298C223.309 224.406 227.949 223.623 234.188 222.948L240.745 222.51L254.75 213.698C255.189 211.259 256.612 209.356 259.017 207.99C261.074 206.561 263.431 204.467 266.088 201.707C268.808 198.598 271.747 194.27 274.907 188.721C277.78 182.761 280.222 174.204 282.233 163.05C283.364 156.776 284.083 150.788 284.391 145.085C284.762 139.034 284.199 133.174 282.702 127.506C280.09 118.038 277.575 110.027 275.157 103.474C272.803 96.5713 270.179 90.1604 267.288 84.2409C264.047 78.2586 260.396 72.562 256.333 67.1511C252.332 61.3917 247.381 54.9209 241.478 47.7389C240.62 46.5047 238.463 44.4964 235.006 41.7139C231.549 38.9315 227.569 36.0548 223.066 33.0838C218.563 30.1129 213.823 27.4591 208.846 25.1224C203.583 22.3744 198.338 20.5292 193.109 19.5867L179.747 12.8595C172.427 11.5401 165.947 10.5521 160.307 9.89539L105.409 0C102.941 1.71438 101.313 3.76012 100.524 6.13721C99.4501 8.10291 98.4875 10.4486 97.6363 13.1742C97.3178 14.1346 97.051 15.1338 96.836 16.1716L71.3662 18.9546C71.7211 21.4337 70.638 23.4104 68.1167 24.8845C65.1561 26.118 61.976 27.231 58.5762 28.2238C55.8564 29.018 52.9169 29.6918 49.7578 30.2453C46.2588 30.8981 43.6593 31.4726 41.9594 31.969C39.5795 32.6639 38.1985 33.6206 37.8164 34.8391C19.8152 51.5334 8.42383 71.2787 3.64236 94.075C-1.57837 116.631 -0.614868 140.148 6.53284 164.626L7.87302 169.216C17.9065 179.569 29.1435 187.726 41.584 193.686C46.5093 196.033 51.3093 197.951 55.9838 199.44Z" fill="#F9F5FA"/>
<path fill-rule="evenodd" clip-rule="evenodd" d="M165.869 175.941C165.353 175.941 164.837 175.425 164.837 174.909C164.837 174.289 165.353 173.877 165.869 173.877C166.488 173.877 166.901 174.289 166.901 174.909C166.901 175.425 166.488 175.941 165.869 175.941ZM109.812 57.1592C105.168 62.4223 104.755 68.9237 108.573 76.0443C111.36 81.4106 112.082 84.8161 109.605 81.3074C107.335 78.0051 99.0793 72.742 96.1898 72.742C94.8482 72.742 92.8874 73.8772 91.7523 75.2188C90.1011 77.3859 89.8947 78.6243 90.6171 82.7522C90.9818 84.6486 91.3981 87.37 91.7566 89.7138L91.7566 89.7139C91.9053 90.686 92.044 91.5932 92.1651 92.3495C92.5778 94.9295 94.0226 98.9542 95.3642 101.328L97.9441 105.765L95.3642 105.559C93.9194 105.456 91.5459 105.972 90.1011 106.797C88.0372 107.829 87.418 108.964 87.418 111.751C87.418 115.363 90.5139 122.793 93.5066 126.198C94.4354 127.23 95.6738 128.985 96.2929 130.017C97.7377 132.597 99.8017 133.216 99.8017 131.152C99.8017 130.223 99.3889 129.501 98.7697 129.501C98.2537 129.501 97.7377 128.572 97.7377 127.437C97.7377 126.301 96.6025 123.515 95.1578 121.245C92.3714 116.911 91.6491 110.925 93.9194 110.925C94.6418 110.925 97.0153 111.854 99.2857 112.989C101.556 114.124 104.136 115.053 105.168 115.053C106.716 115.053 107.025 115.982 107.025 120.11C107.025 122.999 106.613 125.579 105.994 125.889C104.549 126.714 104.652 128.469 106.097 128.469C106.819 128.469 107.851 129.191 108.573 130.12C109.709 131.771 109.812 131.771 110.431 130.12C110.947 128.881 110.741 128.572 109.812 128.985C109.193 129.397 109.296 129.088 110.225 128.262C112.805 126.198 114.146 122.896 113.217 121.245C112.805 120.419 112.392 116.188 112.392 111.957C112.392 103.495 113.837 100.605 117.861 100.605C119.925 100.605 120.132 101.121 119.925 105.249C119.822 108.964 120.132 109.996 121.68 110.512C124.569 111.441 126.839 108.964 126.427 105.559C126.117 104.011 126.22 102.876 126.427 103.185C126.736 103.392 127.871 101.844 129.11 99.5733C131.174 95.755 136.54 90.5952 137.469 91.5239C137.778 91.7303 136.54 94.8263 134.786 98.2318C131.38 104.94 129.832 112.267 131.586 113.402C133.238 114.331 135.818 112.989 136.437 110.822C136.85 109.79 137.572 108.861 138.088 108.861C139.429 108.861 144.899 104.94 148.614 101.328C150.265 99.7797 151.71 98.5414 152.02 98.5414C153.361 98.5414 151.916 101.018 148.098 105.043C141.287 112.06 139.945 114.021 139.739 116.911C139.533 119.594 139.636 119.697 145.518 119.594C150.884 119.49 151.4 119.697 151.4 121.658C151.297 124.134 146.757 129.501 143.145 131.255C139.945 132.803 137.675 133.319 131.793 134.144C129.213 134.454 126.633 135.486 126.014 136.312C125.085 137.447 124.672 137.55 124.363 136.621C124.053 135.796 123.124 136.208 121.68 137.756C120.441 139.098 119.719 140.543 120.028 141.059C120.338 141.575 120.235 141.781 119.719 141.678C117.964 141.162 111.669 145.393 106.819 150.243C104.033 153.03 101.35 155.3 100.834 155.3C100.214 155.3 99.8017 156.229 99.8017 157.261C99.8017 158.396 99.1825 159.944 98.4601 160.666C96.1898 163.04 93.6098 167.58 93.6098 169.232C93.6098 172.324 93.8157 172.122 109.75 156.496L109.812 156.435C116.52 149.83 119.1 148.902 122.196 152.101C123.743 153.649 129.419 155.816 130.658 155.3C130.864 155.197 131.38 155.61 131.793 156.332C132.206 156.951 135.921 157.983 140.152 158.602C144.383 159.221 149.336 160.666 151.297 161.801C153.258 163.04 156.251 163.865 158.005 163.762C160.791 163.556 160.998 163.659 159.45 164.794C157.902 166.032 158.005 166.445 160.998 169.954C163.371 172.74 164.713 173.566 165.745 172.947C166.983 172.121 167.086 171.708 165.848 170.264C165.126 169.335 163.887 168.819 163.062 169.128C162.339 169.438 161.72 169.232 161.72 168.716C161.72 168.096 162.236 167.684 162.752 167.684C164.816 167.684 163.681 165.413 159.759 161.492C155.012 156.745 149.749 153.958 147.169 154.578C146.034 154.887 145.415 154.681 145.725 154.268C146.344 153.339 139.945 151.791 136.746 151.998C135.714 151.998 134.682 151.688 134.373 151.069C133.96 150.553 132.928 150.14 131.896 150.14C129.523 150.14 124.569 146.322 124.879 144.671C125.291 142.4 128.697 140.749 135.095 139.717C147.479 137.756 156.663 131.049 158.211 122.69C158.934 118.562 156.56 114.021 153.464 114.021C150.368 114.021 150.162 112.473 152.948 108.448C155.941 104.011 156.147 102.669 153.774 102.669C151.297 102.669 153.052 101.328 155.735 101.224C157.592 101.121 158.108 100.502 158.108 98.1286C158.211 94.8263 155.941 91.9367 153.98 92.7623C152.432 93.2783 151.607 89.8728 150.678 79.4498C150.162 72.4324 150.162 72.0196 152.742 70.3685C155.322 68.7173 155.528 68.7173 159.553 71.4004C161.927 72.9484 163.784 74.5996 163.784 75.1156C163.784 75.6315 165.435 77.9019 167.396 80.2754C169.357 82.5458 171.008 85.1257 171.008 85.8481C171.008 86.5705 171.317 87.1897 171.833 87.1897C172.246 87.1897 172.659 88.428 172.762 89.976C172.762 91.6271 173.485 94.2071 174.207 95.9614C174.929 97.6126 175.342 99.4701 175.342 99.8829C175.239 100.296 175.858 100.915 176.684 101.224C177.922 101.74 178.025 102.256 177.2 103.185C176.374 104.217 176.477 105.868 177.613 109.377C178.541 111.957 179.264 114.743 179.264 115.569C179.264 116.291 179.883 117.22 180.605 117.426C181.637 117.839 181.637 118.046 180.605 118.046C179.057 118.149 178.851 122.896 180.296 123.825C180.915 124.238 181.018 125.063 180.605 125.682C180.192 126.405 179.78 128.572 179.676 130.533C179.573 132.493 179.367 134.557 179.264 135.176C179.161 135.692 179.057 137.344 179.161 138.685C179.264 140.852 179.47 140.955 181.018 139.717C182.669 138.376 182.669 138.479 181.121 140.749C179.573 142.916 179.573 143.639 180.915 147.457C183.082 153.752 185.765 158.396 187.21 158.396C187.932 158.396 188.242 159.015 187.932 159.841C187.623 160.666 188.242 161.801 189.48 162.421C190.615 163.04 191.751 164.485 192.163 165.516C192.783 167.477 194.227 167.787 196.601 166.239C198.355 165.207 197.22 161.698 193.815 158.293C192.37 156.848 190.203 153.133 189.067 150.243C187.932 147.251 186.384 144.361 185.765 143.742C184.836 143.019 184.733 142.091 185.559 140.749C186.281 139.408 186.178 138.169 185.456 136.724C184.836 135.589 184.733 134.041 185.146 133.319C186.384 131.461 186.488 115.053 185.352 115.053C184.733 115.053 184.63 114.537 184.94 114.021C185.249 113.402 184.836 112.679 183.908 112.37C182.669 111.854 182.463 110.925 182.876 108.758C183.288 107.107 182.979 104.836 182.256 103.495C181.534 102.153 180.915 99.9861 180.812 98.5414C180.812 97.0966 180.192 94.5167 179.573 92.8655C178.954 91.1112 177.922 87.8088 177.303 85.5385C176.168 81.4106 167.602 69.6461 165.745 69.6461C165.229 69.6461 163.887 68.8205 162.855 67.7885C158.624 64.0734 157.592 63.4543 155.219 63.4543C151.194 63.4543 145.209 71.0909 145.209 76.2507C145.209 80.069 143.351 79.553 141.39 75.0124C139.223 70.2653 136.024 66.5502 134.166 66.5502C133.134 66.5502 132.928 65.8278 133.341 64.2798C133.96 62.6287 133.754 62.2159 132.515 62.7319C131.483 63.1447 130.658 62.6287 130.245 61.3903C129.832 60.1519 127.459 58.8104 123.227 57.4688C115.488 54.9921 111.773 54.8889 109.812 57.1592ZM124.053 63.4543C124.879 63.4543 125.601 63.867 125.601 64.4862C125.601 65.0022 126.323 65.1054 127.355 64.7958C128.387 64.383 128.8 64.5894 128.387 65.2086C127.562 66.447 130.142 68.9237 131.07 67.8917C131.483 67.5821 131.793 68.2013 131.793 69.4397C131.793 70.5749 132.309 71.9164 132.825 72.226C133.444 72.6388 134.476 74.3932 135.302 76.2507C136.024 78.1083 138.191 81.3074 140.049 83.3713C141.906 85.4353 142.938 87.1897 142.422 87.1897C141.906 87.1897 140.977 86.6737 140.358 86.0545C139.842 85.5385 138.088 85.3321 136.643 85.6417C133.754 86.4673 126.633 92.5559 126.633 94.3103C126.633 94.9295 126.22 95.4454 125.807 95.4454C123.847 95.4454 121.473 92.4527 118.584 86.1577C118.18 85.2734 117.796 84.4331 117.431 83.634C111.703 71.0977 110.619 68.7261 111.001 66.6203C111.09 66.1289 111.259 65.652 111.467 65.0639C111.531 64.8831 111.599 64.6917 111.669 64.4862C112.701 61.3903 113.424 60.7711 116.932 60.3583C120.132 59.9455 121.164 60.2551 121.68 61.5967C122.092 62.6287 123.124 63.4543 124.053 63.4543ZM95.6738 74.1868C95.6738 74.4964 95.261 75.0124 94.6418 75.3219C94.1258 75.6315 93.6098 75.4251 93.6098 74.9092C93.6098 74.29 94.1258 73.774 94.6418 73.774C95.261 73.774 95.6738 73.9804 95.6738 74.1868ZM100.627 81.5138C101.35 82.0298 103.001 83.6809 104.239 85.0225C105.478 86.4673 108.264 89.2536 110.534 91.3175L114.456 95.1358L111.773 97.819C110.225 99.3669 108.367 102.153 107.541 104.011C106.303 106.9 106.097 107.107 105.374 105.249C104.652 103.495 103.001 101.224 99.2857 97.0966C98.7697 96.4774 98.1505 93.5879 97.9441 90.8016C97.7377 87.912 97.2217 85.2289 96.8089 84.8161C96.2929 84.4033 96.1898 82.8554 96.4993 81.5138C96.9121 79.0371 97.5313 79.0371 100.627 81.5138ZM145.209 96.4774C145.209 96.9934 144.486 97.5094 143.557 97.5094C142.732 97.5094 142.319 96.9934 142.629 96.4774C142.938 95.8582 143.661 95.4454 144.28 95.4454C144.796 95.4454 145.209 95.8582 145.209 96.4774ZM144.899 102.256C144.589 102.566 143.661 102.669 142.938 102.36C142.113 102.05 142.422 101.74 143.557 101.74C144.693 101.637 145.312 101.947 144.899 102.256ZM185.456 147.044C185.456 147.767 184.836 147.663 183.908 146.631C183.082 145.806 182.36 144.567 182.36 143.948C182.36 143.226 182.979 143.329 183.908 144.361C184.733 145.187 185.456 146.425 185.456 147.044ZM188.551 151.172C188.551 151.688 188.035 152.204 187.416 152.204C186.9 152.204 186.694 151.688 187.004 151.172C187.313 150.553 187.829 150.14 188.139 150.14C188.345 150.14 188.551 150.553 188.551 151.172ZM102.797 130.431C102.694 130.741 102.694 131.463 102.797 131.876C102.9 132.392 102.488 132.495 102.075 132.186C101.559 131.876 99.8045 133.115 98.3598 134.972C96.0894 137.552 95.6766 138.997 96.0894 141.68C96.399 143.847 96.1926 144.776 95.5734 144.363C94.9542 144.053 92.8903 145.292 90.9295 147.149C87.4208 150.555 86.3888 153.238 88.556 153.238C89.1752 153.238 89.4848 152.516 89.1752 151.793C88.7624 150.761 89.072 150.452 89.8976 150.761C90.6199 151.071 93.4063 148.801 96.0894 145.808C97.431 144.311 98.8243 142.763 99.9853 141.473L99.9856 141.473C101.146 140.183 102.075 139.152 102.488 138.687C103.313 137.758 103.932 136.314 103.932 135.385C103.932 134.353 104.552 133.94 105.377 134.25C106.925 134.869 108.267 132.495 107.235 130.844C106.512 129.709 103.004 129.399 102.797 130.431Z" fill="#920B0E"/>
</svg>
