<svg width="81" height="81" viewBox="0 0 81 81" fill="none" xmlns="http://www.w3.org/2000/svg">
<path fill-rule="evenodd" clip-rule="evenodd" d="M41.0693 20.8965C41.0693 21.0727 40.7522 21.5662 40.3292 21.9891L39.5891 22.7292L39.8358 21.9891C40.1178 21.0727 39.8358 21.0727 36.3114 21.8481C34.8312 22.1653 33.8091 22.5177 34.0558 22.6587C34.655 23.0464 33.8091 23.4693 33.0338 23.1874C32.6461 23.0816 31.8707 23.3636 31.1306 23.857C30.4257 24.3152 29.5446 24.8086 29.1217 24.9496C28.6988 25.0553 28.3816 25.3372 28.3816 25.5135C28.3816 25.9364 26.3374 27.9453 25.9145 27.9453C25.703 27.9453 25.5621 28.192 25.5621 28.4739C25.5621 28.7559 25.7383 29.0026 25.9145 29.0026C26.126 29.0026 26.2669 29.1788 26.2669 29.4255C26.2669 29.7427 26.1612 29.7427 25.844 29.4255C25.5621 29.1436 25.3154 29.1083 24.9629 29.3903C24.3638 29.9189 24.3638 30.5533 24.9982 30.3066C25.2801 30.2009 25.5973 30.3419 25.703 30.6238C26.0202 31.3992 25.985 31.4344 25.2096 31.223C24.7515 31.1172 24.2933 31.2582 24.0466 31.6106C23.7999 31.9278 23.1302 32.245 22.5311 32.2803C21.932 32.3508 21.2623 32.527 21.0156 32.6679C20.8042 32.8089 20.6279 32.7737 20.6279 32.6327C20.6279 32.4565 19.4649 32.4212 18.0551 32.5622L17.5353 32.6156C16.3586 32.7367 15.3145 32.8442 15.1299 32.8442C14.425 32.8794 14.2841 33.9015 14.848 34.4654C15.2356 34.8531 15.5528 34.9236 15.8348 34.6416C16.0815 34.4654 16.3634 34.3949 16.4692 34.4654C16.5749 34.5711 17.1036 34.4654 17.6675 34.2539C18.2314 34.0072 18.9362 33.8662 19.2534 33.9015C19.5706 33.9367 19.9231 33.7253 20.064 33.4081C20.1698 33.0909 20.4165 32.9499 20.6279 33.0556C20.8394 33.1966 20.8746 33.4433 20.7689 33.6548C20.6279 33.9015 20.7689 33.9015 21.1918 33.69C21.5795 33.4786 22.2492 33.4433 22.7426 33.5843C23.236 33.7253 23.9056 33.69 24.258 33.5138C24.6105 33.3376 24.8572 33.3376 24.8572 33.549C24.8572 33.7253 25.1744 33.7957 25.5621 33.69C25.9498 33.5843 26.2669 33.3728 26.2669 33.1966C26.2669 33.0204 26.6194 32.8794 27.0776 32.8794C27.5357 32.8794 28.0644 32.7032 28.2758 32.4917C28.593 32.1745 28.9102 32.3508 29.6151 33.0204C30.1438 33.549 30.9896 34.1482 31.483 34.3244C32.7871 34.8178 35.7123 34.7826 36.3114 34.2892C36.5934 34.0425 36.8401 33.972 36.8401 34.1482C36.8401 34.3244 37.0163 34.1834 37.2278 33.831C37.404 33.5138 37.7917 33.2318 38.0384 33.2318C38.6375 33.2318 38.99 32.3508 38.708 31.5754C38.567 31.223 38.6375 31.082 38.8842 31.2582C39.0957 31.3639 39.3424 31.3287 39.4481 31.1525C39.5891 30.9762 39.5186 30.6943 39.3072 30.5886C39.0252 30.4123 39.0605 30.2009 39.3424 29.8484C39.5539 29.5665 39.6596 29.2141 39.5186 29.1083C39.3776 28.9673 39.1662 29.0378 39.0252 29.2493C38.849 29.5312 38.6023 29.5665 38.2498 29.3198C37.7917 29.0731 37.7917 28.9673 38.2146 28.6854C38.7785 28.333 38.4261 27.5928 37.6859 27.5928C37.3687 27.5928 36.9458 27.3814 36.6991 27.1347C36.0647 26.5003 33.1395 26.6765 32.4346 27.3814C32.1174 27.6986 31.6593 27.9453 31.4125 27.9453C30.7782 27.9453 29.7208 29.1788 30.038 29.5312C30.2143 29.6722 30.1438 29.7075 29.9323 29.6017C29.5094 29.355 28.9455 30.2714 29.016 30.941C29.0512 31.1172 28.5226 31.3287 27.8529 31.3639C27.1128 31.3992 26.6194 31.2582 26.6194 31.0115C26.6546 30.3419 29.0865 27.8395 30.9544 26.5355C31.8707 25.9011 32.6108 25.2315 32.6108 25.0905C32.6108 24.9496 33.3157 24.7381 34.1968 24.6324C35.0779 24.4914 35.7828 24.2447 35.7828 24.0332C35.7828 23.857 36.1705 23.716 36.6286 23.716C37.1925 23.716 37.5802 23.4693 37.7212 23.0111C37.9679 22.271 38.4261 22.0948 38.7433 22.6235C38.8842 22.7997 38.7433 23.0464 38.5318 23.1521C38.2851 23.2579 38.567 23.2579 39.1309 23.1521C41.2808 22.7292 42.3381 22.5882 44.5232 22.5177C45.7215 22.4825 46.4969 22.553 46.2854 22.7292C46.0035 22.8702 46.3559 23.0111 47.1665 23.0111C48.1181 23.0111 48.4353 22.8702 48.2943 22.553C48.1534 22.3415 48.3648 22.4825 48.7173 22.9054C49.3516 23.6808 51.6425 24.3504 51.6425 23.7513C51.6425 23.575 51.9597 23.5046 52.3474 23.6103C53.017 23.7865 53.0522 23.8218 52.4531 24.2799C52.1353 24.5229 51.9861 24.637 52.0054 24.6959C52.0225 24.748 52.1717 24.7568 52.4531 24.7733C53.3342 24.7733 56.1185 27.6281 56.7881 29.1788C57.493 30.8705 57.1758 33.2318 56.2594 33.2318C55.907 33.2318 55.5193 33.3376 55.3783 33.4786C55.0964 33.7957 54.4268 33.9015 51.7835 34.0425C50.6204 34.1129 49.4574 34.2892 49.2107 34.4301C48.8582 34.6768 48.823 34.5711 49.1049 34.0425C50.0918 32.245 46.7436 31.0467 44.3118 32.3155C42.0914 33.4786 41.3513 37.1439 43.043 38.4832C43.9241 39.1881 44.0298 39.1881 44.488 38.6242C44.9109 38.0955 44.9814 38.0603 44.8404 38.5537C44.6995 39.0118 44.8757 39.1176 45.7568 39.0118C46.0478 38.9957 46.3537 38.9721 46.6234 38.9513L46.6235 38.9513L46.6236 38.9513C46.9416 38.9267 47.2093 38.9061 47.3427 38.9061C47.5895 38.8709 47.9771 38.4832 48.1886 37.9898C48.4001 37.4963 48.7877 37.1087 48.9992 37.1087C49.2107 37.1087 49.5984 36.721 49.8098 36.2276C50.0213 35.7342 50.4794 35.3465 50.7614 35.3465C51.1138 35.3465 51.2196 35.1703 51.0786 34.8883C50.8671 34.6064 50.9729 34.6064 51.3958 34.9236C51.8892 35.3465 52.0654 35.3112 52.5941 34.8178C52.9818 34.3949 53.2285 34.3244 53.3342 34.6064C53.4047 34.8178 53.9333 34.994 54.4972 34.994C55.9775 34.994 55.8013 35.8399 54.0391 37.6021C52.3474 39.2585 50.1975 40.5978 48.6468 41.0207C48.0829 41.1617 46.6379 41.5494 45.4748 41.8666C43.4307 42.4305 37.3687 42.8534 36.6639 42.4657C36.4877 42.3248 36.1 42.219 35.7828 42.1838C35.5008 42.1485 34.655 42.0076 33.8796 41.8666C33.0338 41.7256 32.6108 41.7609 32.7518 41.9723C32.8575 42.1485 32.6813 42.5362 32.3994 42.7829C31.8707 43.2058 31.8355 43.1354 32.0469 42.1838C32.2584 41.2322 32.1879 41.0912 31.0601 40.7035C30.3905 40.4568 28.9455 39.2938 27.8882 38.1307C26.7956 36.9677 25.9145 36.1923 25.9145 36.4038C25.9145 36.6392 25.6899 36.7462 25.4244 36.6331C25.4755 36.5644 25.526 36.4879 25.5751 36.4038C25.8218 36.0161 26.2095 35.6989 26.4562 35.6989C26.7029 35.6989 26.9496 35.5227 26.9848 35.3465C27.1258 34.2891 27.0201 34.1129 26.3152 34.0777C25.8923 34.0424 25.6103 34.1482 25.6808 34.3244C25.7865 34.4654 25.6456 34.8178 25.3636 35.0997C25.0817 35.3817 24.9407 35.6989 25.0464 35.8399C25.1874 35.9456 25.0817 36.0513 24.8702 36.0513C24.6235 36.0513 24.4473 36.298 24.4473 36.58C24.4473 36.9705 24.6239 37.1353 24.8632 37.0797C24.8591 37.1419 24.8572 37.2102 24.8572 37.2849C24.8572 37.7783 24.681 38.166 24.4343 38.166C24.2228 38.166 24.1523 38.2717 24.258 38.3774C24.399 38.5184 24.8572 38.3774 25.3154 38.0603C25.985 37.6373 26.1612 37.6021 26.1612 37.9898C26.1612 38.2717 25.703 38.6594 25.1391 38.8356C24.6105 39.0471 24.1523 39.4348 24.1523 39.752C24.1523 40.1044 24.3285 40.2101 24.6105 40.0691C24.8924 39.8577 24.8924 39.9634 24.5752 40.3863C24.2933 40.7035 24.1876 41.1265 24.2933 41.3027C24.4343 41.4789 24.3638 41.7256 24.1876 41.8313C23.8351 42.0428 23.9409 44.8976 24.3638 47.8228C24.5048 48.8096 24.6105 49.7612 24.5752 49.9374C24.5048 50.0784 24.681 50.4308 24.8924 50.7128C25.1039 50.9947 25.1744 51.2062 24.9982 51.2062C24.8572 51.2062 24.8924 51.3824 25.1391 51.6291C25.3859 51.8758 25.5621 52.334 25.5621 52.6864C25.5621 54.3429 28.2406 57.4443 29.016 56.669C29.1217 56.5985 29.4036 56.81 29.6504 57.1624C30.3905 58.1845 34.4083 59.6295 38.0031 60.1581C41.1398 60.6163 42.6201 60.5458 41.2103 59.9467C40.6464 59.7352 40.6817 59.7 41.4218 59.7352C41.9152 59.7704 42.5143 59.7 42.7611 59.5237C43.0782 59.3123 43.184 59.418 43.1135 59.8762C43.0078 60.4048 43.2897 60.4753 45.4748 60.4048C46.8141 60.3696 48.0124 60.2639 48.1534 60.1581C48.2943 60.0876 49.1402 59.9467 50.0918 59.8409C51.0434 59.7 52.1359 59.3123 52.5236 58.9598C52.9113 58.6074 53.6514 58.1845 54.2153 58.0787C54.7439 57.9378 56.2594 56.81 57.5635 55.5764C58.8675 54.3429 60.0305 53.3208 60.1362 53.3208C60.6297 53.3208 61.1583 51.2767 60.9821 49.9727C60.8764 49.1973 60.8059 47.6818 60.8411 46.6245C60.9116 45.5672 60.9469 42.7124 60.9469 40.3159C60.9469 36.2276 60.8764 35.9104 60.1715 35.3112C59.1142 34.5006 59.6076 34.2539 62.4976 34.1482C63.9073 34.0777 64.8237 33.9015 64.7884 33.6548C64.7532 33.4786 64.9647 33.1966 65.2466 33.0909C65.6695 32.9147 65.7753 33.0204 65.599 33.4433C65.4228 33.9367 65.4581 33.972 65.9162 33.5843C67.3965 32.3508 66.0925 32.0688 61.6517 32.7032C60.6297 32.8089 59.7486 32.8089 59.6428 32.6327C59.5371 32.4917 59.4314 31.6459 59.3609 30.7648C59.2199 28.2272 56.9291 24.6676 54.7439 23.575L54.7437 23.5749C54.1094 23.2578 53.3342 22.8701 53.0522 22.694C52.7703 22.5177 52.1359 22.2358 51.6425 22.0243C51.3684 21.9264 50.9855 21.7741 50.6026 21.6219C50.2963 21.5 49.99 21.3782 49.7393 21.2842C48.4001 20.7203 44.9462 20.4736 44.9462 20.8965C44.9462 21.108 44.77 21.249 44.5585 21.249C44.3823 21.249 44.3118 21.0727 44.4175 20.8965C44.5585 20.6851 43.9593 20.5441 42.8668 20.5441C41.88 20.5441 41.0693 20.6851 41.0693 20.8965ZM35.9238 29.1788C37.545 29.8837 37.7212 31.2934 36.2409 31.8573C35.7123 32.0688 35.1836 32.386 35.0427 32.5622C34.655 33.1966 31.8707 32.4565 31.3068 31.5754C30.8134 30.8705 30.8486 30.7295 31.6593 29.9189C32.2232 29.355 32.7871 29.1083 33.2452 29.2493C33.6329 29.3198 34.0558 29.2493 34.1616 29.0378C34.1728 29.0204 34.1835 29.0035 34.1939 28.9873C34.2822 28.8488 34.3414 28.7559 34.4261 28.7123C34.5992 28.6232 34.8784 28.7403 35.7283 29.0969C35.7904 29.1229 35.8554 29.1502 35.9238 29.1788ZM47.237 36.0514C46.8493 36.4743 46.0035 37.0382 45.3339 37.3554C44.9515 37.5275 44.5691 37.7099 44.2711 37.8521L44.271 37.8521C44.0197 37.972 43.8285 38.0633 43.7479 38.0955C43.5717 38.2012 43.5364 38.0955 43.6774 37.884C43.8184 37.6373 44.206 37.4611 44.5232 37.4259C44.9462 37.4259 44.9109 37.3201 44.347 37.1087C43.6774 36.8267 43.5717 36.6153 43.7479 35.6284C44.0298 34.1482 44.2765 33.9015 45.7215 33.6195C46.7436 33.3728 46.9198 33.4433 47.378 34.3597C47.8362 35.2407 47.8362 35.417 47.237 36.0514ZM34.1968 33.9367C34.3025 34.1129 34.0911 34.2892 33.6681 34.2892C33.2452 34.2892 33.0338 34.1129 33.1395 33.9367C33.2452 33.7253 33.4919 33.5843 33.6681 33.5843C33.8444 33.5843 34.0911 33.7253 34.1968 33.9367ZM35.7828 33.9367C35.7828 34.1129 35.6066 34.2892 35.3951 34.2892C35.2189 34.2892 35.1484 34.1129 35.2541 33.9367C35.3599 33.7253 35.5361 33.5843 35.6418 33.5843C35.7123 33.5843 35.7828 33.7253 35.7828 33.9367ZM58.797 39.0471C58.7265 41.5494 58.0216 44.8976 57.2815 46.2721C57.07 46.695 56.9643 47.2589 57.07 47.5408C57.1758 47.8228 57.1405 47.999 56.9643 47.858C56.7881 47.7523 56.5766 47.8933 56.4709 48.1047C56.2947 48.6686 56.2594 48.6334 55.1669 46.4483C54.462 45.0738 54.1096 44.6861 53.4399 44.6861C52.7351 44.6861 52.4883 44.968 51.9949 46.6245C51.6425 47.6818 51.2548 49.303 51.1491 50.2194C51.0081 51.1357 50.7614 51.9816 50.5852 52.0873C50.1623 52.334 49.1402 51.9111 49.3516 51.5586C49.4574 51.3824 49.3516 51.1357 49.1049 50.9595C48.8582 50.8185 48.3296 50.1136 47.9771 49.444C47.5895 48.7744 47.1313 48.1047 46.9198 47.9638C46.7084 47.8228 46.5321 47.5056 46.5321 47.2589C46.5321 47.0122 46.1797 46.7655 45.792 46.695C45.1224 46.5893 44.9814 46.836 44.77 48.281C44.7013 48.6381 44.6326 49.0112 44.5702 49.3504C44.4724 49.8815 44.39 50.3292 44.347 50.5013C44.2765 50.7833 44.1708 51.3472 44.1003 51.7701C44.0298 52.1578 43.8889 52.6864 43.7479 52.8979C43.4659 53.3913 42.4439 53.4618 42.5496 53.0036C42.6201 52.8274 41.7742 51.7701 40.7169 50.6423C39.6244 49.4792 38.7433 48.2457 38.7785 47.8933C38.7785 46.8007 38.0031 46.836 37.4392 47.9285C37.1573 48.4572 36.6991 49.8317 36.4524 50.9242C35.7828 53.7437 35.5008 53.638 34.1616 50.1489C33.6681 48.9153 33.21 48.2457 32.928 48.3162C32.6461 48.3867 32.5403 48.3162 32.7166 48.1752C32.8575 48.0343 32.5403 47.4703 32.0117 46.9064C31.483 46.3778 31.2716 45.9196 31.483 45.9196C31.7297 45.9196 31.906 45.7434 31.906 45.5672C31.906 44.8976 31.1658 45.2147 30.8839 45.9901C30.5314 46.9417 30.8134 47.6113 31.2363 46.9417C31.5183 46.4835 31.6945 46.7655 31.5888 47.3999C31.5888 47.5761 31.6945 47.6818 31.906 47.6818C32.0822 47.6818 32.1527 47.9285 32.0469 48.2105C31.906 48.5277 32.0469 48.7391 32.3289 48.7391C32.5756 48.7391 32.8223 49.0211 32.8575 49.3383C32.9633 50.9595 34.1968 54.0257 34.7607 54.0257C34.9369 54.0257 35.0427 54.2019 34.9722 54.4134C34.8664 54.9068 36.6639 56.2813 37.122 56.0346C37.2983 55.8936 37.545 54.5544 37.6507 53.0036C37.7564 51.4529 37.9326 50.0079 38.0736 49.7964C38.2146 49.5497 38.9195 50.1841 39.8358 51.4529C40.6464 52.5807 41.8095 53.9552 42.4086 54.5191C43.3602 55.4002 43.5717 55.4707 44.1356 55.0478C44.488 54.7658 44.8052 54.2372 44.8052 53.8495C44.8052 52.7922 46.0035 49.1268 46.4264 48.8801C46.6379 48.7391 46.7084 48.7744 46.6026 48.9858C46.4617 49.1973 46.6026 49.5497 46.8846 49.7964C47.1665 50.0431 47.4132 50.4308 47.4132 50.6775C47.4132 50.889 47.9067 51.7701 48.4706 52.5455C49.2107 53.5675 49.7746 54.0257 50.3737 54.0257C51.3605 54.0257 52.3121 53.2151 52.3826 52.334C52.5236 50.2546 52.6646 49.4088 53.0522 48.2457C53.5104 46.8007 54.1096 46.7302 54.4972 48.1047C54.9907 49.9374 56.5766 51.6644 56.5766 50.3603C56.5766 50.0784 56.7528 49.726 56.9995 49.585C57.2815 49.4088 57.3167 49.585 57.211 50.0784C56.9291 51.03 57.493 51.1005 57.9864 50.1841C58.2683 49.6202 58.1978 49.4088 57.7397 49.1268C57.1758 48.8096 57.211 48.7744 57.9159 48.7391C58.3741 48.7391 58.6208 48.8801 58.515 49.0916C58.4093 49.2678 58.6208 49.6907 59.0437 50.0431C59.7838 50.6775 59.96 51.2062 59.4666 51.2062C59.2904 51.2062 58.2683 52.0168 57.1758 53.0389C52.5236 57.2681 48.8935 58.5722 42.1267 58.3959C38.9547 58.2902 37.5097 58.0435 34.3025 56.9157C31.906 56.1051 31.483 56.0346 31.2011 56.4928C30.9191 56.9509 30.8486 56.9157 30.8486 56.387C30.8486 56.0698 30.7077 55.7879 30.5314 55.7879C30.32 55.7879 29.7208 55.365 29.1217 54.8363C27.8529 53.638 26.6546 50.9595 26.4079 48.7744L26.2669 47.1532L26.9013 48.4219C27.8177 50.3251 28.3111 50.7833 29.1922 50.6423C29.6151 50.5718 29.7561 50.5718 29.5446 50.7128C28.734 51.0652 29.0512 51.8053 30.0028 51.8053C30.6372 51.8053 30.7782 51.6996 30.5314 51.4529C30.32 51.2414 30.179 50.6775 30.179 50.1489C30.2154 49.7309 30.233 49.5284 30.2608 49.527C30.287 49.5257 30.3222 49.7017 30.3905 50.0431C30.6019 51.1005 31.0954 51.1005 31.0249 50.0431C30.9896 49.6202 31.0954 49.0563 31.3068 48.8096C31.483 48.5629 31.5535 48.2457 31.4125 48.14C31.2716 47.999 30.8134 48.3162 30.3905 48.8801C29.6856 49.7612 29.5446 49.7964 28.6988 49.3735C28.2054 49.1268 27.8529 48.7039 27.9234 48.4924C27.9939 48.281 27.6062 47.1532 27.0071 46.0254C25.844 43.7345 25.8088 43.6288 25.8793 41.197L25.8794 41.1918C25.9145 39.5052 25.9152 39.4707 26.6194 40.1044C26.9718 40.4216 27.571 40.633 27.9234 40.5626C28.2758 40.4568 28.875 40.7035 29.2274 41.056C29.7208 41.5141 29.7561 41.6904 29.4389 41.6904C29.0512 41.6904 29.0512 41.7961 29.3684 42.1133C29.8971 42.6419 32.2936 43.4526 32.6813 43.2411C32.8223 43.1354 32.9633 43.2058 32.9633 43.3821C32.9633 43.8755 33.8796 44.1574 36.2057 44.3337C37.9679 44.5099 38.2498 44.4394 38.2851 43.9107C38.2851 43.4173 38.3556 43.3821 38.4966 43.805C38.8137 44.6156 39.2719 44.7918 40.8579 44.6861C45.933 44.3337 52.7703 42.2895 52.1359 41.2674C51.9949 41.056 52.0302 40.9855 52.2064 41.0912C52.8408 41.4789 55.3431 39.752 56.5766 38.0603C58.3388 35.6989 58.9027 35.9456 58.797 39.0471ZM47.0608 38.2012C47.0608 38.3774 46.7084 38.5184 46.2854 38.4832C45.8273 38.4832 45.6863 38.3774 45.933 38.2717C46.1445 38.2012 46.2854 37.9545 46.1797 37.7783C46.0387 37.6021 46.2149 37.5668 46.4969 37.6726C46.8141 37.7783 47.0608 38.025 47.0608 38.2012ZM31.3773 41.3027C31.483 41.4789 31.4125 41.7256 31.2363 41.8313C31.0601 41.9371 30.8486 41.7961 30.7077 41.5141C30.4962 40.9502 31.0249 40.774 31.3773 41.3027ZM30.6161 52.6159C30.7218 52.7922 30.898 52.9684 31.0038 52.9684C31.0743 52.9684 31.1447 52.7922 31.1447 52.6159C31.1447 52.4045 30.9685 52.2635 30.7571 52.2635C30.5808 52.2635 30.5104 52.4045 30.6161 52.6159Z" fill="#000000" fill-opacity="0.6"/>
</svg>
