<svg width="81" height="81" viewBox="0 0 81 81" fill="none" xmlns="http://www.w3.org/2000/svg">
<g style="mix-blend-mode:plus-darker">
<path fill-rule="evenodd" clip-rule="evenodd" d="M54.9697 33.8762C59.4646 33.8133 60.7219 33.6247 61.2563 32.9961C61.6335 32.556 62.5136 32.6817 62.8908 33.2475C63.1423 33.6562 62.9222 35.385 62.6079 35.6364C62.105 36.0136 61.5706 37.2395 61.9164 37.2395C62.0735 37.2395 62.1678 37.3653 62.0421 37.5224C61.9478 37.6796 62.0107 37.8996 62.1678 38.0253C62.3879 38.1196 62.3879 38.4968 62.1993 38.9369C62.0421 39.3455 62.0107 39.7856 62.105 39.8799C62.2307 39.9742 62.0735 40.0685 61.7592 40.0685C61.2877 40.0685 61.2877 40.1314 61.7278 40.8229C62.1678 41.5144 62.1678 41.5773 61.6649 41.7659C61.1305 41.9859 61.1305 42.0173 61.6649 42.3002C62.2621 42.646 62.4193 43.369 61.8221 43.0546C61.602 42.9289 61.6335 43.0232 61.8849 43.2747C62.3879 43.7147 62.5136 44.4691 62.6079 47.2981C62.6708 48.8697 62.6079 49.0269 62.0421 48.964C61.4763 48.9012 61.4763 48.9326 62.1364 49.2469C62.9222 49.6241 63.0165 50.1271 62.4507 50.6929C62.1678 50.9757 62.1678 51.07 62.4507 51.07C62.8279 51.07 62.9222 54.3705 62.5765 54.9992C62.4507 55.1563 62.4193 55.6907 62.4822 56.1622C62.5136 56.6651 62.325 57.2309 61.9164 57.6396L61.2877 58.2682L59.3703 57.3881C57.9872 56.728 57.17 56.5394 56.3527 56.6337C55.504 56.7594 55.284 56.6966 55.4412 56.4137C55.6298 56.1308 55.4726 56.0993 54.9382 56.2879C53.9324 56.6023 50.8834 56.6651 50.8834 56.3194C50.8834 56.1936 50.6319 56.1936 50.349 56.3508C49.4375 56.8223 44.8482 57.0109 44.1881 56.6023C43.7795 56.3508 43.5909 56.3508 43.4023 56.6023C43.1194 57.0738 34.9468 57.4195 34.6639 57.0109C34.5382 56.8223 34.3496 56.8223 34.1296 56.9795C33.6895 57.3252 29.5089 58.0796 29.2889 57.8596C29.1946 57.7653 28.8488 57.8281 28.5345 58.0167C28.1573 58.2053 27.9373 58.2053 27.9373 58.0167C27.9373 57.8596 27.5601 57.8281 27.0886 57.9539C26.6485 58.0796 25.3283 58.0482 24.1967 57.891C23.0652 57.7339 21.7135 57.6396 21.1792 57.6396C19.5132 57.671 19.1989 57.1366 19.136 54.1819C19.1046 52.736 19.1046 51.3215 19.136 51.07C19.1989 50.3785 18.8846 47.9896 18.696 47.6439C18.5702 47.4867 18.6331 47.2352 18.8217 47.1409C19.0732 46.9838 19.0732 46.7952 18.8531 46.5437C18.6645 46.3237 18.4445 45.1606 18.3502 43.9662C18.2559 42.7717 18.1302 41.2315 18.0359 40.54C17.9416 39.7856 18.0359 39.0941 18.2873 38.8112C19.2618 37.6167 22.908 36.5166 25.2026 36.7052C26.0199 36.768 26.7742 36.7052 26.8685 36.5794C26.9628 36.4223 27.1514 36.3594 27.3086 36.4537C27.4658 36.548 27.6544 36.4851 27.7801 36.328C27.9058 36.1079 28.2516 36.1079 28.7231 36.2965C29.1632 36.4537 29.5089 36.4851 29.5089 36.328C29.5089 36.1708 29.3518 35.9822 29.1317 35.9193C28.9117 35.825 29.4146 35.605 30.2319 35.385C31.4578 35.0392 31.8035 35.0392 32.2436 35.385C32.5894 35.6993 32.6837 35.6993 32.5265 35.4164C32.3693 35.1649 32.5579 35.0392 33.1866 35.0078C33.6581 35.0078 34.6011 34.9449 35.2612 34.882C36.0156 34.7877 36.4242 34.882 36.4242 35.1335C36.4242 35.4164 36.4871 35.4164 36.6756 35.1335C36.8014 34.9135 37.9644 34.5991 39.2532 34.442C42.7422 33.9705 50.2547 33.7819 50.2547 34.1591C50.2547 34.3163 50.4433 34.3477 50.6633 34.1905C50.8519 34.0648 52.8008 33.9076 54.9697 33.8762ZM32.8408 36.7995C32.9351 36.548 32.7151 36.2965 32.275 36.1394C30.9863 35.7622 30.1061 35.7622 30.2633 36.2022C30.3576 36.4223 30.2947 36.6109 30.1061 36.6109C29.9176 36.6109 29.8547 36.7366 29.949 36.8938C30.0433 37.0509 29.9176 37.271 29.6347 37.3653C28.9431 37.6482 28.8803 37.6167 29.0689 37.0824C29.1946 36.7995 29.0689 36.6109 28.786 36.6109C28.5345 36.6109 28.1573 36.8309 27.9373 37.0824C27.6229 37.4596 27.6544 37.5539 28.1259 37.5539C28.4716 37.5539 28.5659 37.6482 28.4088 37.8367C27.9687 38.2454 24.4796 38.9369 22.2165 39.0626C21.7135 39.0941 21.3363 39.3141 21.3363 39.5027C21.3678 40.0056 23.4738 41.6401 24.071 41.6401C24.291 41.6401 24.4796 41.7659 24.4796 41.923C24.4796 42.0802 24.9826 42.3945 25.5798 42.5831C26.177 42.7717 26.6485 43.0232 26.6485 43.1489C26.5542 43.7462 26.7114 43.9348 26.9628 43.5576C27.1829 43.2118 27.4343 43.2432 28.2516 43.8405C28.8488 44.2491 29.1632 44.7206 29.0689 45.0035C28.9431 45.2549 29.0374 45.3492 29.226 45.2235C29.4146 45.0978 29.6975 45.2235 29.8547 45.4435C30.0433 45.7579 30.1376 45.7893 30.1376 45.475C30.1376 45.2235 30.5462 45.3178 31.4892 45.7893C33.941 47.1095 33.9724 47.1095 33.7524 46.0093C33.2809 43.9348 35.5126 41.0115 37.5243 41.0115C38.4359 41.0115 38.6559 41.1058 38.4988 41.483C38.4045 41.7344 38.4673 41.9545 38.6245 41.9545C38.8131 41.9545 38.9388 41.8287 38.9388 41.6716C38.9388 41.2001 40.1961 41.6716 40.6676 42.3317C40.8877 42.6774 41.0134 43.2118 40.9191 43.4947C40.7934 43.8719 40.8877 43.8405 41.2649 43.369C41.5792 43.0232 41.7364 42.9289 41.6106 43.1175C41.5163 43.3375 41.5792 43.5261 41.7678 43.5261C41.9564 43.5261 42.0507 43.2747 41.9564 42.9603C41.5792 41.7659 46.4199 40.2257 47.1114 41.3258C47.2686 41.5773 47.4257 41.6716 47.4257 41.5458C47.4257 41.1686 48.3687 42.1745 48.3687 42.5517C48.3687 43.1804 49.0603 42.8975 49.9404 41.9545C50.4119 41.4201 50.9462 41.0115 51.1034 41.0115C51.2291 41.0115 52.015 40.4143 52.8008 39.6599C53.618 38.9369 54.7811 37.9939 55.4097 37.5539C56.0384 37.1138 56.5099 36.548 56.447 36.2965C56.3842 35.8879 55.7241 35.825 52.3922 35.9193C50.1918 35.9822 47.7086 36.1394 46.8285 36.2651C45.9798 36.3908 45.0997 36.4223 44.8797 36.2965C44.6911 36.1394 44.1253 36.1708 43.6538 36.2965C43.1823 36.4223 42.6479 36.4537 42.4279 36.328C42.2393 36.2022 41.2649 36.2337 40.2904 36.3594C39.2846 36.5166 37.6815 36.7052 36.7385 36.768C35.7955 36.8623 34.7582 36.9881 34.4753 37.0509C34.161 37.1138 33.9095 37.0195 33.9095 36.8309C33.9095 36.5794 33.7838 36.6109 33.5323 36.8623C33.0294 37.3653 32.6208 37.3338 32.8408 36.7995ZM60.1875 43.8719C60.0304 43.6519 59.9361 41.923 59.9361 40.0371C59.9361 38.1511 59.8732 36.6109 59.8104 36.6109C59.7475 36.6109 59.5589 36.8938 59.3703 37.2395C59.1817 37.5853 58.8988 37.8682 58.7416 37.8682C58.553 37.8682 57.7986 38.3711 56.9814 38.9683C56.1956 39.5656 55.3783 40.0685 55.1897 40.0685C54.9697 40.0685 54.3096 40.6972 53.7123 41.483C53.1151 42.2374 52.3293 42.9603 51.9835 43.0861C51.6378 43.2118 51.1663 43.5576 50.9462 43.8719C50.7262 44.2177 50.3804 44.4691 50.1918 44.4691C49.8147 44.4691 46.7971 47.581 45.7912 49.0269C45.1311 49.9699 42.3022 52.3274 41.8621 52.3274C41.7049 52.3274 41.0763 51.9816 40.4476 51.5415C39.819 51.1015 38.5302 50.5986 37.6186 50.41C36.7071 50.2214 35.6384 49.8756 35.2612 49.6241C34.884 49.3727 34.4125 49.1841 34.2239 49.1841C33.2495 49.1841 28.6917 46.8266 28.786 46.3865C28.8488 46.1979 28.6917 46.1351 28.4716 46.1979C28.283 46.2922 27.7172 46.0093 27.2457 45.5693C26.7742 45.1292 26.2399 44.7834 26.0827 44.7834C25.8941 44.7834 25.4226 44.6263 24.9826 44.4062C24.291 44.1234 24.2282 43.9662 24.5739 43.589C24.8254 43.2432 24.8254 43.1489 24.5739 43.3061C24.0081 43.6519 22.4994 42.9603 22.7823 42.5203C22.908 42.3002 22.8766 42.2059 22.7508 42.3631C22.5937 42.4888 22.0907 42.2059 21.5878 41.7344C21.1163 41.2944 20.6134 41.0115 20.4876 41.1372C20.079 41.5458 20.299 45.475 20.8334 47.3924C21.5564 50.0013 21.745 52.5788 21.3049 53.679C20.9591 54.5277 20.9906 54.6848 21.5878 55.1563C22.4679 55.8793 28.2202 56.2879 29.8233 55.7536C31.4578 55.2192 35.5755 55.1249 35.1354 55.6593C34.9468 55.9107 34.9468 56.0993 35.1354 56.2251C35.2926 56.3508 35.6384 56.1308 35.8898 55.785C36.1727 55.4078 36.8014 55.0935 37.5243 54.9992C38.153 54.9049 38.8131 54.7791 38.9388 54.6848C39.096 54.5905 39.2846 54.622 39.3475 54.7477C39.4418 54.9049 40.5105 54.9992 41.7364 54.9677C43.4337 54.9677 43.9681 55.062 43.8424 55.3449C43.7481 55.5964 43.8424 55.6907 44.1567 55.565C44.3767 55.4707 44.5968 55.2821 44.5968 55.1563C44.5968 54.6848 46.1999 54.5905 46.6399 55.0306C47.1743 55.5964 47.4257 55.5964 47.4257 55.0306C47.4257 54.622 48.3059 54.5905 53.0208 54.6534C56.0698 54.7163 59.056 54.8734 59.6218 54.9992C60.5019 55.1878 60.6276 55.1563 60.6276 54.5905C60.6276 54.2448 60.8162 53.899 61.0362 53.8047C61.3191 53.7104 61.3191 53.5847 61.0362 53.2389C60.7848 52.9246 60.659 51.5101 60.6276 49.1526C60.5962 45.1606 60.5647 44.5005 60.1875 43.8719ZM60.2818 42.2688C60.439 42.2688 60.6905 42.1116 60.7848 41.9545C60.8791 41.7659 60.8476 41.6401 60.659 41.6401C60.5019 41.6401 60.2504 41.7659 60.1561 41.9545C60.0618 42.1116 60.0933 42.2688 60.2818 42.2688ZM51.7635 42.1745C51.9835 42.2688 52.2664 42.2374 52.3607 42.1431C52.4865 42.0488 52.2979 41.9545 51.9521 41.9859C51.6063 41.9859 51.512 42.0802 51.7635 42.1745ZM46.0113 44.0605C46.2313 43.2747 46.1684 43.2118 45.2883 43.2118C44.7539 43.2118 44.2824 43.0546 44.2196 42.8346C44.1253 42.6146 43.8424 42.8975 43.5595 43.4633C43.3734 43.8354 43.1058 44.3298 42.8639 44.7767C42.738 45.0094 42.619 45.2292 42.5222 45.4121C41.7678 46.858 40.7619 46.6694 39.7561 44.9406C38.6874 43.1175 37.6815 42.8346 36.5499 43.9662C35.9213 44.5634 35.7641 44.972 35.9213 45.5693C36.047 46.0093 36.2985 46.3551 36.4871 46.3551C36.7071 46.3551 37.3043 46.7637 37.8387 47.2352C38.3416 47.7381 39.3475 48.4925 40.0704 48.9326L41.3592 49.7499L42.4279 48.9326C43.0251 48.4611 43.6538 47.9582 43.8109 47.7696C44.5339 47.0152 45.8227 44.8777 46.0113 44.0605ZM26.8685 44.5948C27.5286 45.0663 27.8115 45.0349 27.4658 44.5005C27.3715 44.312 27.0257 44.1548 26.7428 44.1548C26.3342 44.1548 26.3342 44.2177 26.8685 44.5948ZM40.6362 44.5948C40.9191 44.5005 41.1391 44.3434 41.1391 44.2805C41.1391 44.0291 40.5419 44.1548 40.3533 44.4691C40.259 44.6577 40.3847 44.6891 40.6362 44.5948ZM30.3262 46.5751C30.1376 47.0152 30.169 47.0466 30.4833 46.7637C30.7034 46.5437 30.7977 46.2922 30.7034 46.1979C30.6091 46.1036 30.4205 46.2608 30.3262 46.5751ZM62.1993 53.2704C62.3879 53.2704 62.5136 53.1132 62.5136 52.956C62.5136 52.7674 62.3879 52.6417 62.1993 52.6417C62.0421 52.6417 61.8849 52.7674 61.8849 52.956C61.8849 53.1132 62.0421 53.2704 62.1993 53.2704ZM51.8264 55.6278C52.015 55.5335 52.1407 55.3764 52.1407 55.2821C52.1407 55.2192 52.015 55.1563 51.8264 55.1563C51.6692 55.1563 51.512 55.3135 51.512 55.5021C51.512 55.6593 51.6692 55.7221 51.8264 55.6278ZM61.6963 55.9736C62.0735 56.1308 62.1678 56.0365 62.0107 55.6593C61.7906 55.0935 61.602 55.0306 60.9419 55.4707C60.659 55.6593 60.6276 55.785 60.8476 55.785C61.0362 55.785 61.4449 55.8793 61.6963 55.9736ZM33.5009 55.8164C33.7209 56.0365 33.9724 56.1308 34.0667 56.0365C34.161 55.9422 34.0038 55.7536 33.6895 55.6593C33.2495 55.4707 33.218 55.5021 33.5009 55.8164ZM59.3389 56.728C59.5275 56.728 59.6846 56.5708 59.6846 56.4137C59.6846 56.2251 59.6218 56.0993 59.5589 56.0993C59.4646 56.0993 59.3074 56.2251 59.2131 56.4137C59.1188 56.5708 59.1817 56.728 59.3389 56.728ZM28.3773 56.948C28.0001 57.0738 27.9058 57.0423 28.063 56.7909C28.1887 56.5708 28.2202 56.4137 28.1573 56.4137C27.9373 56.4137 27.6229 56.8223 27.6229 57.1052C27.6229 57.451 28.5031 57.4195 28.7231 57.0423C28.8488 56.8537 28.6917 56.8223 28.3773 56.948ZM31.9921 57.0423C32.1807 57.0423 32.3379 56.8852 32.3379 56.728C32.3379 56.5394 32.275 56.4137 32.2122 56.4137C32.1179 56.4137 31.9607 56.5394 31.8664 56.728C31.7721 56.8852 31.835 57.0423 31.9921 57.0423ZM61.3191 57.3567C61.4449 57.3567 61.5706 57.2309 61.5706 57.0738C61.5706 56.8852 61.4449 56.6966 61.3191 56.6023C61.162 56.508 61.0362 56.6337 61.0362 56.8852C61.0362 57.1366 61.162 57.3567 61.3191 57.3567ZM30.7748 37.3971C30.5862 37.2714 30.5233 37.0828 30.5862 36.9571C30.8062 36.6428 31.7178 36.6428 31.7178 36.9571C31.7178 37.3343 31.1206 37.6172 30.7748 37.3971Z" fill="black" fill-opacity="0.6"/>
</g>
</svg>
