<svg width="147" height="31" viewBox="0 0 147 31" fill="none" xmlns="http://www.w3.org/2000/svg">
<g style="mix-blend-mode:plus-darker">
<path d="M9.64463 5.34405H9.24862C9.24862 5.16805 9.07262 5.08005 8.72062 5.08005C8.41262 5.08005 8.17063 5.19005 7.99463 5.41005L6.80662 5.54205C6.58663 5.54205 6.36663 5.56405 6.14663 5.60805C5.97063 5.60805 5.79463 5.60805 5.61863 5.60805C5.53063 5.56405 5.35463 5.52005 5.09062 5.47605C4.82662 5.38805 4.54062 5.34405 4.23263 5.34405C3.92463 5.34405 3.74863 5.41005 3.70463 5.54205C3.08863 5.58605 2.67063 5.63005 2.45062 5.67405C2.27462 5.67405 1.96663 5.67405 1.52663 5.67405C1.39463 5.63005 1.28462 5.58605 1.19662 5.54205C1.10862 5.45405 1.02062 5.36605 0.932625 5.27805C0.712625 5.19005 0.536625 4.97005 0.404625 4.61805C0.272625 4.26605 0.184625 3.84805 0.140625 3.36405C0.140625 2.88005 0.140625 2.41805 0.140625 1.97805C0.140625 1.53805 0.140625 1.20805 0.140625 0.988048C0.184625 0.944047 0.228625 0.900047 0.272625 0.856048C0.360625 0.768047 0.448625 0.680047 0.536625 0.592047L0.998625 0.196046H2.05463C2.36263 0.240047 2.67063 0.262047 2.97863 0.262047C3.28663 0.262047 3.63863 0.262047 4.03463 0.262047C4.03463 0.262047 4.16663 0.240047 4.43062 0.196046L4.76063 -0.00195312C6.25663 -0.00195312 7.64262 0.0640467 8.91862 0.196046C10.1946 0.284046 11.4486 0.394047 12.6806 0.526048C13.9566 0.658048 15.2326 0.790047 16.5086 0.922047C17.7846 1.01005 19.2146 1.05405 20.7986 1.05405C20.7986 1.18605 20.8426 1.29605 20.9306 1.38405L21.1286 1.58205C21.2166 1.62605 21.4146 1.64805 21.7226 1.64805C22.3826 1.64805 22.8886 1.64805 23.2406 1.64805C23.6366 1.60405 23.9666 1.56005 24.2306 1.51605C24.4946 1.42805 24.7366 1.34005 24.9566 1.25205C25.1766 1.16405 25.4626 1.07605 25.8146 0.988048C25.9906 1.20805 26.0566 1.42805 26.0126 1.64805C26.0126 1.86805 26.1886 2.11005 26.5406 2.37405C26.4526 2.50605 26.4086 2.66005 26.4086 2.83605C26.4086 3.05605 26.4306 3.16605 26.4746 3.16605C26.4746 3.25405 26.4526 3.40805 26.4086 3.62805C26.3646 3.84805 26.3426 4.00205 26.3426 4.09005C26.3426 4.26605 26.3646 4.37605 26.4086 4.42005C26.4966 4.42005 26.5846 4.42005 26.6726 4.42005C26.1886 4.72805 25.7046 4.97005 25.2206 5.14605C24.7806 5.27805 24.4726 5.36605 24.2966 5.41005C23.7686 5.41005 23.2846 5.41005 22.8446 5.41005C22.4486 5.41005 22.0086 5.36605 21.5246 5.27805C20.8646 5.36605 20.4026 5.45405 20.1386 5.54205C19.9186 5.58605 19.7426 5.60805 19.6106 5.60805C19.3026 5.60805 19.0826 5.58605 18.9506 5.54205C18.8186 5.49805 18.6206 5.43205 18.3566 5.34405H15.9806L16.2446 8.90805L17.8286 12.868V24.154L18.2246 25.54V30.094L16.5086 30.622L11.1626 30.16L9.51263 30.49L8.72062 28.972L8.52263 25.21V15.97L9.64463 9.63405V5.34405Z" fill="black" fill-opacity="0.35"/>
<path d="M28.0973 5.87205C28.3173 5.21205 28.6473 4.70605 29.0873 4.35405C29.5273 3.95805 30.0773 3.62805 30.7373 3.36405C31.3973 3.05605 32.2113 2.77005 33.1793 2.50605C34.1473 2.24205 35.2253 1.91205 36.4133 1.51605C36.4573 1.38405 36.6993 1.31805 37.1393 1.31805C37.6233 1.31805 38.1293 1.31805 38.6573 1.31805C39.2293 1.31805 39.7353 1.29605 40.1753 1.25205C40.6593 1.16405 40.9233 1.01005 40.9673 0.790047C41.3633 0.878047 41.6933 0.944047 41.9573 0.988048C42.2213 1.03205 42.4633 1.05405 42.6833 1.05405C42.9473 1.05405 43.2113 1.05405 43.4753 1.05405C43.7833 1.05405 44.1573 1.05405 44.5973 1.05405H45.6533C45.7413 1.14205 45.8293 1.25205 45.9173 1.38405C46.0053 1.47205 46.0933 1.56005 46.1813 1.64805C46.3573 1.64805 46.5113 1.84605 46.6433 2.24205C46.7753 2.59405 46.9293 3.01205 47.1053 3.49605C47.2813 3.98005 47.4793 4.42005 47.6993 4.81605C47.9193 5.21205 48.2053 5.41005 48.5573 5.41005H48.6893C48.7333 5.49805 48.7553 5.78405 48.7553 6.26805C48.7993 6.70805 48.8433 7.19205 48.8873 7.72005C48.9753 8.20405 49.0633 8.66605 49.1513 9.10605C49.2393 9.54605 49.3493 9.81005 49.4813 9.89805C49.5253 11.086 49.5913 11.944 49.6793 12.472C49.8113 13 49.9213 13.418 50.0093 13.726C50.1413 13.99 50.2513 14.232 50.3393 14.452C50.4713 14.628 50.5593 14.892 50.6033 15.244C50.6033 15.244 50.6033 15.42 50.6033 15.772C50.6473 16.08 50.6913 16.432 50.7353 16.828C50.7793 17.18 50.8453 17.532 50.9333 17.884C51.0213 18.236 51.1313 18.412 51.2633 18.412C51.2193 18.412 51.1753 18.434 51.1313 18.478H50.9333C50.9773 19.49 50.9993 20.392 50.9993 21.184C51.0433 21.976 51.0653 22.746 51.0653 23.494C51.1093 24.198 51.1533 24.946 51.1973 25.738C51.2853 26.53 51.3513 27.432 51.3953 28.444C51.2193 28.796 51.0653 29.082 50.9333 29.302C50.8013 29.478 50.7133 29.676 50.6693 29.896H49.7453C49.3933 29.72 49.1513 29.522 49.0193 29.302C48.4473 29.302 47.9413 29.346 47.5013 29.434C47.0613 29.478 46.6653 29.544 46.3133 29.632C46.0053 29.72 45.6973 29.786 45.3893 29.83C45.0813 29.874 44.7513 29.896 44.3993 29.896C43.9593 29.896 43.4313 29.742 42.8153 29.434C42.1993 29.082 41.6053 28.906 41.0333 28.906C40.5053 28.906 40.0873 28.972 39.7793 29.104C39.5153 29.192 39.3173 29.324 39.1853 29.5C39.0973 29.632 39.0093 29.742 38.9213 29.83C38.8773 29.962 38.8113 30.028 38.7233 30.028H35.0273C34.4553 30.028 33.8833 30.006 33.3113 29.962C32.7393 29.962 32.1233 29.962 31.4633 29.962C30.8913 29.962 30.2313 29.808 29.4833 29.5C28.7353 29.148 28.0093 28.708 27.3053 28.18C26.6013 27.608 26.0073 26.992 25.5233 26.332C25.0393 25.628 24.7973 24.924 24.7973 24.22C24.7973 22.02 25.3033 20.172 26.3153 18.676C27.3713 17.18 28.9553 15.904 31.0673 14.848C31.9473 14.628 32.6513 14.408 33.1793 14.188C33.7073 13.968 34.1693 13.77 34.5653 13.594C35.0053 13.374 35.4233 13.22 35.8193 13.132C36.2153 13 36.6993 12.934 37.2713 12.934L39.2513 11.812C39.6473 11.812 39.9993 11.812 40.3073 11.812C40.6153 11.768 40.9233 11.724 41.2313 11.68L43.1453 11.548V11.152C43.1453 10.756 43.1673 10.338 43.2113 9.89805C43.2553 9.41405 43.3873 8.90805 43.6073 8.38005C43.6073 8.11605 43.5193 7.94005 43.3433 7.85205C43.1673 7.72005 43.0353 7.58805 42.9473 7.45605C42.7273 7.36805 42.5733 7.25805 42.4853 7.12605C42.4413 6.95005 42.3973 6.77405 42.3533 6.59805C42.3093 6.42205 42.1993 6.26805 42.0233 6.13605C41.8913 6.00405 41.6493 5.93805 41.2973 5.93805C40.6373 5.93805 39.7793 6.04805 38.7233 6.26805C37.7113 6.48805 36.6553 6.75205 35.5553 7.06005C34.4993 7.36805 33.5093 7.67605 32.5853 7.98405C31.7053 8.24805 31.0453 8.42405 30.6053 8.51205C30.4733 8.51205 30.3193 8.38005 30.1433 8.11605C29.9673 7.85205 29.7693 7.54405 29.5493 7.19205C29.3733 6.84005 29.1533 6.53205 28.8893 6.26805C28.6693 6.00405 28.4053 5.87205 28.0973 5.87205ZM42.4193 16.96C42.0233 16.872 41.5833 16.762 41.0993 16.63C40.6593 16.498 40.2193 16.366 39.7793 16.234H39.5153C39.1633 16.234 38.7893 16.278 38.3933 16.366C38.0413 16.454 37.6453 16.564 37.2053 16.696C36.3253 16.916 35.4893 17.114 34.6973 17.29C33.9053 17.466 33.2013 17.752 32.5853 18.148C32.0133 18.5 31.5513 19.028 31.1993 19.732C30.8913 20.436 30.7373 21.404 30.7373 22.636C30.7373 23.252 30.8253 23.714 31.0013 24.022C31.2213 24.33 31.4853 24.748 31.7933 25.276L36.4133 25.012C37.1173 24.968 37.8433 24.924 38.5913 24.88C39.3393 24.836 40.1533 24.77 41.0333 24.682H41.9573V24.154C41.9573 23.802 41.9793 23.252 42.0233 22.504C42.0673 21.756 42.1993 21.03 42.4193 20.326V16.96Z" fill="black" fill-opacity="0.35"/>
<path d="M87.5819 22.108L86.9879 23.032H80.6519L78.9359 22.306V19.006L78.0779 12.142L77.6819 10.954L74.8439 10.69L74.7119 12.142V17.422L75.3719 21.976L73.9199 23.098H68.5079L67.8479 22.504V13.462L67.5839 10.954L66.7919 9.83205H63.4919V23.098L62.0399 23.428H58.5419L57.6179 23.89L54.1859 23.626V12.01L54.7139 6.40005L56.0339 3.89205L59.0039 4.61805L60.4559 4.42005L62.1059 5.54205L62.4359 6.13605L63.2279 6.33405L67.1219 4.94805L70.6859 5.21205L73.8539 7.12605L75.4379 6.86205L76.2299 6.40005L78.2759 6.20205L84.7439 6.33405C85.4039 6.64205 85.9319 7.12605 86.3279 7.78605C86.7239 8.44605 87.0759 9.12805 87.3839 9.83205L87.5819 22.108Z" fill="black" fill-opacity="0.35"/>
<path d="M110.006 13.198V22.24L109.412 23.032H105.452L103.868 21.976L104.066 21.514L103.406 20.854L102.548 21.25L99.9084 23.89L98.5884 24.55L96.2784 24.286L96.0144 24.748L94.5624 25.21L92.7144 24.022L91.1304 23.494L89.6784 19.864L90.4044 12.67L89.2824 10.426L89.8104 6.13605L90.8664 5.80605H95.8164L96.9384 9.23805V16.498L97.4664 17.29L97.7304 18.28L98.4564 18.544L101.822 17.422H102.944L103.736 16.894V6.13605L104.726 5.60805L108.026 6.33405L110.006 13.198Z" fill="black" fill-opacity="0.35"/>
<path d="M131.534 18.742C131.534 19.314 131.556 19.82 131.6 20.26C131.688 20.7 131.732 21.118 131.732 21.514C131.732 22.13 131.512 22.702 131.072 23.23C130.676 23.714 130.236 24.088 129.752 24.352L128.366 25.012C128.014 25.012 127.706 25.1 127.442 25.276C127.178 25.408 126.892 25.584 126.584 25.804C126.276 25.98 125.858 26.156 125.33 26.332C124.846 26.508 124.186 26.596 123.35 26.596C122.778 26.596 122.228 26.53 121.7 26.398C121.172 26.266 120.6 26.2 119.984 26.2C118.972 26.2 118.048 26.288 117.212 26.464C116.376 26.64 115.54 26.772 114.704 26.86C114.66 26.86 114.44 26.772 114.044 26.596C113.692 26.376 113.516 26.222 113.516 26.134C113.516 26.134 113.56 26.112 113.648 26.068C113.604 26.068 113.582 26.068 113.582 26.068C113.582 25.936 113.604 25.826 113.648 25.738C113.692 25.65 113.736 25.584 113.78 25.54H113.714C113.494 25.54 113.406 25.298 113.45 24.814C113.494 24.286 113.384 23.714 113.12 23.098C113.076 23.054 113.208 23.098 113.516 23.23C113.868 23.362 114.154 23.428 114.374 23.428C114.594 23.428 114.748 23.362 114.836 23.23C115.76 23.362 116.376 23.428 116.684 23.428C117.08 23.428 117.476 23.362 117.872 23.23C118.312 23.098 119.038 22.878 120.05 22.57C120.05 22.614 120.204 22.614 120.512 22.57C120.82 22.526 121.15 22.438 121.502 22.306C121.898 22.13 122.228 21.932 122.492 21.712C122.8 21.448 122.954 21.118 122.954 20.722C122.954 20.414 122.888 20.084 122.756 19.732L122.228 19.204C121.92 18.896 121.766 18.654 121.766 18.478C121.194 18.214 120.864 18.038 120.776 17.95C120.688 17.818 120.622 17.708 120.578 17.62C120.578 17.488 120.49 17.356 120.314 17.224C120.182 17.048 119.808 16.85 119.192 16.63C118.752 16.586 118.378 16.476 118.07 16.3C117.806 16.08 117.542 15.86 117.278 15.64C117.014 15.376 116.728 15.134 116.42 14.914C116.112 14.694 115.738 14.496 115.298 14.32L114.704 13.792C114.484 13.704 114.242 13.44 113.978 13C113.758 12.516 113.648 12.076 113.648 11.68C113.736 11.592 113.802 11.438 113.846 11.218C113.89 10.998 113.912 10.8 113.912 10.624C113.912 10.404 113.89 10.272 113.846 10.228C113.802 10.184 113.78 10.118 113.78 10.03C113.78 9.72205 113.868 9.45805 114.044 9.23805C114.264 9.01805 114.374 8.71005 114.374 8.31405C114.858 7.96205 115.21 7.58805 115.43 7.19205C115.87 6.66405 116.42 6.24605 117.08 5.93805C117.784 5.63005 118.422 5.30005 118.994 4.94805L121.502 3.89205C122.03 3.67205 122.514 3.54005 122.954 3.49605C123.394 3.40805 123.9 3.25405 124.472 3.03405C124.516 3.07805 124.582 3.12205 124.67 3.16605C124.802 3.16605 125.022 3.16605 125.33 3.16605C125.858 3.16605 126.298 3.16605 126.65 3.16605C127.046 3.12205 127.508 3.05605 128.036 2.96805C128.256 3.18805 128.52 3.36405 128.828 3.49605C129.18 3.58405 129.356 3.95805 129.356 4.61805V5.01405C129.356 5.10205 129.356 5.19005 129.356 5.27805C129.4 5.36605 129.422 5.47605 129.422 5.60805C129.378 5.60805 129.356 5.63005 129.356 5.67405C129.356 5.71805 129.334 5.74005 129.29 5.74005C129.29 5.78405 129.312 5.80605 129.356 5.80605C129.18 5.85005 129.026 5.89405 128.894 5.93805C128.762 5.93805 128.63 5.93805 128.498 5.93805H127.574C127.354 6.07005 127.178 6.18005 127.046 6.26805C126.914 6.31205 126.738 6.33405 126.518 6.33405C125.594 6.59805 125.066 6.77405 124.934 6.86205C124.802 6.95005 124.736 7.03805 124.736 7.12605C124.56 7.39005 124.362 7.56605 124.142 7.65405C123.922 7.74205 123.746 7.78605 123.614 7.78605H123.482C122.646 8.22605 122.14 8.60005 121.964 8.90805C121.832 9.21605 121.766 9.67805 121.766 10.294C121.766 10.954 121.832 11.394 121.964 11.614C122.14 11.79 122.316 11.878 122.492 11.878L123.68 13C123.724 13.176 123.856 13.374 124.076 13.594C124.34 13.814 124.758 14.056 125.33 14.32L126.254 14.782C126.386 14.826 126.65 14.98 127.046 15.244C127.486 15.464 127.75 15.574 127.838 15.574C128.146 15.706 128.366 15.838 128.498 15.97C128.674 16.102 128.828 16.212 128.96 16.3C129.136 16.344 129.334 16.432 129.554 16.564C129.774 16.652 130.082 16.762 130.478 16.894C130.478 17.29 130.632 17.598 130.94 17.818C131.248 18.038 131.446 18.346 131.534 18.742Z" fill="black" fill-opacity="0.35"/>
<path d="M146.44 3.49605L145.78 8.44605L144.856 9.10605L141.754 8.51205L137.794 9.17205L137.596 8.38005V2.11005L139.18 1.58205L141.292 2.04405L144.196 2.57205L146.44 3.49605ZM146.902 25.474L146.506 27.982L146.836 29.566L145.582 30.16H140.5L139.708 30.424H138.52L137.86 29.698L139.246 13.726L140.368 13.198L143.008 13.396L143.536 13.132L144.922 13.198L145.714 14.056V18.61L146.176 20.26V23.362L145.78 24.55L146.902 25.474Z" fill="black" fill-opacity="0.35"/>
</g>
</svg>