<svg width="81" height="81" viewBox="0 0 81 81" fill="none" xmlns="http://www.w3.org/2000/svg">
<g style="mix-blend-mode:plus-darker">
<path d="M45.3147 22.1183C45.3147 22.3977 45.0702 22.5374 44.721 22.4675C44.0575 22.2929 42.4861 23.5501 41.2289 25.2961L40.4956 26.3438L39.7622 25.4009C38.0511 23.2358 35.1177 22.8866 33.8256 24.7374C33.4764 25.2263 33.0923 26.3787 32.9875 27.2866C32.8129 28.6486 32.9177 29.1025 33.651 30.2549C34.1748 30.9883 34.8383 31.8264 35.1526 32.1058C36.1304 33.0486 38.1209 34.0963 38.6797 33.9566C39.0987 33.8518 39.2384 34.1312 39.2035 34.9693C39.2035 35.5979 39.3083 36.436 39.4829 36.855C39.8321 37.6931 41.1242 38.6011 41.1242 38.0074C41.1242 37.7979 41.3337 37.6931 41.6131 37.7979C41.8575 37.9027 42.521 37.5185 43.0797 36.9598C43.6036 36.4011 43.9178 35.9471 43.7083 35.9471C43.5337 35.9122 43.7782 35.5979 44.2321 35.2137C44.6861 34.8296 44.9655 34.4455 44.8258 34.3058C44.721 34.201 44.9306 33.8867 45.3147 33.6074C45.6988 33.328 46.0131 32.9788 46.0131 32.7693C46.0131 32.5947 46.8861 31.5819 47.9687 30.5343C49.5751 28.9978 49.8544 28.5438 49.5402 28.1247C49.2259 27.7406 49.2608 27.6009 49.6449 27.4612C49.9243 27.3565 50.2386 27.4263 50.3084 27.6708C50.5529 28.3692 51.0068 25.5406 50.7624 24.6326C50.483 23.4453 48.5973 22.1183 46.8163 21.8389C45.629 21.6643 45.3147 21.7342 45.3147 22.1183ZM48.1433 24.5279C49.0862 25.2263 48.8417 26.693 47.5846 28.02C46.9211 28.7184 46.502 29.347 46.6068 29.4517C46.7465 29.5565 46.5719 29.6613 46.2576 29.6613C45.7337 29.6613 45.4893 30.0454 45.629 30.7788C45.629 30.9534 45.5591 31.0232 45.4195 30.9883C44.2671 30.7788 42.3813 33.2582 42.4512 34.9344C42.4861 36.0518 41.9273 36.2963 41.5781 35.3185C41.2988 34.6201 40.8797 34.0963 39.9019 33.1185C38.4701 31.7216 38.086 31.4073 37.7019 31.4073C37.4574 31.4073 37.2828 31.2676 37.2828 31.128C37.2828 30.9534 36.7939 30.4994 36.2003 30.0454C35.3622 29.4168 35.0479 29.347 34.6288 29.6962C34.2098 30.0454 34.1748 30.0105 34.3495 29.5216C34.4542 29.2073 34.6987 28.9629 34.8383 28.9629C34.978 28.9629 35.1177 28.7533 35.0828 28.5089C35.013 26.693 35.2574 26.2041 36.305 25.6803C37.4225 25.1215 38.54 24.912 37.7368 25.4009C37.2828 25.6803 39.5178 28.5089 40.0765 28.3343C40.286 28.2993 40.4257 28.3692 40.3908 28.5089C40.3559 28.6835 40.4607 29.1375 40.6003 29.5565C41.0892 31.128 42.521 30.22 42.521 28.3692C42.521 26.693 44.9655 24.0739 46.502 24.0739C47.0957 24.0739 47.829 24.2834 48.1433 24.5279ZM44.7909 32.455C44.8956 32.6296 44.756 32.8042 44.4766 32.8042C44.1623 32.8042 43.9178 32.6296 43.9178 32.455C43.9178 32.2454 44.0575 32.1058 44.2321 32.1058C44.4417 32.1058 44.6861 32.2454 44.7909 32.455ZM44.0925 34.201C44.1972 34.3756 44.1274 34.5502 43.9528 34.5502C43.7432 34.5502 43.5686 34.3756 43.5686 34.201C43.5686 33.9915 43.6385 33.8518 43.7083 33.8518C43.8131 33.8518 43.9877 33.9915 44.0925 34.201ZM41.8226 36.9947C41.8226 37.1693 41.6829 37.3439 41.4734 37.3439C41.2988 37.3439 41.1242 37.1693 41.1242 36.9947C41.1242 36.7852 41.2988 36.6455 41.4734 36.6455C41.6829 36.6455 41.8226 36.7852 41.8226 36.9947Z" fill="black" fill-opacity="0.6"/>
</g>
<g style="mix-blend-mode:plus-darker">
<path fill-rule="evenodd" clip-rule="evenodd" d="M15.9809 32.2803C15.8063 32.1756 15.6317 31.9311 15.6317 31.7216C15.6317 31.547 16.1556 31.4073 16.8191 31.4073C17.9365 31.4073 18.0064 31.4771 17.7619 32.3502C17.6222 32.8391 17.6222 34.0264 17.727 34.9343C17.8667 35.982 17.7968 36.7852 17.5873 36.9947C17.3079 37.2741 17.3778 37.309 17.7968 37.1693C18.2508 36.9947 18.5302 37.2391 18.9143 38.182C19.1937 38.8804 19.4032 39.509 19.3683 39.6138C19.3334 39.7185 19.6477 40.0328 20.1016 40.3122C20.5207 40.6265 21.1144 41.29 21.3588 41.8138C21.6382 42.3376 22.5112 43.4551 23.2795 44.3281C24.0827 45.2012 24.5366 45.9345 24.362 46.0044C24.1525 46.0742 24.0128 46.2837 24.0128 46.4583C24.0128 46.598 24.2223 46.6679 24.4668 46.598C25.0255 46.3536 28.4129 49.6362 29.251 51.2425C29.6351 51.9409 29.9494 52.3949 29.9494 52.2552C29.9494 51.9409 31.905 53.233 32.8129 54.141C33.1971 54.5251 33.2669 54.8045 33.0225 54.8743C32.8129 54.9442 32.6034 55.3283 32.5336 55.7124C32.4288 56.341 32.4637 56.341 32.9177 55.7474C33.3368 55.1537 33.4415 55.1886 34.6288 56.2013C35.9558 57.3887 36.3051 58.7506 35.3273 59.1347C34.4542 59.4839 34.0352 58.995 34.7336 58.4014C35.3273 57.9125 35.3273 57.9125 34.6638 58.122C33.3368 58.576 32.7431 58.4363 32.7431 57.668C32.7431 57.3537 31.9399 56.3759 30.997 55.5029C30.0193 54.6299 29.251 53.7569 29.251 53.5473C29.251 53.3029 28.9716 53.1632 28.6573 53.1981C28.2732 53.1981 28.0287 52.9886 28.0637 52.6394C28.0986 52.2902 27.7843 51.9759 27.2605 51.8362C26.6668 51.6965 26.4573 51.4521 26.597 51.1028C26.7017 50.8235 26.6668 50.6489 26.5271 50.7536C26.2128 50.9282 25.0604 49.7758 25.0604 49.2869C25.0604 49.1473 24.7462 48.833 24.362 48.5885C23.943 48.3441 23.7334 47.9949 23.8382 47.8203C23.943 47.6107 23.8382 47.471 23.5938 47.471C23.0699 47.4361 19.2635 42.7218 19.3683 42.2329C19.4381 42.0583 19.1937 41.8487 18.8445 41.744C18.1461 41.4995 16.3302 38.4265 16.3302 37.4137C16.3302 37.0296 16.1556 36.6455 15.9809 36.5756C15.4222 36.401 15.3174 33.5375 15.8413 32.9788C16.1556 32.6645 16.1905 32.42 15.9809 32.2803ZM16.5048 35.9471C16.8191 35.9471 16.9587 35.7725 16.854 35.5978C16.7492 35.3883 16.5746 35.2486 16.5048 35.2486C16.4349 35.2486 16.2603 35.3883 16.1556 35.5978C16.0508 35.7725 16.1905 35.9471 16.5048 35.9471ZM20.4858 43.071C20.6604 43.2107 20.9048 43.1408 21.0096 42.9662C21.1493 42.7916 21.0794 42.5472 20.9048 42.4424C20.7302 42.3027 20.4858 42.3726 20.381 42.5472C20.2413 42.7218 20.3112 42.9662 20.4858 43.071ZM23.0001 46.4234C23.1747 46.4234 23.2445 46.2488 23.1398 46.0742C23.035 45.8647 22.8604 45.725 22.7557 45.725C22.6858 45.725 22.616 45.8647 22.616 46.0742C22.616 46.2488 22.7906 46.4234 23.0001 46.4234ZM17.0277 29.1375C17.0277 28.893 17.2373 28.5787 17.4817 28.474C17.796 28.3692 19.9262 28.4041 20.7992 28.5787C20.8691 28.6136 20.8341 28.7533 20.6944 28.9279C20.5897 29.1025 20.6595 29.3819 20.8691 29.4867C21.0786 29.6264 21.1833 30.22 21.1484 30.8137C21.0786 31.4423 21.1833 31.9661 21.323 32.001C21.4976 32.0359 21.8468 32.3502 22.0913 32.6645C22.4754 33.1883 22.4405 33.4328 22.0215 34.0963C21.7072 34.5502 21.6373 34.8995 21.8468 34.8995C22.0564 34.8995 22.2659 34.6201 22.3357 34.3058C22.4405 33.782 22.5103 33.782 23.0691 34.3756C23.4183 34.6899 23.6278 35.2137 23.4881 35.528C23.3135 35.982 23.3834 35.982 23.9072 35.563C24.2215 35.2836 24.3961 35.2487 24.2564 35.4931C24.1167 35.7026 24.1516 35.982 24.3612 36.1217C24.5707 36.2614 24.6405 36.5058 24.5009 36.6804C24.3961 36.855 24.8501 37.2392 25.5136 37.5185C26.1771 37.7979 26.8056 38.2519 26.9104 38.5662C27.0501 38.8455 27.5041 39.09 27.9231 39.09C28.6215 39.0551 28.6565 39.0202 28.1327 38.7059C26.8056 37.9376 27.7485 36.4011 29.7041 36.0519C31.3105 35.8074 34.8026 37.9725 35.6756 39.8233C36.0598 40.5916 36.4788 41.1853 36.6534 41.1853C36.7931 41.1853 36.9328 41.4646 36.9328 41.8138C36.9328 42.1631 37.1423 42.652 37.3868 42.8964C37.736 43.2805 37.6312 43.3155 36.9328 43.1059C36.1645 42.8615 36.1296 42.8964 36.5487 43.3853C36.7931 43.6996 37.1423 43.8742 37.3169 43.7694C37.4915 43.6647 37.6312 43.7345 37.6312 43.944C37.6312 44.1186 37.4566 44.398 37.282 44.5028C36.6534 44.8869 36.9328 45.306 37.6661 45.1314C38.3296 44.9567 38.3995 45.0266 38.2598 45.8298C38.155 46.3536 38.2249 46.7726 38.3995 46.7726C38.5741 46.7726 38.6788 47.4012 38.6439 48.1695C38.5741 48.9028 38.6439 49.6362 38.7836 49.7759C39.1328 50.1251 39.0979 50.6838 38.7487 50.4743C38.5741 50.3695 38.4344 50.5092 38.4344 50.7886C38.4344 51.068 38.609 51.2426 38.7836 51.2076C38.9582 51.1727 39.1677 51.6616 39.2376 52.2902C39.2725 53.0235 39.1677 53.4077 38.8884 53.4077C38.5741 53.4077 38.4693 53.722 38.609 54.2807C38.7138 54.9442 38.6439 55.1188 38.2598 54.9791C37.9106 54.8394 37.7709 54.3505 37.8407 53.5124C37.8757 52.7442 37.736 52.0807 37.4915 51.8711C36.9328 51.4172 36.409 49.0774 36.9328 49.3917C37.1423 49.4965 37.282 49.4616 37.282 49.2521C37.282 49.0774 37.0725 48.833 36.8629 48.7632C36.5137 48.6235 36.5137 48.4838 36.9328 48.2044C37.2122 48.0298 37.5264 47.925 37.6661 48.0298C37.8058 48.0997 38.0153 48.0298 38.1201 47.8552C38.2249 47.6806 37.9106 47.4362 37.3518 47.2965C36.4439 47.0869 36.4439 47.052 37.0725 46.5631C37.6661 46.1441 37.7011 46.0742 37.1772 46.0742C36.828 46.0742 36.3042 45.4456 35.8153 44.4329C35.3963 43.4901 34.9074 42.652 34.6978 42.5123C34.4883 42.3726 34.5232 42.0583 34.8375 41.7091C35.2566 41.1853 35.2566 41.1503 34.628 41.2551C34.174 41.3249 33.9645 41.1853 33.9994 40.7662C34.0343 40.417 33.9645 40.2075 33.8248 40.3122C33.4756 40.4868 32.3581 39.1948 32.4978 38.7059C32.5327 38.4963 31.9041 38.2519 31.101 38.182C30.2628 38.1122 29.5993 38.1471 29.5993 38.2519C29.5993 38.3566 30.0184 39.1249 30.5073 39.9979C31.2756 41.29 31.3105 41.5345 30.8216 41.5345C30.5073 41.5345 30.3676 41.7091 30.4724 41.8837C30.6121 42.0932 30.8216 42.1631 30.9962 42.0583C31.1359 41.9535 31.4851 42.1631 31.7295 42.4773C32.1486 43.0012 32.1486 43.0361 31.52 42.8266C30.8565 42.5821 30.8565 42.617 31.4502 43.071C32.2533 43.6647 32.0787 44.8869 31.2406 44.8171C29.5644 44.6774 25.4786 40.8361 26.9803 40.8361C27.2596 40.8361 27.5041 40.5916 27.5041 40.3122C27.5041 39.9281 27.2596 39.8233 26.666 39.9281C26.1421 40.0329 25.4088 39.7535 24.6755 39.2297C23.3135 38.217 22.9643 37.7281 23.2088 37.0995C23.3135 36.8201 23.2437 36.6455 23.0342 36.7154C22.5802 36.855 20.4849 34.5502 20.6944 34.201C20.7992 34.0264 20.6595 33.8518 20.3802 33.7471C19.7865 33.5026 19.7167 31.4073 20.3103 31.1978C20.5548 31.093 20.7643 30.7788 20.7643 30.4645C20.7643 30.0454 20.5897 30.1153 20.1008 30.7089C19.6119 31.3026 19.3325 31.4073 19.1579 31.128C19.0182 30.8835 18.3547 30.7438 17.6912 30.7788C16.8182 30.8486 16.5039 30.7438 16.5039 30.3597C16.5039 30.0454 16.7833 29.8708 17.2023 29.9057C17.5865 29.9406 17.6912 29.9057 17.4817 29.801C17.2373 29.6962 17.0277 29.3819 17.0277 29.1375ZM18.9135 29.4168C19.2627 29.5565 19.3674 29.4518 19.2278 29.1025C19.0182 28.474 18.9484 28.474 18.4246 29.1375C18.1801 29.4518 18.0754 29.766 18.215 29.9057C18.3198 30.0105 18.4246 29.9406 18.4246 29.6962C18.4246 29.4518 18.669 29.3121 18.9135 29.4168ZM32.1486 37.2043C32.0438 37.0646 31.4502 36.9947 30.8216 37.0995C30.193 37.2043 29.4946 37.1344 29.2851 36.9598C29.0057 36.7503 29.0057 36.7852 29.2501 37.0646C29.6692 37.5535 32.428 37.6931 32.1486 37.2043ZM29.4597 40.4868C29.9136 40.4868 29.9486 40.3821 29.5993 39.963C29.3549 39.6837 28.9708 39.4392 28.7612 39.4741C28.5168 39.4741 28.5517 39.544 28.8311 39.6837C29.0406 39.7535 29.1803 39.9979 29.0406 40.1726C28.9358 40.3472 29.1104 40.4868 29.4597 40.4868ZM27.3295 41.5345C27.0501 41.9885 27.5041 41.9885 28.2025 41.5345C28.6565 41.2551 28.6565 41.1853 28.1327 41.1853C27.8184 41.1853 27.4342 41.3249 27.3295 41.5345Z" fill="black" fill-opacity="0.6"/>
</g>
<g style="mix-blend-mode:plus-darker">
<path fill-rule="evenodd" clip-rule="evenodd" d="M63.5777 36.9598C63.438 36.5407 63.6475 36.3312 64.2412 36.2264C64.6603 36.1566 65.0793 36.1217 65.1492 36.1566C65.3587 36.2614 64.765 37.3439 64.4507 37.3439C64.2761 37.3439 64.2412 37.4836 64.346 37.6931C64.5555 38.0423 63.9968 40.5916 63.438 41.6043C63.2634 41.9535 63.1237 42.4075 63.1237 42.617C63.1237 42.8615 62.7396 43.5599 62.2507 44.1885C61.7618 44.817 61.3777 45.4456 61.3777 45.5853C61.3777 45.725 60.8538 46.4583 60.2253 47.2615C59.5967 48.0647 58.4094 49.706 57.6062 50.9282C56.803 52.1505 56.1395 52.9886 56.1395 52.8489C56.1395 52.6743 55.8601 53.0934 55.5109 53.7569C55.022 54.7347 54.7077 54.9791 53.8696 54.9791C53.0315 54.9791 52.7871 55.1537 52.7172 55.8521C52.6125 56.5506 52.6823 56.6204 53.0664 56.2712C53.8347 55.6426 54.149 56.2013 53.4506 56.9696C52.8569 57.6331 51.7394 57.8776 52.1236 57.249C52.2283 57.0744 52.1236 57.0045 51.8442 57.1093C51.5648 57.2141 51.2156 57.1093 51.0759 56.8998C50.7616 56.3759 52.9267 54.1061 53.5204 54.3156C54.0093 54.5251 54.9522 53.5124 54.603 53.1632C54.4633 53.0235 54.2188 53.1283 54.0442 53.4076C53.8696 53.687 53.6601 53.8267 53.5553 53.7219C53.4506 53.6521 53.5204 53.3378 53.695 53.0584C53.9744 52.6394 54.149 52.6045 54.7426 52.9886C55.3363 53.3378 55.4411 53.3378 55.4411 52.9188C55.4411 52.6394 55.6506 52.1854 55.895 51.941C56.1395 51.6965 56.4538 51.2076 56.5935 50.8584C56.7332 50.5092 56.9776 50.3346 57.1871 50.4393C57.3617 50.5441 57.5363 50.3346 57.5363 49.9505C57.5363 49.5314 57.3967 49.2171 57.1871 49.2171C56.6982 49.2171 56.7332 48.2742 57.257 47.9599C57.5014 47.8203 57.5363 47.8552 57.3967 48.0996C57.222 48.379 57.3967 48.5187 57.8506 48.5187C58.6538 48.5187 58.6887 48.4838 58.3744 47.6806C58.2697 47.3663 58.0252 47.1917 57.8855 47.2964C57.7109 47.4012 57.676 47.1568 57.7808 46.8075C58.0602 45.7599 59.1776 44.9218 59.9808 45.1313C60.4348 45.2361 60.6792 45.1313 60.6792 44.7821C60.6792 44.4678 60.4697 44.3281 60.1554 44.4678C59.8761 44.5726 59.6316 44.5027 59.6316 44.3281C59.6316 43.9789 60.2951 43.49 60.9586 43.4202C61.5872 43.3154 61.9713 42.9313 61.4475 42.9313C60.9237 42.9313 61.3427 40.3821 61.9713 40.0328C62.2158 39.8932 62.4253 39.4392 62.4253 39.09C62.4253 38.7058 62.7047 38.2169 63.0888 38.0074C63.438 37.763 63.6475 37.309 63.5777 36.9598ZM62.0761 42.4075C62.2856 42.3027 62.4253 42.1281 62.4253 42.0233C62.4253 41.9535 62.2856 41.8837 62.0761 41.8837C61.9015 41.8837 61.7269 42.0583 61.7269 42.2678C61.7269 42.4424 61.9015 42.5122 62.0761 42.4075ZM59.7712 31.3025C59.7014 30.8835 59.8062 29.6961 60.0506 28.6834C60.3649 27.1469 60.5744 26.8675 61.2379 26.8675C62.4252 26.8675 63.8221 27.4961 63.8221 28.0199C63.8221 28.2993 64.1364 28.7882 64.5205 29.1374C64.9046 29.4866 65.2189 30.185 65.2189 30.6739C65.184 31.1628 65.2888 32.0009 65.4285 32.5248C65.5681 33.1533 65.4983 33.5026 65.2539 33.5026C65.0094 33.5026 64.9745 33.9216 65.1142 34.62C65.2888 35.528 65.2539 35.6677 64.765 35.4931C64.4507 35.3883 64.1015 35.4232 63.9967 35.5978C63.6824 36.1216 63.1237 36.0169 63.1237 35.4232C63.1237 35.1788 63.403 34.7597 63.7522 34.5851C64.035 34.4084 64.1746 34.3211 64.1622 34.2735C64.1501 34.227 63.9929 34.2182 63.6824 34.201C63.1237 34.201 63.0538 33.9915 63.2284 32.7343C63.4729 30.9882 62.7046 29.2073 61.8665 29.5565C61.5522 29.6612 61.4824 29.8358 61.657 29.9755C61.9014 30.1152 61.9014 30.639 61.6221 31.4771C61.2379 32.6644 61.1332 32.7343 60.0506 32.5946C59.2125 32.4898 58.9331 32.5946 59.0379 32.874C59.1077 33.1184 59.422 33.293 59.7712 33.2232C60.0855 33.1533 60.33 33.3629 60.33 33.6772C60.33 33.9565 60.1903 34.201 60.0506 34.201C59.876 34.201 59.3871 34.9692 58.9331 35.947C58.4792 36.8899 57.9553 37.5534 57.7807 37.4486C57.5712 37.3439 57.5363 37.3788 57.641 37.5883C58.0252 38.182 57.0823 39.7534 55.9998 40.2773C55.3712 40.5916 55.1616 40.836 55.441 41.0106C55.7204 41.1852 55.5807 41.5344 54.987 42.1979C54.5331 42.6868 54.0442 43.5249 53.9045 44.0487C53.7997 44.6075 53.5203 45.0265 53.3457 45.0265C53.1362 45.0265 52.9965 45.2361 52.9965 45.4805C52.9965 45.8996 50.9711 47.017 50.4822 46.8424C50.3076 46.8075 50.2028 46.9123 50.2028 47.1218C50.2028 47.2964 49.9584 47.3663 49.6441 47.2266C49.1901 47.052 49.1203 46.7028 49.3298 45.4456C49.6441 43.2106 50.0981 42.2328 50.7267 42.2328C51.0409 42.2328 51.1806 42.0582 51.0759 41.8836C50.9362 41.6741 50.6568 41.6043 50.4473 41.744C50.2028 41.8487 50.3076 41.709 50.6568 41.4297C51.2505 40.9408 51.2505 40.8709 50.6917 40.3471C50.2378 39.8582 50.0282 39.8582 49.5743 40.2074C49.0854 40.6265 49.0854 40.6614 49.6092 40.7662C50.4124 40.9408 49.9235 41.8836 49.0155 41.8836C48.4568 41.8836 48.3869 41.9535 48.7711 42.1979C49.1552 42.4424 49.0504 42.8265 48.1425 44.1186C46.7107 46.2837 45.5234 48.9028 45.6282 49.6711C45.6631 50.0203 45.5234 50.5092 45.3139 50.7885C45.0345 51.1028 45.0345 51.3123 45.3139 51.487C45.5932 51.6616 45.5932 51.8711 45.279 52.2203C44.9647 52.6044 44.9647 52.7092 45.279 52.7092C45.5932 52.7092 45.5932 52.8838 45.3139 53.4076C45.0345 53.9314 45.0345 54.106 45.3837 54.106C45.698 54.106 45.698 54.2108 45.4186 54.4902C44.5805 55.3283 44.2662 54.4203 44.371 51.4171C44.4758 49.3218 44.6504 48.344 44.9297 48.2393C45.3139 48.0996 45.279 48.0298 44.9297 47.7853C44.5456 47.5409 44.5805 47.471 45.0694 47.471C45.3837 47.471 45.6631 47.2964 45.6631 47.0869C45.6631 46.9123 45.4885 46.8424 45.279 46.9821C44.9996 47.1218 44.9647 46.9472 45.1393 46.3885C45.4536 45.4456 46.1869 44.6075 46.4663 44.8869C46.571 44.9916 46.571 44.7821 46.4663 44.363C46.3615 43.944 46.4314 43.6297 46.606 43.6297C46.7806 43.6297 46.9552 43.4202 46.9552 43.1757C46.9552 42.2678 49.6441 38.1122 50.587 37.5534C51.46 37.0296 51.5648 37.0296 51.3902 37.5185C51.2156 37.9026 51.3203 38.0074 51.7044 37.8328C52.6473 37.4836 53.2061 38.0772 52.4727 38.636C51.8441 39.055 51.8441 39.0899 52.5775 39.0899C53.3108 39.0899 53.695 39.7534 52.9965 39.8233C52.8874 39.8451 52.7101 39.8669 52.5327 39.8888C52.4263 39.9019 52.3199 39.915 52.2283 39.9281C52.0187 39.9281 51.7743 40.1027 51.7044 40.3122C51.5298 40.8709 53.6251 40.8011 53.8346 40.2423C53.9394 39.963 54.1839 39.8582 54.3934 39.963C54.568 40.0677 54.7426 39.8582 54.7426 39.4741C54.7426 38.9852 54.9172 38.8106 55.2664 38.9503C55.5458 39.0899 55.7902 39.0201 55.7902 38.8106C55.7902 38.601 55.5807 38.3915 55.3712 38.3217C55.0918 38.2169 55.2315 37.9725 55.7553 37.728C56.4188 37.3439 56.6283 37.3439 56.9077 37.728C57.1871 38.1122 57.222 38.1122 57.0823 37.6931C57.0125 37.4137 56.6982 37.2042 56.3839 37.2042C55.9299 37.2391 55.895 37.1344 56.1744 36.6105C56.349 36.2264 56.8728 35.9121 57.2918 35.9121C57.8855 35.8772 57.9204 35.8423 57.4664 35.7026C56.8029 35.528 56.5934 34.8994 57.1871 34.8994C57.3966 34.8994 57.5363 34.7248 57.5363 34.5502C57.5363 33.8518 59.1077 31.7565 59.5268 31.8962C59.7712 32.0009 59.876 31.7914 59.7712 31.3025ZM63.9967 29.9057C64.2761 29.9057 64.4158 29.766 64.311 29.5914C64.2062 29.4517 64.0665 29.312 63.9967 29.312C63.9269 29.312 63.7872 29.4517 63.6824 29.5914C63.5776 29.766 63.7173 29.9057 63.9967 29.9057ZM60.4347 31.2676C60.784 31.3724 61.1681 31.4073 61.2728 31.2676C61.6919 30.8485 60.8887 30.3597 60.33 30.7089C59.9109 30.9882 59.9109 31.0581 60.4347 31.2676ZM50.8663 39.055C51.0409 39.3344 51.2505 39.3693 51.3902 39.1598C51.4949 38.9852 51.3552 38.7407 51.0759 38.601C50.5521 38.4264 49.9933 38.9852 50.3425 39.3344C50.4473 39.4741 50.5521 39.3344 50.5521 39.055C50.5521 38.636 50.6219 38.636 50.8663 39.055ZM52.5076 43.9789C52.5775 43.9789 52.6473 43.8043 52.6473 43.6297C52.6473 43.4202 52.4727 43.2805 52.2632 43.2805C52.0886 43.2805 52.0187 43.4202 52.1235 43.6297C52.2283 43.8043 52.4029 43.9789 52.5076 43.9789ZM50.9013 45.9345C50.9013 45.6551 51.0759 45.3758 51.3203 45.3059C51.5298 45.2361 51.6346 44.9916 51.5648 44.7821C51.3552 44.2932 50.5521 44.6424 50.5521 45.2361C50.5521 45.5154 50.4124 45.725 50.2028 45.725C50.0282 45.725 49.8536 45.8646 49.8536 46.0742C49.8536 46.2488 50.0981 46.4234 50.3774 46.4234C50.6568 46.4234 50.9013 46.2139 50.9013 45.9345Z" fill="black" fill-opacity="0.6"/>
</g>
</svg>
