<svg width="96" height="23" viewBox="0 0 96 23" fill="none" xmlns="http://www.w3.org/2000/svg">
<path d="M45.435 15.1757H47.9417C47.7167 19.7423 45.4578 22.096 41.2298 22.153H41.0719L27.1745 22.1578V19.4557C25.4813 21.5716 23.6582 22.6461 21.802 22.6461C18.1232 22.6461 16.8533 20.8879 16.8533 16.9809V10.9247C16.8533 9.42706 16.6253 8.37599 14.9648 8.37599H14.613L4.65552 19.9763H7.48835C11.2 19.9763 11.9489 19.2926 12.1118 14.8318H14.391V22.1578H0L0 19.781L9.8979 8.37599H6.47883C3.64653 8.37599 2.99516 9.41792 2.96251 12.9994H0.650831L0.650831 6.1945H14.2156H14.391H20.7602V16.9809C20.7602 19.0975 21.3465 20.1394 23.1699 20.1394C25.4813 20.1394 27.1745 18.3483 27.1745 14.8967V10.9247C27.1745 9.42706 26.9405 8.37599 25.2803 8.37599H23.7823V6.1945L31.0755 6.1945L31.0815 18.0229C31.0815 19.5208 31.3096 19.9763 32.9699 19.9763L35.1609 19.9602C33.8933 18.6301 33.1926 16.7185 33.1926 14.2907C33.1926 9.37418 36.6821 6.19392 41.6963 6.19392C45.6033 6.19392 48.1103 8.32015 48.1103 10.9576C48.1103 12.6505 47.0685 13.725 45.506 13.725C44.106 13.725 43.1615 12.8783 43.1615 11.4783C43.1615 10.4693 43.9103 9.65488 45.0498 9.5247C44.0731 8.71105 43.0965 8.35293 41.8595 8.35293C39.2546 8.35293 37.6205 10.351 37.6205 14.258C37.6205 17.6245 38.9877 19.1805 41.6904 19.1805C43.9041 19.1805 45.109 17.878 45.435 15.1757ZM78.7479 16.5834L81.4829 16.5834C81.0416 20.2383 78.495 22.0346 74.7324 22.1473L58.146 22.1578V19.9763H59.2528C59.8386 19.9763 60.1967 19.7482 60.1967 19.4878C60.1967 19.3249 60.0666 18.9995 59.8063 18.6091L57.2343 14.8318L54.1411 17.2742V18.0229C54.1411 19.5208 54.3686 19.9763 56.0295 19.9763H56.4199V22.1578H47.4988V19.9763H48.3452C50.0061 19.9763 50.2338 19.5208 50.2338 18.0229V4.44546C50.2338 2.94789 50.0061 2.4919 48.3452 2.4919H47.4988V0.310402H54.1411V14.2459L59.0899 10.2084C59.448 9.91548 59.6761 9.688 59.6761 9.42706C59.6761 8.81142 59.5172 8.37599 58.768 8.37599H57.0102V6.1945H66.7453V8.37599H66.0938C64.7269 8.37599 63.8112 9.5247 62.9967 10.2084L59.9693 12.6831L63.8112 18.1209C64.6898 19.3578 65.6344 19.9763 66.8392 19.9763L68.2669 19.9594C66.9426 18.6213 66.2102 16.702 66.2102 14.2907C66.2102 9.40547 69.3673 6.23378 74.2629 6.19392H74.356L87.9843 6.1945L87.9905 9.1016C88.9999 7.27822 90.3677 6.36659 92.0603 6.36659C94.4049 6.36659 96 7.83173 96 9.88316C96 11.4783 94.9582 12.6505 93.3628 12.6505C91.9952 12.6505 91.1164 11.8042 91.1164 10.6317C91.1164 9.55759 91.8001 8.77625 93.1025 8.4179C92.5815 8.18997 92.1255 8.0921 91.7678 8.0921C89.7486 8.0921 87.9905 10.3063 87.9905 13.8879V18.0229C87.9905 19.5208 88.1862 19.9763 89.8465 19.9763H91.4745V22.1578L81.1205 22.1578V19.9763H82.1951C83.8555 19.9763 84.0511 19.5208 84.0511 18.0229L84.0451 10.4034C84.0451 8.90552 83.8495 8.45011 82.1892 8.45011L79.8757 8.45136C81.0159 9.8513 81.6109 11.9041 81.6109 14.616L70.6382 14.616C70.6382 17.7557 72.1685 19.5018 74.5779 19.5018C77.0849 19.5018 78.2269 19.0909 78.7479 16.5834ZM77.3129 12.3046C77.1176 9.50448 76.2119 8.38524 74.3232 8.38524C72.4347 8.38524 71.1917 9.56946 70.8013 12.3046L77.3129 12.3046Z" fill="black"/>
</svg>
