<svg width="81" height="81" viewBox="0 0 81 81" fill="none" xmlns="http://www.w3.org/2000/svg">
<g style="mix-blend-mode:plus-darker">
<path d="M39.5387 18.1536C38.8618 18.3998 38.1849 18.7382 38.031 18.8921C37.8464 19.0767 37.4772 19.1998 37.1695 19.1998C36.8618 19.1998 36.6156 19.3228 36.6156 19.5075C36.6156 19.6613 36.3695 20.0613 36.0618 20.369C35.7541 20.6767 35.3849 21.3844 35.2002 21.969C34.9541 22.8613 34.7695 23.0151 34.1541 22.9536C33.7233 22.8921 33.1387 22.6151 32.8618 22.369C32.5541 22.0921 32.0618 21.969 31.6925 22.0613C31.3233 22.1536 31.0772 22.0613 31.0772 21.8151C31.0772 21.5075 30.7695 21.5382 29.6925 21.9382C28.0618 22.5536 27.9079 22.7074 27.8156 23.5998C27.7541 24.4305 28.6156 25.969 29.1387 25.969C29.3541 25.969 29.5387 26.2151 29.5387 26.5536C29.5387 27.2305 30.2772 27.9074 31.1387 28.0305C31.4772 28.0921 31.9695 28.3382 32.2156 28.6151C32.5849 28.9844 33.1079 29.0459 34.2772 28.9228C35.3541 28.8305 35.5695 28.8613 34.9233 29.0151C34.0925 29.2305 34.0618 29.2921 34.6156 29.4767C34.9541 29.5998 35.4464 29.8151 35.7233 29.969C36.5541 30.3998 38.6772 30.4305 39.1695 29.9998C39.4464 29.7844 39.5695 29.4151 39.4772 29.169C39.3849 28.9228 39.4772 28.7074 39.6618 28.7074C39.8464 28.6767 40.1541 28.6459 40.3387 28.6151C40.6772 28.5844 42.4618 26.3382 42.4618 25.9382C42.4618 25.8151 43.0156 24.7998 43.6618 23.6613C45.0156 21.3536 45.1695 19.6305 44.1233 18.5536C43.3541 17.7844 41.1387 17.5998 39.5387 18.1536ZM42.4618 20.1228C42.4618 20.2767 42.2464 20.4305 42.0002 20.4305C41.7541 20.4305 41.5387 20.2767 41.5387 20.1228C41.5387 19.9382 41.7541 19.8151 42.0002 19.8151C42.2464 19.8151 42.4618 19.9382 42.4618 20.1228ZM29.3849 23.5074C29.4772 23.6613 29.4156 23.8151 29.2618 23.8151C29.0772 23.8151 28.9233 23.6613 28.9233 23.5074C28.9233 23.3228 28.9849 23.1998 29.0464 23.1998C29.1387 23.1998 29.2925 23.3228 29.3849 23.5074ZM33.6925 23.5074C33.7849 23.6613 33.7541 23.8151 33.5695 23.8151C33.4156 23.8151 33.1695 23.6613 33.0772 23.5074C32.9849 23.3228 33.0156 23.1998 33.2002 23.1998C33.3541 23.1998 33.6002 23.3228 33.6925 23.5074ZM30.3387 24.6459C30.031 24.9536 29.7541 24.4921 30.031 24.0921C30.2156 23.7536 30.2772 23.7536 30.4002 24.0921C30.4618 24.3074 30.431 24.5536 30.3387 24.6459ZM42.1541 24.1228C42.1541 24.2767 42.031 24.4305 41.8464 24.4305C41.6925 24.4305 41.5387 24.2767 41.5387 24.1228C41.5387 23.9382 41.6925 23.8151 41.8464 23.8151C42.031 23.8151 42.1541 23.9382 42.1541 24.1228ZM33.2925 25.169C33.231 25.4459 33.3541 25.6613 33.5387 25.6613C33.7233 25.6613 33.7849 25.8151 33.6618 25.9998C33.5387 26.2151 33.2618 26.1228 32.8618 25.7228C32.5233 25.3844 32.3387 24.9536 32.4618 24.7382C32.7695 24.2459 33.4156 24.5536 33.2925 25.169ZM41.4156 25.3536C41.4156 25.6921 41.2925 25.969 41.1695 25.969C40.8618 25.969 40.831 25.2305 41.1387 24.9536C41.4156 24.6767 41.4156 24.6459 41.4156 25.3536ZM30.1541 25.169C30.1541 25.2613 30.031 25.4151 29.8464 25.5074C29.6925 25.5998 29.5387 25.5382 29.5387 25.3844C29.5387 25.1998 29.6925 25.0459 29.8464 25.0459C30.031 25.0459 30.1541 25.1074 30.1541 25.169ZM38.7695 27.1998C38.7695 27.3536 38.7079 27.5074 38.6464 27.5074C38.5541 27.5074 38.4002 27.3536 38.3079 27.1998C38.2156 27.0151 38.2772 26.8921 38.431 26.8921C38.6156 26.8921 38.7695 27.0151 38.7695 27.1998ZM32.0002 27.5074C32.0002 27.6613 31.7849 27.7228 31.5387 27.6305C31.2925 27.5074 31.0772 27.3844 31.0772 27.3228C31.0772 27.2613 31.2925 27.1998 31.5387 27.1998C31.7849 27.1998 32.0002 27.3228 32.0002 27.5074ZM38.2772 28.7074C38.4002 28.8613 38.1849 28.9228 37.8464 28.8305C37.1387 28.6459 37.0464 28.4305 37.6618 28.4305C37.9079 28.4305 38.1849 28.5536 38.2772 28.7074Z" fill="black" fill-opacity="0.6"/>
</g>
<g style="mix-blend-mode:plus-darker">
<path fill-rule="evenodd" clip-rule="evenodd" d="M53.0765 24.7383C54.1227 24.7075 55.2611 23.8768 59.938 19.5691C61.0457 18.5844 61.538 18.4614 61.7842 19.1383C61.9688 19.7537 57.938 23.2921 57.0457 23.2921C56.8303 23.2921 56.7073 23.4152 56.7688 23.5383C56.9842 23.846 53.7842 25.9691 53.138 25.9691C52.8303 25.9691 52.6765 25.8152 52.7688 25.6614C52.8611 25.4768 52.7996 25.3537 52.615 25.3537C52.4303 25.3537 52.215 25.5383 52.1227 25.7844C51.938 26.3075 51.2611 26.6152 50.0303 26.7691C48.9227 26.9229 48.8611 26.9844 49.1073 27.6306C49.2611 27.9998 49.6919 28.1229 50.8919 28.1229C52.6457 28.1229 53.0765 28.3075 52.615 28.9229C52.3688 29.1998 52.4303 29.2921 52.7996 29.2306C54.338 29.1075 52.6765 31.3844 51.015 31.7229C50.5534 31.8152 50.1534 32.0614 50.1534 32.2768C50.1534 32.5229 50.0611 32.9229 49.938 33.2306C49.7842 33.6614 49.8765 33.7229 50.5842 33.5383C51.1996 33.3844 51.3842 33.4152 51.1996 33.6921C51.0457 33.9691 51.138 33.9998 51.5073 33.8768C51.815 33.7537 52.1842 33.7229 52.3073 33.8152C52.6457 34.0306 52.0611 35.8152 51.6611 35.8152C51.5073 35.8152 51.3842 35.9691 51.3842 36.1537C51.3842 36.3691 51.138 36.7075 50.8611 36.9537C50.4611 37.2614 50.6765 37.2306 51.5996 36.8614C52.338 36.5844 53.1073 36.4306 53.3534 36.5229C53.6303 36.646 53.7534 36.5537 53.6611 36.3075C53.4457 35.7229 54.4611 34.9537 55.938 34.646C56.9842 34.3998 57.2303 34.4306 57.2303 34.7691C57.2303 35.0152 57.1073 35.1998 56.9842 35.1998C56.8611 35.1998 56.7073 35.6306 56.6765 36.1844C56.615 36.7383 56.4611 37.2614 56.2765 37.3844C56.0919 37.4768 56.3996 37.6614 56.9227 37.7537C57.6303 37.9075 57.8765 38.1229 57.7842 38.4921C57.538 39.846 55.3842 38.7383 55.3842 37.2921C55.3842 36.5229 54.9227 36.5844 53.7227 37.5075C53.1688 37.9383 52.0611 38.4921 51.2611 38.7691C49.9073 39.2306 49.7842 39.2306 49.2303 38.7383C48.5534 38.1229 48.4611 37.3229 48.9227 36.3998C49.138 35.9998 49.138 35.8152 48.9227 35.8152C48.1842 35.8152 48.7073 34.9537 49.5688 34.7691C50.0919 34.6768 50.4303 34.4614 50.3073 34.2768C50.1842 34.0921 49.9688 34.0614 49.7842 34.1537C49.5996 34.2768 49.538 34.2152 49.6611 34.0306C49.7534 33.846 49.7227 33.6306 49.5688 33.5383C49.415 33.446 49.2303 33.6614 49.138 33.9998C49.015 34.4921 48.8303 34.6152 48.3996 34.4306C48.0919 34.3075 47.6611 34.1844 47.4457 34.1844C47.2303 34.1844 47.1073 33.9998 47.1996 33.7844C47.2919 33.5691 47.1996 33.3537 47.015 33.2921C46.8303 33.2306 47.2303 32.7691 47.8765 32.2768C48.9534 31.446 50.4611 29.9998 50.4611 29.7844C50.4611 29.7537 50.0611 29.7229 49.538 29.7229C48.9534 29.7537 48.4303 29.5075 48.0303 29.0152C46.8611 27.6306 47.4765 25.6921 48.9227 26.0614C49.2611 26.1537 49.538 26.0921 49.538 25.9075C49.538 25.7537 49.7227 25.6614 49.938 25.7537C50.1227 25.8152 50.7996 25.6306 51.3842 25.2921C51.9688 24.9844 52.738 24.7383 53.0765 24.7383ZM51.5688 30.5537C51.2919 30.9537 51.5688 31.4152 51.8765 31.1075C51.9688 31.0152 51.9996 30.7691 51.938 30.5537C51.815 30.2152 51.7534 30.2152 51.5688 30.5537ZM47.9996 33.1998C48.1842 33.2921 48.5227 33.1691 48.7996 32.9229C49.2303 32.4614 49.2303 32.4306 48.6457 32.4306C47.938 32.4306 47.538 32.9229 47.9996 33.1998ZM55.5688 35.4768C55.2919 35.8768 55.5688 36.3383 55.8765 36.0306C55.9688 35.9383 55.9996 35.6921 55.938 35.4768C55.815 35.1383 55.7534 35.1383 55.5688 35.4768ZM50.5842 36.4306C50.8611 36.4306 51.0765 36.2768 51.0765 36.1229C51.0765 35.9383 50.9534 35.8152 50.7996 35.8152C50.615 35.8152 50.3996 35.9383 50.3073 36.1229C50.215 36.2768 50.338 36.4306 50.5842 36.4306ZM51.6611 37.9691C51.8457 37.9691 51.9996 37.8152 51.9996 37.6614C51.9996 37.4768 51.938 37.3537 51.8765 37.3537C51.7842 37.3537 51.6303 37.4768 51.538 37.6614C51.4457 37.8152 51.5073 37.9691 51.6611 37.9691ZM64.4922 24.4306C64.7691 23.846 65.1383 23.2614 65.3537 23.1383C65.846 22.7998 65.9075 22.8306 65.6614 23.2614C65.5075 23.4767 65.5999 23.5383 65.9383 23.4152C67.0768 22.9844 66.4922 25.2614 65.046 26.9229C64.7999 27.169 64.6152 27.5383 64.6152 27.7229C64.6152 27.9075 64.3999 28.2152 64.1537 28.4306C63.9075 28.646 63.6922 29.1075 63.6922 29.5075C63.6922 29.8767 63.5999 30.2767 63.4768 30.3998C63.3229 30.5229 63.2306 30.7383 63.1999 30.8306C63.1691 31.2306 61.9999 33.046 61.7845 33.046C61.6614 33.046 61.6306 33.2306 61.7229 33.446C61.7845 33.6614 61.5383 34.2152 61.1075 34.6767C60.6768 35.1383 60.3999 35.5075 60.4922 35.5075C60.5845 35.5075 60.4922 35.7844 60.3075 36.1229C60.1229 36.4921 59.6614 36.7383 59.2306 36.7383H58.4614L59.0152 35.569C59.6306 34.246 59.9691 33.9075 60.6152 34.1229C60.8922 34.2152 60.8306 34.0921 60.4614 33.8152C59.9075 33.3537 59.9075 33.3229 60.8614 32.9844C61.9075 32.5844 62.1845 32.1229 61.3537 32.1229C61.0152 32.1229 60.9229 31.969 61.046 31.6306C61.1383 31.3537 61.2306 31.0152 61.2306 30.8614C61.2306 30.7075 61.446 30.5844 61.6922 30.5844C61.9383 30.5844 62.1537 30.7383 62.1537 30.9229C62.1537 31.1075 62.3691 31.046 62.6152 30.769C63.2614 30.1537 63.1999 29.8767 62.4614 30.1229C61.8768 30.3075 61.846 30.2152 62.0306 28.9844C62.1537 28.1844 62.5845 27.2306 63.1075 26.5844C63.6306 25.9998 64.246 25.0152 64.4922 24.4306ZM65.2306 25.1998C65.4152 25.1075 65.5383 24.9537 65.5383 24.8614C65.5383 24.7998 65.4152 24.7383 65.2306 24.7383C65.0768 24.7383 64.9229 24.8921 64.9229 25.0767C64.9229 25.2306 65.0768 25.2921 65.2306 25.1998ZM59.2304 37.3537C59.3227 37.5075 59.4766 37.6614 59.5689 37.6614C59.6304 37.6614 59.692 37.5075 59.692 37.3537C59.692 37.169 59.5381 37.046 59.3535 37.046C59.1997 37.046 59.1381 37.169 59.2304 37.3537ZM47.938 35.446C47.138 36.246 45.9072 35.6921 46.2764 34.7383C46.4918 34.1844 46.7995 34.1229 46.7072 34.646C46.5841 35.1075 47.3841 35.1998 47.938 34.7998C48.4303 34.4306 48.4303 34.9537 47.938 35.446Z" fill="black" fill-opacity="0.6"/>
</g>
<g style="mix-blend-mode:plus-darker">
<path fill-rule="evenodd" clip-rule="evenodd" d="M36.7685 39.1691C36.8916 39.6306 36.7993 39.7229 36.1839 39.6614C35.2916 39.5383 34.3993 40.1229 34.2762 40.8614C34.1839 41.4152 34.6762 41.4768 35.8762 41.046C36.9531 40.6152 37.2301 40.9229 36.3685 41.5383C35.5685 42.0922 35.507 42.7383 36.1839 43.1383C36.6147 43.3845 36.6147 43.446 36.0301 43.5999C35.6916 43.6922 35.4455 43.6306 35.4762 43.5076C35.507 43.3845 35.4147 43.2922 35.2301 43.3229C35.0762 43.3229 34.9224 43.7537 34.9224 44.2152C34.8916 44.7076 34.7685 45.1691 34.5839 45.2922C34.3993 45.4152 34.1839 45.7537 34.0608 46.0306C33.8455 46.646 33.3839 46.7383 33.0762 46.246C32.9531 46.0614 33.107 45.7229 33.4147 45.5076C33.7531 45.2614 33.8762 45.046 33.7531 45.046C33.5378 45.046 31.6916 46.7999 30.7993 47.9076C30.4301 48.3691 30.4608 48.4306 31.0455 48.4306C31.4147 48.4306 31.6301 48.2768 31.5378 48.1229C31.4455 47.9383 31.5685 47.8152 31.8455 47.8152C32.1531 47.8152 32.2455 47.6614 32.1224 47.4152C31.9378 47.1691 32.0301 47.1691 32.3993 47.446C32.9531 47.9076 33.6608 47.6614 33.3531 47.1383C33.2301 46.9229 33.2916 46.8922 33.507 47.0152C33.7224 47.1691 34.5224 46.7383 35.4762 46.0306C37.7839 44.2768 38.3378 44.0306 38.3378 44.7383C38.3378 45.046 38.2455 45.2614 38.1224 45.1691C37.9993 45.1076 37.8455 45.2614 37.7224 45.5076C37.5378 45.9999 37.9993 46.3999 38.4608 46.1229C38.6455 46.0306 38.7685 46.0614 38.7685 46.2152C38.7685 46.7076 38.3685 46.8922 37.9685 46.5537C37.6608 46.3076 37.3531 46.4306 36.7685 47.0152C36.3378 47.446 36.0301 47.9383 36.1532 48.0922C36.3993 48.5229 38.1839 48.1537 39.2301 47.4768C39.9993 46.9845 40.0608 46.8922 39.5378 46.8614H38.9224L39.5378 46.6152C39.8762 46.4614 40.1839 46.4614 40.2455 46.6152C40.3685 46.9229 42.4608 45.7845 43.107 45.046C43.7224 44.3383 45.0762 43.9383 45.3532 44.3999C45.4762 44.5537 44.8608 45.3537 44.0301 46.1537C42.7993 47.3229 42.5532 47.7229 42.8301 48.0306C43.0762 48.3383 43.0762 48.5537 42.8301 48.7999C42.6147 49.0152 42.4608 49.046 42.4608 48.9229C42.4608 48.7691 42.2147 48.8614 41.9378 49.0768C41.5993 49.3845 41.507 49.3845 41.6608 49.1076C41.7839 48.8922 41.7224 48.7383 41.5378 48.7383C41.3532 48.7383 41.2916 48.5537 41.3839 48.3383C41.507 48.1537 41.3532 48.246 41.107 48.5537C40.4608 49.3845 40.4916 49.5999 41.3224 49.7229C41.9685 49.8152 44.0301 48.8614 44.2455 48.3691C44.307 48.2152 44.4916 48.1845 44.6455 48.3076C44.7993 48.3999 44.9224 48.3076 44.9224 48.1537C44.9224 47.6922 45.2608 47.7537 45.9378 48.246C46.3993 48.6152 46.4301 48.7999 46.1224 49.4768C45.907 49.9076 45.6301 50.2768 45.507 50.2768C45.3839 50.2768 45.1993 50.6152 45.107 51.0152C44.9839 51.5383 44.6455 51.8152 43.9378 51.9383C43.7246 51.9857 43.4658 52.0376 43.2018 52.0906L43.2018 52.0906L43.2017 52.0906C42.7799 52.1753 42.3447 52.2626 42.0608 52.3383C41.5685 52.4306 41.0762 52.7383 40.9839 53.0152C40.8608 53.2922 40.4916 53.5076 40.1532 53.5076C39.7532 53.5076 39.5685 53.6922 39.5685 54.0614C39.5993 54.4306 39.4762 54.5537 39.107 54.4306C38.7685 54.3383 38.4301 54.5845 38.0608 55.1999C37.7471 55.7078 37.5857 55.9691 37.6506 56.0507C37.7193 56.1372 38.0421 56.022 38.7069 55.7845L38.7069 55.7845L38.707 55.7845L38.707 55.7845C39.2608 55.5999 39.6301 55.3229 39.5378 55.1999C39.4455 55.046 39.8147 54.8922 40.3685 54.8306C41.2608 54.7383 41.3839 54.646 41.3224 53.8768C41.2608 53.1999 41.3532 53.0768 41.6608 53.3229C41.8762 53.5076 42.1839 53.5383 42.3378 53.4152C42.4608 53.2922 42.4301 53.446 42.2147 53.7229C41.8762 54.1537 41.907 54.2152 42.4301 54.0614C42.7993 53.9691 43.0762 53.7229 43.0762 53.5383C43.0762 53.3537 43.4455 53.1383 43.8762 53.1076C44.9531 53.0152 45.5378 52.5229 45.3224 51.8768C45.1993 51.446 45.2301 51.446 45.4762 51.7845C45.7532 52.1537 45.8762 52.1537 46.307 51.7229C46.5839 51.4152 46.707 51.1999 46.5839 51.1999C46.4608 51.1999 46.707 50.7999 47.1685 50.3383C48.1839 49.2614 48.3993 48.3691 47.8455 47.5999C47.5993 47.2922 47.3839 47.1999 47.3839 47.3845C47.3839 47.7845 45.8455 48.1845 45.8455 47.7845C45.8455 47.6614 46.0301 47.5076 46.2455 47.4152C46.4916 47.3229 46.4608 47.1999 46.0916 47.046C45.6301 46.8614 45.6608 46.7383 46.3378 45.7537C46.7378 45.1383 47.0762 44.4614 47.0762 44.246C47.0762 43.7229 46.1532 42.8614 45.8147 43.046C45.6608 43.1691 45.5378 43.0768 45.5378 42.9229C45.5378 42.3383 42.3378 43.7537 41.4762 44.7076C40.7993 45.4768 40.6455 45.5383 40.4608 45.1076C40.3378 44.7691 40.6147 44.2768 41.3532 43.6306C41.9685 43.0768 42.4608 42.3999 42.4608 42.0922C42.4608 41.5999 42.3993 41.5999 41.7839 42.1537C41.1993 42.6768 41.1378 42.6768 41.3224 42.2152C41.4147 41.9076 41.3839 41.5999 41.2301 41.5076C41.0455 41.3845 40.9224 41.4768 40.9224 41.6306C40.9224 41.8152 40.3685 42.0614 39.6608 42.1537C38.7993 42.3076 38.4608 42.4922 38.5839 42.7691C38.6762 43.0152 38.5532 43.1999 38.3378 43.1999C38.0916 43.1999 37.6301 43.2922 37.3224 43.3845C37.0147 43.4768 36.8916 43.446 37.0762 43.2922C37.2608 43.1691 37.4147 42.8306 37.4762 42.5845C37.5378 42.3383 37.9685 41.7537 38.4301 41.2922C39.0762 40.6768 39.2608 40.2768 39.1685 39.6922C39.0147 38.8922 38.6455 38.646 38.3378 39.1691C38.2147 39.3229 38.307 39.5383 38.4608 39.5999C38.6455 39.6922 38.6147 39.7229 38.3993 39.6922C38.1839 39.6306 38.0301 39.3845 38.0916 39.0768C38.1532 38.7383 37.9685 38.5845 37.3839 38.5845C36.7378 38.5845 36.6147 38.7076 36.7685 39.1691ZM42.4608 44.8922C42.4608 45.1383 42.3378 45.3537 42.1532 45.3537C41.9993 45.3537 41.8455 45.1383 41.8455 44.8922C41.8455 44.646 41.9993 44.4306 42.1532 44.4306C42.3378 44.4306 42.4608 44.646 42.4608 44.8922ZM40.1532 45.0152C40.2455 45.1691 40.1839 45.3845 39.9993 45.5076C39.8455 45.5999 39.6916 45.4768 39.6916 45.2306C39.6916 44.6768 39.8762 44.5845 40.1532 45.0152ZM26.1538 38.8921C25.9077 39.046 25.8461 39.1998 26 39.1998C26.1846 39.1998 25.6923 39.5075 24.9538 39.846C23.6615 40.4614 21.8154 41.8768 22.7692 41.5383C23.3846 41.3229 24.123 41.8152 23.8769 42.246C23.6 42.6768 23.0461 42.6768 23.1384 42.246C23.2 42.0614 22.923 41.846 22.523 41.7845C21.9384 41.6921 21.6923 41.9691 20.923 43.5691L20.7771 43.8691C20.1665 45.1234 19.9818 45.5029 20.086 45.6159C20.1312 45.6649 20.2308 45.6637 20.3737 45.662H20.3737H20.3737C20.4014 45.6617 20.4307 45.6614 20.4615 45.6614C20.8615 45.6614 20.8923 45.7229 20.5538 46.0922C20.2154 46.4614 20.1538 46.4614 20.0615 46.0922C20.0086 45.8806 19.9785 45.76 19.9027 45.7131C19.8021 45.651 19.6211 45.7188 19.2 45.8768C18.7077 46.0614 18.7077 46.0922 19.2615 46.3075C19.8154 46.5229 19.8154 46.5537 19.2 46.5537C18.8307 46.5845 18.3692 46.7691 18.1846 47.0152C17.6307 47.6922 18.8615 47.846 20.0307 47.2306C21.2615 46.6152 22.4923 45.0152 21.9384 44.8306C21.3538 44.6152 21.4461 44.2152 22.1538 44.0306C22.9538 43.8152 22.923 43.2306 22.0923 42.9229C21.723 42.7998 21.5692 42.6152 21.7538 42.4921C21.9384 42.3691 22.2461 42.4921 22.4615 42.7383C22.7384 43.0768 22.9846 43.0768 23.5692 42.8306C23.9692 42.646 24.3077 42.3691 24.3077 42.246C24.3077 41.9691 26.1846 41.2921 26.4 41.5075C26.4923 41.5691 26.3692 41.8768 26.1538 42.1537C25.7846 42.5537 25.8154 42.6768 26.1538 42.8921C26.4615 43.0768 26.3692 43.1998 25.723 43.3845C25.1077 43.5383 24.9846 43.6614 25.2923 43.846C25.6 44.0614 25.5692 44.1229 25.1692 44.1229C24.8923 44.1229 24.3384 44.646 23.9692 45.2614C23.2307 46.4306 22.9538 47.6306 23.4769 47.2922C23.6615 47.1691 23.6923 47.4152 23.5692 47.9383C23.3846 48.6768 23.4461 48.7383 24.3077 48.7383C24.8 48.7383 25.4769 48.4922 25.8154 48.1845C27.2923 46.7998 28.2154 46.0306 29.0154 45.5383C29.4769 45.2306 29.8461 44.8306 29.8461 44.6768C29.8461 44.4921 29.6 44.5537 29.323 44.7691C28.8307 45.1691 28.8 45.1383 29.2 44.646C29.4461 44.3383 29.8154 44.1537 30.0615 44.246C30.2769 44.3383 30.7077 44.1229 31.0154 43.8152C31.323 43.4768 32.2769 42.8306 33.1077 42.3998C33.9384 41.9691 34.4 41.6921 34.123 41.7845C33.8461 41.846 33.4461 41.7845 33.2 41.6306C32.8615 41.4152 32.8615 41.3537 33.323 41.3537C33.6 41.3537 33.8461 41.1383 33.8461 40.8921C33.8461 40.5229 33.723 40.4921 33.0769 40.7998C32.6769 40.9845 32.4 41.2614 32.4923 41.3845C32.5846 41.5383 32.4307 41.6614 32.1538 41.6614C31.0461 41.6614 28.6461 43.8152 28.6154 44.8306C28.6154 45.2306 28.4615 45.3537 28.0615 45.2306C27.6923 45.1075 27.2 45.3537 26.6154 45.9691C26.123 46.4614 25.5384 46.8921 25.2615 46.8921C24.9538 46.8921 25.0461 46.646 25.6307 46.0306C26.0923 45.5691 26.4615 45.0152 26.4615 44.7998C26.4615 44.5845 26.5846 44.4306 26.7384 44.4306C27.1692 44.4306 29.2307 41.0152 29.2307 40.3383C29.2307 39.5691 28.4 38.7998 27.8154 39.0152C27.5692 39.1075 27.4461 39.0768 27.5384 38.8921C27.7846 38.4921 26.7692 38.4921 26.1538 38.8921ZM24.7384 41.046C24.0615 41.3229 23.8461 41.2306 24.123 40.7691C24.2461 40.5845 24.5538 40.5537 24.8307 40.646C25.2923 40.8306 25.2615 40.8614 24.7384 41.046ZM27.6 41.5383C27.5077 41.6306 27.2307 41.6614 27.0154 41.5691C26.7692 41.4768 26.8615 41.3845 27.2 41.3845C27.5384 41.3537 27.723 41.446 27.6 41.5383ZM24.8307 45.1998C24.7077 45.446 24.4923 45.6614 24.3077 45.6614C24.123 45.6614 24.123 45.446 24.3692 45.046C24.8 44.3691 25.1077 44.4614 24.8307 45.1998ZM18.1538 49.3537C17.9999 49.3537 17.8461 48.9845 17.8769 48.4922C17.8769 48.0306 17.9692 47.846 18.0615 48.0614C18.123 48.246 18.3692 48.3383 18.5538 48.2152C18.7692 48.0922 18.7999 48.2152 18.6769 48.5537C18.5538 48.8614 18.4615 49.1691 18.4615 49.2306C18.4615 49.2922 18.3384 49.3537 18.1538 49.3537ZM17.1071 48.7075C16.3379 49.9075 15.0763 52.5537 15.0763 52.9229C15.0763 53.1691 14.9532 53.3537 14.7686 53.3537C14.6148 53.3537 14.4609 53.6306 14.4609 53.9383C14.4609 54.3691 14.6148 54.4922 15.0763 54.3691C15.4148 54.2768 15.6917 54.0614 15.6609 53.846C15.5686 53.1383 15.6917 52.7383 15.9994 52.7999C16.184 52.8614 16.7071 52.1845 17.1686 51.3537C17.9071 50.0306 17.9686 49.7229 17.6609 49.1075C17.4763 48.6768 17.1994 48.5229 17.1071 48.7075ZM36.2765 54.5845C36.615 54.5845 36.9842 54.4306 37.0765 54.2768C37.1996 54.0922 37.415 54.0306 37.5688 54.1537C37.9688 54.3998 37.5996 54.8922 37.015 54.8922C36.615 54.8922 36.615 54.9845 36.9534 55.3845C37.2611 55.7845 37.2611 55.9075 36.9227 56.1229C36.6765 56.2768 36.3996 56.3383 36.2765 56.246C36.1534 56.1845 35.9996 56.3075 35.9073 56.5537C35.815 56.7998 34.9842 57.3537 34.0919 57.7845C33.8489 57.9101 33.5603 58.0586 33.2502 58.2182C32.4218 58.6444 31.4405 59.1493 30.7688 59.5075C29.8457 59.9998 28.9842 60.3075 28.8611 60.246C28.7381 60.1537 28.615 60.246 28.615 60.3998C28.615 60.5845 28.3996 60.7383 28.1534 60.7383C27.9073 60.7383 27.6919 60.9537 27.6919 61.1998C27.6919 61.446 27.5688 61.6614 27.415 61.6614C27.2611 61.6614 26.7073 62.0306 26.1842 62.4614C25.015 63.446 23.5996 63.3845 23.4457 62.3691C23.3842 61.8768 23.7534 61.4152 24.9842 60.4922C26.9842 58.9845 32.615 55.9998 34.3996 55.4768C35.1073 55.2614 35.6919 54.9845 35.6919 54.8306C35.6919 54.7075 35.9688 54.5845 36.2765 54.5845ZM29.2304 59.3229C29.2304 59.5075 29.3842 59.4768 29.5996 59.2614C29.7842 59.0768 29.8765 58.8306 29.815 58.7383C29.5996 58.5229 29.2304 58.8922 29.2304 59.3229ZM25.5073 60.7383C25.6919 60.7383 25.8457 60.5845 25.8457 60.4306C25.8457 60.246 25.7842 60.1229 25.7227 60.1229C25.6304 60.1229 25.4765 60.246 25.3842 60.4306C25.2919 60.5845 25.3534 60.7383 25.5073 60.7383ZM26.3996 60.3383C26.615 60.4306 26.8919 60.3998 26.9842 60.3075C27.1073 60.2152 26.9227 60.1229 26.5842 60.1537C26.2457 60.1537 26.1534 60.246 26.3996 60.3383Z" fill="black" fill-opacity="0.6"/>
</g>
</svg>
